<?xml version="1.0" encoding="utf-8"?>
<!-- Generator: Adobe Illustrator 22.1.0, SVG Export Plug-In . SVG Version: 6.00 Build 0)  -->
<svg version="1.1" id="Layer_1" xmlns="http://www.w3.org/2000/svg" xmlns:xlink="http://www.w3.org/1999/xlink" x="0px" y="0px"
	 viewBox="0 0 32 32" style="enable-background:new 0 0 32 32;" xml:space="preserve">
<style type="text/css">
	.st0{fill:#FFFFFF;}
	.st1{fill:#ABABAB;}
	.st2{clip-path:url(#SVGID_2_);fill:#E8E8E8;}
</style>
<g>
	<g>
		<path class="st0" d="M27.8,7.2c0,6.1,0,14.7,0,23.2c0,0.9-0.7,1.6-1.6,1.6H5.3c-0.9,0-1.6-0.7-1.6-1.6V1.6C3.8,0.7,4.5,0,5.3,0
			c0,0,8.6,0,15.2,0L27.8,7.2z"/>
		<path class="st1" d="M25.5,11.2H6c-0.4,0-0.7-0.3-0.7-0.7v-0.3c0-0.4,0.3-0.7,0.7-0.7h19.5c0.4,0,0.7,0.3,0.7,0.7v0.3
			C26.1,10.9,25.9,11.2,25.5,11.2z"/>
		<path class="st1" d="M25.5,19.2H6c-0.4,0-0.7-0.3-0.7-0.7v-0.3c0-0.4,0.3-0.7,0.7-0.7h19.5c0.4,0,0.7,0.3,0.7,0.7v0.3
			C26.1,18.9,25.9,19.2,25.5,19.2z"/>
		<path class="st1" d="M25.5,23.2H6c-0.4,0-0.7-0.3-0.7-0.7v-0.3c0-0.4,0.3-0.7,0.7-0.7h19.5c0.4,0,0.7,0.3,0.7,0.7v0.3
			C26.1,22.9,25.9,23.2,25.5,23.2z"/>
		<path class="st1" d="M25.5,15.2H6c-0.4,0-0.7-0.3-0.7-0.7v-0.3c0-0.4,0.3-0.7,0.7-0.7h19.5c0.4,0,0.7,0.3,0.7,0.7v0.3
			C26.1,14.9,25.9,15.2,25.5,15.2z"/>
		<path class="st1" d="M12.7,7.2H6c-0.4,0-0.7-0.3-0.7-0.7V6.3c0-0.4,0.3-0.7,0.7-0.7h6.7c0.4,0,0.7,0.3,0.7,0.7v0.3
			C13.4,6.9,13.1,7.2,12.7,7.2z"/>
		<path class="st1" d="M18.3,27.2H6c-0.4,0-0.7-0.3-0.7-0.7v-0.3c0-0.4,0.3-0.7,0.7-0.7h12.3c0.4,0,0.7,0.3,0.7,0.7v0.3
			C19,26.9,18.6,27.2,18.3,27.2z"/>
	</g>
	<g>
		<defs>
			<path id="SVGID_1_" d="M27.8,7.2c0,6.1,0,14.7,0,23.2c0,0.9-0.7,1.6-1.6,1.6H5.3c-0.9,0-1.6-0.7-1.6-1.6V1.6C3.8,0.7,4.5,0,5.3,0
				c0,0,8.6,0,15.2,0L27.8,7.2z"/>
		</defs>
		<clipPath id="SVGID_2_">
			<use xlink:href="#SVGID_1_"  style="overflow:visible;"/>
		</clipPath>
		<path class="st2" d="M31,7.2h-6.4c-2.2,0-4-1.8-4-4v-6.4c0-2.2,1.8-4,4-4H31c2.2,0,4,1.8,4,4v6.4C35,5.4,33.2,7.2,31,7.2z"/>
	</g>
</g>
</svg>
