<?xml version="1.0" encoding="utf-8"?>
<!-- Generator: Adobe Illustrator 22.1.0, SVG Export Plug-In . SVG Version: 6.00 Build 0)  -->
<svg version="1.1" xmlns="http://www.w3.org/2000/svg" xmlns:xlink="http://www.w3.org/1999/xlink" x="0px" y="0px"
	 viewBox="0 0 250 250" style="enable-background:new 0 0 250 250;" xml:space="preserve">
<style type="text/css">
	.st0{fill:#94D0FF;}
	.st1{fill:#0F1020;}
	.st2{fill:#F65BE3;}
	.st3{fill:#F497DA;}
	.st4{fill:#F8BDC4;}
	.st5{fill:#D17B88;}
	.st6{fill:#6599FF;}
	.st7{fill:#B281FF;}
	.st8{fill:#FFFFFF;}
</style>
<g id="Layer_1">
	<rect class="st0" width="250" height="250"/>
</g>
<g id="Layer_4">
	<polygon class="st1" points="34.3,208.3 82.9,193.9 48.7,159.7 	"/>
	<polygon class="st2" points="202.5,31.2 125,84.7 211,125 	"/>
	<polygon class="st3" points="10.4,20.2 37.2,60.6 58.9,17.3 	"/>
	<circle class="st4" cx="213" cy="181" r="35"/>
	<polygon class="st5" points="174,168 174,168 174,168 174,168 	"/>
</g>
<g id="Layer_5">
	<polygon class="st0" points="233.5,214.8 169.2,172.6 170.6,170.5 234.8,212.7 	"/>
	<polygon class="st0" points="236.5,210.8 172.2,168.6 173.6,166.5 237.8,208.7 	"/>
	<polygon class="st0" points="240.2,207.2 175.1,164.6 176.4,162.5 241.6,205.1 	"/>
	<polygon class="st0" points="243.2,203.2 178.1,160.6 179.4,158.5 244.6,201.1 	"/>
	<polygon class="st0" points="246.4,199 181,156.8 182.3,154.8 247.7,196.9 	"/>
	<polygon class="st0" points="247.4,193.9 183.9,152.6 185.2,150.5 248.7,191.8 	"/>
	<polygon class="st0" points="248.5,188.8 187.2,148.6 188.5,146.5 249.8,186.7 	"/>
	<polygon class="st0" points="248.5,182.8 189.9,144.6 191.2,142.5 249.8,180.7 	"/>
	<polygon class="st0" points="248.5,176.8 193,140.6 194.3,138.5 249.8,174.8 	"/>
	<polygon class="st0" points="248.4,171 195.8,137 197.4,134.5 250,168.4 	"/>
	<polygon class="st0" points="246.9,164.2 199,133.1 200.7,130.5 248.5,161.6 	"/>
	<polygon class="st0" points="228.6,217.5 166,176.6 167.4,174.5 230,215.4 	"/>
	<polygon class="st0" points="225.6,220.7 163,181.4 164.4,179.3 227,218.6 	"/>
	<polygon class="st0" points="222.6,225.5 160,184.6 161.4,182.5 224,223.4 	"/>
	<polygon class="st0" points="220.6,230.5 158,189.7 159.4,187.5 222,228.3 	"/>
	<polygon class="st0" points="64,233.7 9,178.5 10.8,176.7 65.7,231.9 	"/>
	<polygon class="st0" points="67.7,230.4 12.8,175.2 14.5,173.4 69.4,228.6 	"/>
	<polygon class="st0" points="71.7,226.9 16.4,172.1 18.1,170.4 73.4,225.1 	"/>
	<polygon class="st0" points="73.7,222.2 20.2,168.6 21.9,166.8 75.5,220.4 	"/>
	<polygon class="st0" points="76.7,218.3 24.2,165.3 25.9,163.6 78.4,216.5 	"/>
	<polygon class="st0" points="80.7,215 27.7,162 29.4,160.2 82.4,213.3 	"/>
	<polygon class="st0" points="8.4,60.6 35.5,9.8 37.7,10.9 10.6,61.7 	"/>
	<polygon class="st0" points="12.7,63.2 42,8 44.2,9.2 14.9,64.3 	"/>
	<polygon class="st0" points="16.6,66.6 48.9,5.4 51.1,6.6 18.8,67.7 	"/>
	<polygon class="st0" points="20.9,69.2 57.1,0.3 59.3,1.4 23.1,70.3 	"/>
	<polygon class="st0" points="25.4,71.9 61.2,2.9 63.3,4 27.6,73 	"/>
	<polygon class="st0" points="30.5,72.5 65.6,5.4 67.9,6.5 32.7,73.6 	"/>
	<polygon class="st0" points="5.2,55.6 30.3,9.2 32.5,10.3 7.5,56.8 	"/>
	<polygon class="st0" points="1.8,52.9 24.4,8.2 26.6,9.4 4,54.1 	"/>
	<polygon class="st0" points="7,30.5 21.8,3.9 24,5 9.3,31.6 	"/>
	<polygon class="st0" points="4.7,26.8 16.2,5.6 18.5,6.8 7,28 	"/>
	<polygon class="st0" points="214.4,95.2 144.7,62.8 145.7,60.5 215.4,92.9 	"/>
	<polygon class="st0" points="216.8,90.8 147.1,58.4 148.1,56.1 217.8,88.5 	"/>
	<polygon class="st0" points="220,86.7 149.3,54 150.3,51.7 221,84.4 	"/>
	<polygon class="st0" points="222.3,82.3 151.7,49.6 152.7,47.3 223.3,80 	"/>
	<polygon class="st0" points="224.8,77.6 154,45.4 155,43.2 225.9,75.4 	"/>
	<polygon class="st0" points="225.1,72.5 156.3,40.8 157.3,38.6 226.1,70.2 	"/>
	<polygon class="st0" points="226.6,67.8 158.9,36.4 159.9,34.1 227.6,65.6 	"/>
	<polygon class="st0" points="229.2,63.4 161.1,32 162.1,29.8 230.2,61.1 	"/>
	<polygon class="st0" points="231.5,59 163.6,27.6 164.6,25.4 232.5,56.8 	"/>
	<polygon class="st0" points="233.8,54.6 165.8,23.7 167.1,21 235,51.9 	"/>
	<polygon class="st0" points="236,50.3 168.4,19.3 169.7,16.5 237.2,47.5 	"/>
	<polygon class="st0" points="212.8,121.5 125.1,80.8 126.1,78.6 213.8,119.2 	"/>
	<polygon class="st0" points="222,120.1 128.2,76.8 129.2,74.5 223,117.9 	"/>
	<polygon class="st0" points="215.3,111.6 127.2,70.9 128.2,68.7 216.3,109.3 	"/>
	<polygon class="st0" points="211,104.1 131.5,67.4 132.5,65.1 212,101.9 	"/>
	<polygon class="st0" points="213.5,99.5 142.7,67.3 143.7,65 214.5,97.2 	"/>
	<polygon class="st0" points="212.9,126.9 121.7,84.6 122.7,82.3 213.9,124.7 	"/>
	<polygon class="st0" points="85.7,214.2 32.2,160.6 33.9,158.8 87.5,212.4 	"/>
	<polygon class="st0" points="88.7,210.3 36.2,157.3 37.9,155.6 90.4,208.5 	"/>
	<polygon class="st0" points="92.7,207 39.7,154 41.4,152.2 94.4,205.3 	"/>
</g>
<g id="Layer_3">
	
		<rect x="207.8" y="47.5" transform="matrix(0.696 0.7181 -0.7181 0.696 114.04 -132.4299)" class="st6" width="11.1" height="41.9"/>
	<rect x="84.8" y="16.9" transform="matrix(0.9085 -0.4178 0.4178 0.9085 -7.6035 40.9768)" class="st6" width="10" height="41.9"/>
	
		<rect x="63.8" y="73.9" transform="matrix(0.5549 -0.8319 0.8319 0.5549 -48.2916 99.4469)" class="st6" width="10" height="41.9"/>
	
		<rect x="127.8" y="107.9" transform="matrix(0.9438 -0.3304 0.3304 0.9438 -35.1187 51.117)" class="st6" width="10" height="41.9"/>
	
		<rect x="131.8" y="161.9" transform="matrix(3.597861e-02 -0.9994 0.9994 3.597861e-02 -50.8639 312.9835)" class="st6" width="10" height="41.9"/>
	<rect x="8.8" y="96.9" transform="matrix(0.9136 0.4067 -0.4067 0.9136 49.1215 4.5758)" class="st6" width="10" height="41.9"/>
	
		<rect x="23.8" y="209.9" transform="matrix(-0.5932 -0.805 0.805 -0.5932 -139.97 390.9867)" class="st6" width="10" height="41.9"/>
	
		<rect x="153.8" y="213.9" transform="matrix(-0.3854 -0.9228 0.9228 -0.3854 3.275 471.893)" class="st6" width="10" height="41.9"/>
	
		<rect x="160.7" y="2" transform="matrix(-0.8502 -0.5264 0.5264 -0.8502 295.0753 129.9524)" class="st6" width="10.6" height="41.9"/>
</g>
<g id="Layer_2">
	<polygon class="st7" points="102.9,123.1 91.6,138.2 110.5,140.4 	"/>
	<polygon class="st7" points="95.8,222.4 80.3,235.4 99.9,242.1 	"/>
	<polygon class="st7" points="227.4,227.8 208.9,219.8 211.6,240.3 	"/>
	<circle class="st8" cx="27.5" cy="151.5" r="4.5"/>
	<circle class="st8" cx="193.5" cy="134.5" r="4.5"/>
	
		<rect x="207.8" y="44.5" transform="matrix(0.696 0.7181 -0.7181 0.696 111.8857 -133.342)" class="st7" width="11.1" height="41.9"/>
	<rect x="87.8" y="17.9" transform="matrix(0.9085 -0.4178 0.4178 0.9085 -7.7469 42.3216)" class="st7" width="10" height="41.9"/>
	
		<rect x="60.8" y="73.9" transform="matrix(0.5549 -0.8319 0.8319 0.5549 -49.6268 96.9513)" class="st7" width="10" height="41.9"/>
	
		<rect x="124.8" y="105.9" transform="matrix(0.9438 -0.3304 0.3304 0.9438 -34.6263 50.0134)" class="st7" width="10" height="41.9"/>
	
		<rect x="133.8" y="159.9" transform="matrix(3.597861e-02 -0.9994 0.9994 3.597861e-02 -46.9372 313.0542)" class="st7" width="10" height="41.9"/>
	<rect x="10.8" y="95.9" transform="matrix(0.9136 0.4067 -0.4067 0.9136 48.8877 3.6761)" class="st7" width="10" height="41.9"/>
	
		<rect x="26.8" y="209.9" transform="matrix(-0.5932 -0.805 0.805 -0.5932 -135.1903 393.4018)" class="st7" width="10" height="41.9"/>
	
		<rect x="152.8" y="215.9" transform="matrix(-0.3854 -0.9228 0.9228 -0.3854 4.415070e-02 473.741)" class="st7" width="10" height="41.9"/>
	
		<rect x="163.7" y="2" transform="matrix(-0.8502 -0.5264 0.5264 -0.8502 300.626 131.5317)" class="st7" width="10.6" height="41.9"/>
</g>
</svg>
