<?xml version="1.0" encoding="utf-8"?>
<!-- Generator: Adobe Illustrator 22.1.0, SVG Export Plug-In . SVG Version: 6.00 Build 0)  -->
<svg version="1.1" id="Layer_1" xmlns="http://www.w3.org/2000/svg" xmlns:xlink="http://www.w3.org/1999/xlink" x="0px" y="0px"
	 viewBox="0 0 32 32" style="enable-background:new 0 0 32 32;" xml:space="preserve">
<style type="text/css">
	.st0{fill:#D2D2D2;}
	.st1{fill:#F0F0F0;}
	.st2{fill:#FFFFFF;}
	.st3{fill:#ABABAB;}
</style>
<g>
	<path class="st0" d="M133,82.3H93c-2.2,0-4-1.8-4-4V9c0-2.2,1.8-4,4-4h40c2.2,0,4,1.8,4,4v69.3C137,80.5,135.2,82.3,133,82.3z"/>
	<path class="st1" d="M136,87H90c-2.2,0-4-1.8-4-4V13.7c0-2.2,1.8-4,4-4h46c2.2,0,4,1.8,4,4V83C140,85.2,138.2,87,136,87z"/>
	<path class="st2" d="M139,94H87c-2.2,0-4-1.8-4-4V18c0-2.2,1.8-4,4-4h52c2.2,0,4,1.8,4,4v72C143,92.2,141.2,94,139,94z"/>
	<path class="st3" d="M137,42H89c-1.1,0-2-0.9-2-2v0c0-1.1,0.9-2,2-2h48c1.1,0,2,0.9,2,2v0C139,41.1,138.1,42,137,42z"/>
	<path class="st3" d="M137,62H89c-1.1,0-2-0.9-2-2v0c0-1.1,0.9-2,2-2h48c1.1,0,2,0.9,2,2v0C139,61.1,138.1,62,137,62z"/>
	<path class="st3" d="M137,72H89c-1.1,0-2-0.9-2-2l0,0c0-1.1,0.9-2,2-2h48c1.1,0,2,0.9,2,2l0,0C139,71.1,138.1,72,137,72z"/>
	<path class="st3" d="M137,52H89c-1.1,0-2-0.9-2-2v0c0-1.1,0.9-2,2-2h48c1.1,0,2,0.9,2,2v0C139,51.1,138.1,52,137,52z"/>
	<path class="st3" d="M105,32H89c-1.1,0-2-0.9-2-2v0c0-1.1,0.9-2,2-2h16c1.1,0,2,0.9,2,2v0C107,31.1,106.1,32,105,32z"/>
	<path class="st3" d="M119,82H89c-1.1,0-2-0.9-2-2l0,0c0-1.1,0.9-2,2-2h30c1.1,0,2,0.9,2,2l0,0C121,81.1,120.1,82,119,82z"/>
</g>
<g>
	<path class="st0" d="M23,27.8H8.6c-0.8,0-1.4-0.6-1.4-1.4v-25c0-0.8,0.6-1.4,1.4-1.4H23c0.8,0,1.4,0.6,1.4,1.4v25
		C24.4,27.2,23.8,27.8,23,27.8z"/>
	<path class="st1" d="M24.1,29.5H7.5c-0.8,0-1.4-0.6-1.4-1.4v-25c0-0.8,0.6-1.4,1.4-1.4h16.6c0.8,0,1.4,0.6,1.4,1.4v25
		C25.5,28.8,24.9,29.5,24.1,29.5z"/>
	<path class="st2" d="M25.2,32H6.4C5.6,32,5,31.4,5,30.6V4.6c0-0.8,0.6-1.4,1.4-1.4h18.7c0.8,0,1.4,0.6,1.4,1.4v25.9
		C26.6,31.4,26,32,25.2,32z"/>
	<path class="st3" d="M24.4,13.3H7.2c-0.4,0-0.7-0.3-0.7-0.7v0c0-0.4,0.3-0.7,0.7-0.7h17.3c0.4,0,0.7,0.3,0.7,0.7v0
		C25.2,13,24.8,13.3,24.4,13.3z"/>
	<path class="st3" d="M24.4,20.5H7.2c-0.4,0-0.7-0.3-0.7-0.7l0,0c0-0.4,0.3-0.7,0.7-0.7h17.3c0.4,0,0.7,0.3,0.7,0.7l0,0
		C25.2,20.2,24.8,20.5,24.4,20.5z"/>
	<path class="st3" d="M24.4,24.1H7.2c-0.4,0-0.7-0.3-0.7-0.7v0c0-0.4,0.3-0.7,0.7-0.7h17.3c0.4,0,0.7,0.3,0.7,0.7v0
		C25.2,23.8,24.8,24.1,24.4,24.1z"/>
	<path class="st3" d="M24.4,16.9H7.2c-0.4,0-0.7-0.3-0.7-0.7l0,0c0-0.4,0.3-0.7,0.7-0.7h17.3c0.4,0,0.7,0.3,0.7,0.7l0,0
		C25.2,16.6,24.8,16.9,24.4,16.9z"/>
	<path class="st3" d="M12.9,9.7H7.2C6.8,9.7,6.4,9.3,6.4,9v0c0-0.4,0.3-0.7,0.7-0.7h5.8c0.4,0,0.7,0.3,0.7,0.7v0
		C13.6,9.3,13.3,9.7,12.9,9.7z"/>
	<path class="st3" d="M18,27.7H7.2c-0.4,0-0.7-0.3-0.7-0.7v0c0-0.4,0.3-0.7,0.7-0.7H18c0.4,0,0.7,0.3,0.7,0.7v0
		C18.7,27.4,18.4,27.7,18,27.7z"/>
</g>
</svg>
