<?xml version="1.0" encoding="utf-8"?>
<!-- Generator: Adobe Illustrator 22.1.0, SVG Export Plug-In . SVG Version: 6.00 Build 0)  -->
<svg version="1.1" id="Layer_1" xmlns="http://www.w3.org/2000/svg" xmlns:xlink="http://www.w3.org/1999/xlink" x="0px" y="0px"
	 viewBox="0 0 250 250" style="enable-background:new 0 0 250 250;" xml:space="preserve">
<style type="text/css">
	.st0{fill:#EBEBEB;}
	.st1{fill:#4062BB;}
	.st2{fill:none;stroke:#F45B69;stroke-miterlimit:10;}
	.st3{fill:#2EF2B2;}
	.st4{fill:none;stroke:#2EF2B2;stroke-miterlimit:10;}
	.st5{fill:none;stroke:#52489C;stroke-miterlimit:10;}
	.st6{fill:#BA1200;}
	.st7{opacity:0.5;}
	.st8{opacity:0.3;enable-background:new    ;}
	.st9{opacity:0.5;enable-background:new    ;}
</style>
<g id="bg">
	<g>
		<rect class="st0" width="250" height="250"/>
	</g>
</g>
<g id="Layer_1_1_">
	<g>
		<g>
			<g>
				<path class="st1" d="M6.7,14.3c-0.5-0.2-0.6-0.6-0.2-1L14,6c0.4-0.4,0.8-0.3,1,0.3l2.5,10.3c0.1,0.5-0.2,0.8-0.7,0.7L6.7,14.3z"
					/>
			</g>
			<g>
				<path class="st1" d="M14.4,6.3l2.4,9.5c0.1,0.5-0.2,0.8-0.7,0.7l-8.5-2.4c-0.5-0.2-0.6-0.6-0.2-1L14.4,6.3 M15.2,5.4
					c-0.1-0.5-0.6-0.7-1-0.3l-8.9,8.5c-0.4,0.4-0.3,0.8,0.2,1L17.5,18c0.5,0.2,0.9-0.2,0.7-0.7L15.2,5.4z"/>
			</g>
		</g>
	</g>
	<g>
		<path class="st2" d="M58.8,26c-5.6,2.5-12.2,0-14.7-5.6c-2-4.5,0-9.7,4.5-11.7c3.6-1.6,7.8,0,9.4,3.6c1.3,2.9,0,6.2-2.9,7.5
			c-2.3,1-5,0-6-2.3c-0.8-1.8,0-4,1.8-4.8c1.5-0.7,3.2,0,3.8,1.5c0.5,1.2,0,2.6-1.2,3.1c-0.9,0.4-2,0-2.5-0.9c-0.3-0.8,0-1.6,0.8-2"
			/>
	</g>
	<g>
		<circle class="st3" cx="39.5" cy="50.5" r="5"/>
		<circle class="st4" cx="39.5" cy="50.5" r="5"/>
	</g>
	<path class="st5" d="M12.3,37.1c0.2-1.1,0.6-2.5,1.7-3.1c1.6-0.9,3.2,0.6,4.6-0.3c1.4-0.9,0.5-3.2,1.9-4.2c1.5-1,3.2,0.7,4.6-0.3
		S25.6,26,27,25c0.9-0.6,2.1-0.4,2.9-0.1"/>
	<g>
		<g>
			<g>
				<path class="st1" d="M86.7,17c-0.3-0.5-0.1-0.9,0.4-0.9l10.6-0.9c0.5,0,0.8,0.3,0.6,0.8l-4.5,9.6c-0.2,0.5-0.7,0.5-1,0.1
					L86.7,17z"/>
			</g>
			<g>
				<path class="st1" d="M97.8,15.7l-4.2,8.9c-0.2,0.5-0.7,0.5-1,0.1l-5.1-7.3c-0.3-0.5-0.1-0.9,0.4-0.9L97.8,15.7 M99.1,15.5
					c0.2-0.5,0-0.9-0.6-0.8l-12.3,1c-0.5,0-0.7,0.5-0.4,0.9l7.1,10.1c0.3,0.5,0.8,0.4,1-0.1L99.1,15.5z"/>
			</g>
		</g>
	</g>
	<g>
		<g>
			<g>
				<path class="st1" d="M196.1,32c0-0.5,0.4-0.8,0.9-0.5l9.2,5.3c0.5,0.3,0.5,0.7,0,1l-9.2,5.3c-0.5,0.3-0.9,0.1-0.9-0.5V32z"/>
			</g>
			<g>
				<path class="st1" d="M196.6,31.9l8.5,4.9c0.5,0.3,0.5,0.7,0,1l-7.7,4.4c-0.5,0.3-0.9,0-0.9-0.5V31.9 M196.5,30.6
					c-0.5-0.3-0.9,0-0.9,0.5v12.3c0,0.5,0.4,0.8,0.9,0.5l10.7-6.2c0.5-0.3,0.5-0.7,0-1L196.5,30.6z"/>
			</g>
		</g>
	</g>
	<g>
		<g>
			<g>
				<path class="st1" d="M33.7,94c-0.3-0.5-0.1-0.9,0.4-0.9l10.6-0.9c0.5,0,0.8,0.3,0.6,0.8l-4.5,9.6c-0.2,0.5-0.7,0.5-1,0.1
					L33.7,94z"/>
			</g>
			<g>
				<path class="st1" d="M44.8,92.7l-4.2,8.9c-0.2,0.5-0.7,0.5-1,0.1l-5.1-7.3c-0.3-0.5-0.1-0.9,0.4-0.9L44.8,92.7 M46.1,92.5
					c0.2-0.5,0-0.9-0.6-0.8l-12.3,1c-0.5,0-0.7,0.5-0.4,0.9l7.1,10.1c0.3,0.5,0.8,0.4,1-0.1L46.1,92.5z"/>
			</g>
		</g>
	</g>
	<g>
		<g>
			<g>
				<path class="st1" d="M101.5,78.5c-0.2-0.5,0.1-0.9,0.7-0.8l10.3,1.8c0.5,0.1,0.7,0.5,0.3,0.9l-6.8,8.2c-0.4,0.4-0.8,0.3-1-0.2
					L101.5,78.5z"/>
			</g>
			<g>
				<path class="st1" d="M101.9,78.3l9.7,1.7c0.5,0.1,0.7,0.5,0.3,0.9l-5.7,6.8c-0.4,0.4-0.8,0.3-1-0.2L101.9,78.3 M101.4,77.2
					c-0.5-0.1-0.8,0.2-0.6,0.8l4.2,11.6c0.2,0.5,0.6,0.6,1,0.2l7.9-9.4c0.4-0.4,0.2-0.8-0.3-0.9L101.4,77.2z"/>
			</g>
		</g>
	</g>
	<g>
		<g>
			<g>
				<path class="st1" d="M168.7,96c-0.3-0.5-0.1-0.9,0.4-0.9l10.6-0.9c0.5,0,0.8,0.3,0.6,0.8l-4.5,9.6c-0.2,0.5-0.7,0.5-1,0.1
					L168.7,96z"/>
			</g>
			<g>
				<path class="st1" d="M179.8,94.7l-4.2,8.9c-0.2,0.5-0.7,0.5-1,0.1l-5.1-7.3c-0.3-0.5-0.1-0.9,0.4-0.9L179.8,94.7 M181.1,94.5
					c0.2-0.5,0-0.9-0.6-0.8l-12.3,1c-0.5,0-0.7,0.5-0.4,0.9l7.1,10.1c0.3,0.5,0.8,0.4,1-0.1L181.1,94.5z"/>
			</g>
		</g>
	</g>
	<g>
		<g>
			<g>
				<path class="st1" d="M51.7,160c-0.3-0.5-0.1-0.9,0.4-0.9l10.6-0.9c0.5,0,0.8,0.3,0.6,0.8l-4.5,9.6c-0.2,0.5-0.7,0.5-1,0.1
					L51.7,160z"/>
			</g>
			<g>
				<path class="st1" d="M62.8,158.7l-4.2,8.9c-0.2,0.5-0.7,0.5-1,0.1l-5.1-7.3c-0.3-0.5-0.1-0.9,0.4-0.9L62.8,158.7 M64.1,158.5
					c0.2-0.5,0-0.9-0.6-0.8l-12.3,1c-0.5,0-0.7,0.5-0.4,0.9l7.1,10.1c0.3,0.5,0.8,0.4,1-0.1L64.1,158.5z"/>
			</g>
		</g>
	</g>
	<g>
		<g>
			<g>
				<path class="st1" d="M109.7,195c-0.3-0.5-0.1-0.9,0.4-0.9l10.6-0.9c0.5,0,0.8,0.3,0.6,0.8l-4.5,9.6c-0.2,0.5-0.7,0.5-1,0.1
					L109.7,195z"/>
			</g>
			<g>
				<path class="st1" d="M120.8,193.7l-4.2,8.9c-0.2,0.5-0.7,0.5-1,0.1l-5.1-7.3c-0.3-0.5-0.1-0.9,0.4-0.9L120.8,193.7 M122.1,193.5
					c0.2-0.5,0-0.9-0.6-0.8l-12.3,1c-0.5,0-0.7,0.5-0.4,0.9l7.1,10.1c0.3,0.5,0.8,0.4,1-0.1L122.1,193.5z"/>
			</g>
		</g>
	</g>
	<g>
		<g>
			<g>
				<path class="st1" d="M122.7,132c-0.3-0.5-0.1-0.9,0.4-0.9l10.6-0.9c0.5,0,0.8,0.3,0.6,0.8l-4.5,9.6c-0.2,0.5-0.7,0.5-1,0.1
					L122.7,132z"/>
			</g>
			<g>
				<path class="st1" d="M133.8,130.7l-4.2,8.9c-0.2,0.5-0.7,0.5-1,0.1l-5.1-7.3c-0.3-0.5-0.1-0.9,0.4-0.9L133.8,130.7 M135.1,130.5
					c0.2-0.5,0-0.9-0.6-0.8l-12.3,1c-0.5,0-0.7,0.5-0.4,0.9l7.1,10.1c0.3,0.5,0.8,0.4,1-0.1L135.1,130.5z"/>
			</g>
		</g>
	</g>
	<g>
		<g>
			<g>
				<path class="st1" d="M231.3,216.7c-0.1-0.5,0.3-0.8,0.8-0.6l9.9,3.8c0.5,0.2,0.6,0.6,0.2,1l-8.2,6.6c-0.4,0.3-0.9,0.2-0.9-0.4
					L231.3,216.7z"/>
			</g>
			<g>
				<path class="st1" d="M231.8,216.4l9.2,3.5c0.5,0.2,0.6,0.6,0.2,1l-6.8,5.5c-0.4,0.3-0.8,0.2-0.9-0.4L231.8,216.4 M231.4,215.3
					c-0.5-0.2-0.9,0.1-0.8,0.6l1.9,12.1c0.1,0.5,0.5,0.7,0.9,0.4l9.5-7.7c0.4-0.3,0.4-0.8-0.2-1L231.4,215.3z"/>
			</g>
		</g>
	</g>
	<g>
		<g>
			<g>
				<path class="st1" d="M183.7,151c-0.3-0.5-0.1-0.9,0.4-0.9l10.6-0.9c0.5,0,0.8,0.3,0.6,0.8l-4.5,9.6c-0.2,0.5-0.7,0.5-1,0.1
					L183.7,151z"/>
			</g>
			<g>
				<path class="st1" d="M194.8,149.7l-4.2,8.9c-0.2,0.5-0.7,0.5-1,0.1l-5.1-7.3c-0.3-0.5-0.1-0.9,0.4-0.9L194.8,149.7 M196.1,149.5
					c0.2-0.5,0-0.9-0.6-0.8l-12.3,1c-0.5,0-0.7,0.5-0.4,0.9l7.1,10.1c0.3,0.5,0.8,0.4,1-0.1L196.1,149.5z"/>
			</g>
		</g>
	</g>
	<g>
		<g>
			<g>
				<path class="st1" d="M131.3,49.8c-0.5-0.3-0.5-0.7,0-1l9.2-5.3c0.5-0.3,0.9-0.1,0.9,0.5v10.6c0,0.5-0.4,0.8-0.9,0.5L131.3,49.8z
					"/>
			</g>
			<g>
				<path class="st1" d="M140.8,43.9v9.8c0,0.5-0.4,0.8-0.9,0.5l-7.7-4.4c-0.5-0.3-0.5-0.7,0-1L140.8,43.9 M141.8,43.1
					c0-0.5-0.4-0.8-0.9-0.5l-10.7,6.2c-0.5,0.3-0.5,0.7,0,1l10.7,6.2c0.5,0.3,0.9,0.1,0.9-0.5V43.1z"/>
			</g>
		</g>
	</g>
	<g>
		<g>
			<g>
				<path class="st1" d="M7.7,229.3c-0.5-0.2-0.6-0.6-0.2-1L15,221c0.4-0.4,0.8-0.3,1,0.3l2.5,10.3c0.1,0.5-0.2,0.8-0.7,0.7
					L7.7,229.3z"/>
			</g>
			<g>
				<path class="st1" d="M15.4,221.3l2.4,9.5c0.1,0.5-0.2,0.8-0.7,0.7l-8.5-2.4c-0.5-0.2-0.6-0.6-0.2-1L15.4,221.3 M16.2,220.4
					c-0.1-0.5-0.6-0.7-1-0.3l-8.9,8.5c-0.4,0.4-0.3,0.8,0.2,1l11.9,3.4c0.5,0.2,0.9-0.2,0.7-0.7L16.2,220.4z"/>
			</g>
		</g>
	</g>
	<g>
		<g>
			<g>
				<path class="st1" d="M66.4,214.1c-0.4-0.4-0.3-0.8,0.3-1l10.2-2.7c0.5-0.1,0.9,0.2,0.7,0.7l-2.7,10.2c-0.1,0.5-0.6,0.6-1,0.3
					L66.4,214.1z"/>
			</g>
			<g>
				<path class="st1" d="M77.1,210.9l-2.5,9.5c-0.1,0.5-0.6,0.6-1,0.3l-6.3-6.3c-0.4-0.4-0.3-0.8,0.3-1L77.1,210.9 M78.3,210.5
					c0.1-0.5-0.2-0.8-0.7-0.7l-11.9,3.2c-0.5,0.1-0.6,0.6-0.3,1l8.7,8.7c0.4,0.4,0.8,0.3,1-0.3L78.3,210.5z"/>
			</g>
		</g>
	</g>
	<g>
		<g>
			<g>
				<path class="st1" d="M167.1,224c0-0.6,0.4-0.8,0.9-0.5l9.2,5.3c0.5,0.3,0.5,0.7,0,1l-9.2,5.3c-0.5,0.3-0.9,0.1-0.9-0.5V224z"/>
			</g>
			<g>
				<path class="st1" d="M167.6,223.9l8.5,4.9c0.5,0.3,0.5,0.7,0,1l-7.7,4.4c-0.5,0.3-0.9,0-0.9-0.5V223.9 M167.5,222.6
					c-0.5-0.3-0.9,0-0.9,0.5v12.3c0,0.6,0.4,0.8,0.9,0.5l10.7-6.2c0.5-0.3,0.5-0.7,0-1L167.5,222.6z"/>
			</g>
		</g>
	</g>
	<path class="st5" d="M23.6,170.7c1.1-0.2,2.5-0.2,3.5,0.6c1.4,1.2,0.4,3.2,1.8,4.2s3.1-0.6,4.6,0.4c1.4,1,0.3,3.2,1.8,4.2
		c1.4,1,3.2-0.6,4.6,0.4c0.9,0.6,1,1.8,1.1,2.7"/>
	<path class="st5" d="M182,203.5c0.5-1,1.3-2.2,2.5-2.5c1.8-0.4,2.9,1.5,4.5,1s1.3-2.9,3-3.5s2.9,1.6,4.5,1s1.4-2.9,3-3.5
		c1-0.3,2.1,0.2,2.9,0.7"/>
	<path class="st5" d="M215.3,108.1c0.2-1.1,0.6-2.5,1.7-3.1c1.6-0.9,3.2,0.6,4.6-0.3c1.4-0.9,0.5-3.2,1.9-4.2c1.5-1,3.2,0.7,4.6-0.3
		c1.4-1,0.5-3.2,1.9-4.2c0.9-0.6,2.1-0.4,2.9-0.1"/>
	<path class="st5" d="M118.3,94.1c0.2-1.1,0.6-2.5,1.7-3.1c1.6-0.9,3.2,0.6,4.6-0.3s0.5-3.2,1.9-4.2c1.5-1,3.2,0.7,4.6-0.3
		c1.4-1,0.5-3.2,1.9-4.2c0.9-0.6,2.1-0.4,2.9-0.1"/>
	<path class="st5" d="M108.1,180.8c0.2-1.1,0.7-2.4,1.8-3c1.6-0.8,3.2,0.7,4.6-0.1c1.5-0.9,0.6-3.2,2.1-4.1c1.5-0.9,3.1,0.8,4.6-0.1
		c1.4-0.9,0.6-3.2,2.1-4.1c0.9-0.6,2.1-0.3,2.9,0"/>
	<path class="st5" d="M73.4,247.4c0-1.1,0.2-2.5,1.2-3.3c1.4-1.1,3.3,0.1,4.5-1c1.3-1.2,0-3.2,1.2-4.4c1.3-1.2,3.3,0.2,4.5-1
		s0-3.2,1.2-4.4c0.8-0.7,2-0.7,2.9-0.6"/>
	<path class="st5" d="M140.3,18.1c0.2-1.1,0.6-2.5,1.7-3.1c1.6-0.9,3.2,0.6,4.6-0.3c1.4-0.9,0.5-3.2,1.9-4.2c1.5-1,3.2,0.7,4.6-0.3
		c1.4-1,0.5-3.2,1.9-4.2c0.9-0.6,2.1-0.4,2.9-0.1"/>
	<path class="st5" d="M211.5,140.5c1-0.4,2.4-0.7,3.5-0.1c1.6,0.9,1.1,3.1,2.5,3.8c1.5,0.8,3-1.2,4.6-0.4s1,3.1,2.5,3.8
		s3-1.1,4.6-0.4c1,0.4,1.4,1.6,1.6,2.5"/>
	<g>
		<circle class="st3" cx="24.5" cy="115.5" r="5"/>
		<circle class="st4" cx="24.5" cy="115.5" r="5"/>
	</g>
	<g>
		<circle class="st3" cx="218.5" cy="84.5" r="5"/>
		<circle class="st4" cx="218.5" cy="84.5" r="5"/>
	</g>
	<g>
		<circle class="st3" cx="154.5" cy="54.5" r="5"/>
		<circle class="st4" cx="154.5" cy="54.5" r="5"/>
	</g>
	<g>
		<circle class="st3" cx="149.5" cy="199.5" r="5"/>
		<circle class="st4" cx="149.5" cy="199.5" r="5"/>
	</g>
	<g>
		<circle class="st3" cx="44.5" cy="229.5" r="5"/>
		<circle class="st4" cx="44.5" cy="229.5" r="5"/>
	</g>
	<g>
		<circle class="st3" cx="221.5" cy="229.5" r="5"/>
		<circle class="st4" cx="221.5" cy="229.5" r="5"/>
	</g>
	<g>
		<circle class="st3" cx="228.5" cy="159.5" r="5"/>
		<circle class="st4" cx="228.5" cy="159.5" r="5"/>
	</g>
	<g>
		<circle class="st3" cx="83.5" cy="115.5" r="5"/>
		<circle class="st4" cx="83.5" cy="115.5" r="5"/>
	</g>
	<g>
		<circle class="st3" cx="185.5" cy="12.5" r="5"/>
		<circle class="st4" cx="185.5" cy="12.5" r="5"/>
	</g>
	<g>
		<path class="st2" d="M173.6,129.2c-0.6-6.1,3.8-11.6,9.9-12.2c4.9-0.5,9.2,3,9.8,7.9c0.4,3.9-2.4,7.4-6.3,7.8
			c-3.1,0.3-5.9-1.9-6.2-5.1c-0.3-2.5,1.6-4.7,4.1-5c2-0.2,3.8,1.2,4,3.2c0.2,1.6-1,3-2.6,3.2c-1.3,0.1-2.4-0.8-2.6-2.1
			c-0.1-1,0.6-1.9,1.7-2c0.8-0.1,1.6,0.5,1.6,1.3"/>
	</g>
	<g>
		<path class="st2" d="M83.3,182c-5.7-2.3-8.5-8.7-6.2-14.4c1.8-4.6,7-6.8,11.5-5c3.6,1.5,5.4,5.6,4,9.2c-1.2,2.9-4.5,4.3-7.4,3.2
			c-2.3-0.9-3.5-3.6-2.5-5.9c0.7-1.9,2.9-2.8,4.7-2c1.5,0.6,2.2,2.3,1.6,3.8c-0.5,1.2-1.8,1.8-3,1.3c-1-0.4-1.4-1.5-1-2.4
			c0.3-0.8,1.2-1.1,1.9-0.8"/>
	</g>
	<g>
		<path class="st2" d="M233.8,63c-5.6,2.5-12.2,0-14.7-5.6c-2-4.5,0-9.7,4.5-11.7c3.6-1.6,7.8,0,9.4,3.6c1.3,2.9,0,6.2-2.9,7.5
			c-2.3,1-5,0-6-2.3c-0.8-1.8,0-4,1.8-4.8c1.5-0.7,3.2,0,3.8,1.5c0.5,1.2,0,2.6-1.2,3.1c-0.9,0.4-2,0-2.5-0.9c-0.3-0.8,0-1.6,0.8-2"
			/>
	</g>
	<g>
		<path class="st2" d="M119.8,47c-5.6,2.5-12.2,0-14.7-5.6c-2-4.5,0-9.7,4.5-11.7c3.6-1.6,7.8,0,9.4,3.6c1.3,2.9,0,6.2-2.9,7.5
			c-2.3,1-5,0-6-2.3c-0.8-1.8,0-4,1.8-4.8c1.5-0.7,3.2,0,3.8,1.5c0.5,1.2,0,2.6-1.2,3.1c-0.9,0.4-2,0-2.5-0.9c-0.3-0.8,0-1.6,0.8-2"
			/>
	</g>
	<g>
		<path class="st2" d="M62.4,129.9c-1.1,6-6.8,10.1-12.9,9c-4.8-0.8-8.1-5.5-7.2-10.3c0.7-3.9,4.4-6.5,8.2-5.8
			c3.1,0.5,5.2,3.5,4.6,6.6c-0.4,2.5-2.8,4.1-5.3,3.7c-2-0.3-3.3-2.2-3-4.2c0.3-1.6,1.8-2.6,3.4-2.4c1.3,0.2,2.1,1.4,1.9,2.7
			c-0.2,1-1.1,1.7-2.2,1.5c-0.8-0.1-1.4-0.9-1.2-1.7"/>
	</g>
	<g>
		<path class="st2" d="M138.8,240c-5.6,2.5-12.2,0-14.7-5.6c-2-4.5,0-9.7,4.5-11.7c3.6-1.6,7.8,0,9.4,3.6c1.3,2.9,0,6.2-2.9,7.5
			c-2.3,1-5,0-6-2.3c-0.8-1.8,0-4,1.8-4.8c1.5-0.7,3.2,0,3.8,1.5c0.5,1.2,0,2.6-1.2,3.1c-0.9,0.4-2,0-2.5-0.9c-0.3-0.8,0-1.6,0.8-2"
			/>
	</g>
	<g>
		<path class="st2" d="M168.4,167.2c-2.8,5.5-9.4,7.7-14.9,4.9c-4.4-2.2-6.2-7.5-3.9-11.9c1.8-3.5,6-4.9,9.5-3.2
			c2.8,1.4,3.9,4.8,2.5,7.6c-1.1,2.2-3.9,3.2-6.1,2c-1.8-0.9-2.5-3.1-1.6-4.9c0.7-1.4,2.5-2,3.9-1.3c1.1,0.6,1.6,2,1,3.1
			c-0.5,0.9-1.6,1.3-2.5,0.8c-0.7-0.4-1-1.3-0.7-2"/>
	</g>
	<g>
		<path class="st2" d="M124.9,111.7c0.2,6.1-4.7,11.2-10.8,11.4c-4.9,0.1-9-3.8-9.1-8.7c-0.1-3.9,3-7.2,6.9-7.3
			c3.1-0.1,5.8,2.4,5.8,5.5c0.1,2.5-1.9,4.6-4.4,4.7c-2,0.1-3.7-1.5-3.7-3.5c0-1.6,1.2-2.9,2.8-3c1.3,0,2.4,1,2.4,2.3
			c0,1-0.8,1.9-1.8,1.9c-0.8,0-1.5-0.6-1.5-1.5"/>
	</g>
	<g>
		<path class="st2" d="M4,146.9c4.5-4.1,11.6-3.8,15.7,0.8c3.3,3.6,3,9.3-0.6,12.6c-2.9,2.6-7.4,2.4-10-0.5c-2.1-2.3-1.9-5.9,0.4-8
			c1.9-1.7,4.7-1.5,6.4,0.3c1.3,1.5,1.2,3.8-0.3,5.1c-1.2,1.1-3,1-4.1-0.2c-0.9-1-0.8-2.4,0.2-3.3c0.8-0.7,1.9-0.6,2.6,0.1
			c0.6,0.6,0.5,1.6-0.1,2.1"/>
	</g>
	<g>
		<g>
			<g>
				<path class="st1" d="M57.5,58c-0.5-0.2-0.6-0.6-0.2-1l8-7c0.4-0.4,0.8-0.2,0.9,0.3l2,10.4c0.1,0.5-0.2,0.8-0.8,0.7L57.5,58z"/>
			</g>
			<g>
				<path class="st1" d="M65.7,50.4l1.9,9.6c0.1,0.5-0.2,0.8-0.8,0.7l-8.4-2.9c-0.5-0.2-0.6-0.6-0.2-1L65.7,50.4 M66.6,49.5
					c-0.1-0.5-0.5-0.7-0.9-0.3l-9.3,8.1c-0.4,0.4-0.3,0.8,0.2,1l11.6,4c0.5,0.2,0.9-0.1,0.8-0.7L66.6,49.5z"/>
			</g>
		</g>
	</g>
	<path class="st5" d="M175.2,49.5c0.9,0.7,1.8,1.7,1.8,3c0,1.8-2.1,2.5-2,4.1c0.1,1.7,2.5,2,2.7,3.7c0.1,1.8-2.2,2.4-2,4.1
		c0.2,1.7,2.5,2,2.7,3.7c0.1,1.1-0.7,2-1.4,2.6"/>
	<g>
		<path class="st6" d="M15,69c0-0.6,0.4-1,1-1h5c0.5,0,1,0.4,1,1v5c0,0.6-0.5,1-1,1h-5c-0.6,0-1-0.4-1-1V69z"/>
	</g>
	<g>
		<path class="st6" d="M231.5,123c-0.5-0.3-0.6-0.9-0.3-1.4l2.8-4.1c0.3-0.5,0.9-0.6,1.4-0.3l4.1,2.8c0.5,0.3,0.6,0.9,0.3,1.4
			l-2.8,4.1c-0.3,0.5-0.9,0.6-1.4,0.3L231.5,123z"/>
	</g>
	<g>
		<path class="st6" d="M142.2,91.1c-0.3-0.5-0.1-1.1,0.4-1.4l4.3-2.5c0.5-0.3,1.1-0.1,1.4,0.4l2.5,4.3c0.3,0.5,0.1,1.1-0.4,1.4
			l-4.3,2.5c-0.5,0.3-1.1,0.1-1.4-0.4L142.2,91.1z"/>
	</g>
	<g>
		<path class="st6" d="M89.4,143.5c-0.5-0.1-0.9-0.6-0.8-1.2l0.9-4.9c0.1-0.5,0.6-0.9,1.2-0.8l4.9,0.9c0.5,0.1,0.9,0.6,0.8,1.2
			l-0.9,4.9c-0.1,0.5-0.6,0.9-1.2,0.8L89.4,143.5z"/>
	</g>
	<g>
		<path class="st6" d="M177,186c-0.5-0.2-0.8-0.8-0.6-1.3l1.6-4.7c0.2-0.5,0.8-0.8,1.3-0.6l4.7,1.6c0.5,0.2,0.8,0.8,0.6,1.3L183,187
			c-0.2,0.5-0.8,0.8-1.3,0.6L177,186z"/>
	</g>
	<g>
		<path class="st6" d="M40.4,201.8c-0.4-0.3-0.5-1-0.2-1.4l3-4c0.3-0.4,1-0.5,1.4-0.2l4,3c0.4,0.3,0.5,1,0.2,1.4l-3,4
			c-0.3,0.4-1,0.5-1.4,0.2L40.4,201.8z"/>
	</g>
	<g>
		<path class="st6" d="M158.3,29.4c-0.5-0.1-0.9-0.7-0.8-1.2l1.1-4.9c0.1-0.5,0.7-0.9,1.2-0.8l4.9,1.1c0.5,0.1,0.9,0.7,0.8,1.2
			l-1.1,4.9c-0.1,0.5-0.7,0.9-1.2,0.8L158.3,29.4z"/>
	</g>
	<g>
		<path class="st6" d="M59.2,95.4c-0.3-0.5-0.2-1.1,0.2-1.4l4.1-2.9c0.5-0.3,1.1-0.2,1.4,0.2l2.9,4.1c0.3,0.5,0.2,1.1-0.2,1.4
			l-4.1,2.9c-0.5,0.3-1.1,0.2-1.4-0.2L59.2,95.4z"/>
	</g>
	<g>
		<path class="st6" d="M194,220c0-0.6,0.4-1,1-1h5c0.6,0,1,0.4,1,1v5c0,0.6-0.4,1-1,1h-5c-0.6,0-1-0.4-1-1V220z"/>
	</g>
	<g>
		<path class="st6" d="M220,19c0-0.5,0.4-1,1-1h5c0.6,0,1,0.5,1,1v5c0,0.5-0.4,1-1,1h-5c-0.6,0-1-0.5-1-1V19z"/>
	</g>
	<g>
		<path class="st6" d="M5.6,189.3c-0.5-0.3-0.6-0.9-0.4-1.4l2.5-4.3c0.3-0.5,0.9-0.6,1.4-0.4l4.3,2.5c0.5,0.3,0.6,0.9,0.4,1.4
			l-2.5,4.3c-0.3,0.5-0.9,0.6-1.4,0.4L5.6,189.3z"/>
	</g>
	<g>
		<path class="st6" d="M66.3,31.4c-0.5-0.1-0.9-0.7-0.8-1.2l1.1-4.9c0.1-0.5,0.7-0.9,1.2-0.8l4.9,1.1c0.5,0.1,0.9,0.7,0.8,1.2
			l-1.1,4.9c-0.1,0.5-0.7,0.9-1.2,0.8L66.3,31.4z"/>
	</g>
	<g>
		<path class="st2" d="M236.3,174.5c5,3.5,6.3,10.4,2.7,15.5c-2.8,4-8.4,5-12.4,2.2c-3.2-2.3-4-6.7-1.7-9.9c1.8-2.6,5.3-3.2,7.9-1.4
			c2.1,1.4,2.6,4.3,1.1,6.3c-1.2,1.6-3.4,2-5.1,0.9c-1.3-0.9-1.6-2.7-0.7-4.1c0.7-1.1,2.2-1.3,3.2-0.6c0.8,0.6,1,1.8,0.5,2.6
			c-0.5,0.7-1.4,0.8-2.1,0.4"/>
	</g>
	<g>
		<path class="st6" d="M190,72c0-0.6,0.4-1,1-1h5c0.6,0,1,0.4,1,1v5c0,0.6-0.4,1-1,1h-5c-0.6,0-1-0.4-1-1V72z"/>
	</g>
	<path class="st5" d="M8.2,104.2c-0.1-1.1-0.1-2.5,0.9-3.4c1.3-1.3,3.3-0.2,4.3-1.4c1.1-1.3-0.4-3.2,0.8-4.5
		c1.1-1.3,3.3-0.1,4.3-1.4c1.1-1.3-0.3-3.2,0.8-4.5c0.7-0.8,1.9-0.9,2.8-0.9"/>
	<g>
		<circle class="st3" cx="92.5" cy="56.5" r="5"/>
		<circle class="st4" cx="92.5" cy="56.5" r="5"/>
	</g>
	<g>
		<path class="st6" d="M97.4,220.8c-0.4-0.3-0.5-1-0.2-1.4l3-4c0.3-0.4,1-0.5,1.4-0.2l4,3c0.4,0.3,0.5,1,0.2,1.4l-3,4
			c-0.3,0.4-1,0.5-1.4,0.2L97.4,220.8z"/>
	</g>
	<g>
		<path class="st2" d="M86.8,88c-5.6,2.5-12.2,0-14.7-5.6c-2-4.5,0-9.7,4.5-11.7c3.6-1.6,7.8,0,9.4,3.6c1.3,2.9,0,6.2-2.9,7.5
			c-2.3,1-5,0-6-2.3c-0.8-1.8,0-4,1.8-4.8c1.5-0.7,3.2,0,3.8,1.5c0.5,1.2,0,2.6-1.2,3.1c-0.9,0.4-2,0-2.5-0.9c-0.3-0.8,0-1.6,0.8-2"
			/>
	</g>
	<g>
		<circle class="st3" cx="154.5" cy="122.5" r="5"/>
		<circle class="st4" cx="154.5" cy="122.5" r="5"/>
	</g>
</g>
<g id="Layer_2_1_">
	<g>
		<g class="st7">
			<g>
				<path class="st1" d="M7.8,15.4c-0.5-0.2-0.6-0.6-0.2-1l7.6-7.3c0.4-0.4,0.8-0.3,1,0.3l2.5,10.3c0.1,0.5-0.2,0.8-0.7,0.7
					L7.8,15.4z"/>
			</g>
			<g>
				<path class="st1" d="M15.5,7.4l2.4,9.5c0.1,0.5-0.2,0.8-0.7,0.7l-8.5-2.4c-0.5-0.2-0.6-0.6-0.2-1L15.5,7.4 M16.3,6.5
					c-0.1-0.5-0.6-0.7-1-0.3l-8.9,8.5c-0.4,0.4-0.3,0.8,0.2,1l11.9,3.4c0.5,0.2,0.9-0.2,0.7-0.7L16.3,6.5z"/>
			</g>
		</g>
		<g class="st8">
			<circle class="st3" cx="40.6" cy="51.6" r="5"/>
			<circle class="st4" cx="40.6" cy="51.6" r="5"/>
		</g>
		<g class="st7">
			<g>
				<path class="st1" d="M87.8,18.1c-0.3-0.5-0.1-0.9,0.4-0.9l10.6-0.9c0.5,0,0.8,0.3,0.6,0.8l-4.5,9.6c-0.2,0.5-0.7,0.5-1,0.1
					L87.8,18.1z"/>
			</g>
			<g>
				<path class="st1" d="M98.9,16.8l-4.2,8.9c-0.2,0.5-0.7,0.5-1,0.1l-5.1-7.3c-0.3-0.5-0.1-0.9,0.4-0.9L98.9,16.8 M100.2,16.6
					c0.2-0.5,0-0.9-0.6-0.8l-12.3,1c-0.5,0-0.7,0.5-0.4,0.9l7.1,10.1c0.3,0.5,0.8,0.4,1-0.1L100.2,16.6z"/>
			</g>
		</g>
		<g class="st7">
			<g>
				<path class="st1" d="M197.2,33.1c0-0.5,0.4-0.8,0.9-0.5l9.2,5.3c0.5,0.3,0.5,0.7,0,1l-9.2,5.3c-0.5,0.3-0.9,0.1-0.9-0.5V33.1z"
					/>
			</g>
			<g>
				<path class="st1" d="M197.7,33l8.5,4.9c0.5,0.3,0.5,0.7,0,1l-7.7,4.4c-0.5,0.3-0.9,0-0.9-0.5V33 M197.6,31.7
					c-0.5-0.3-0.9,0-0.9,0.5v12.3c0,0.5,0.4,0.8,0.9,0.5l10.7-6.2c0.5-0.3,0.5-0.7,0-1L197.6,31.7z"/>
			</g>
		</g>
		<g class="st7">
			<g>
				<path class="st1" d="M34.8,95.1c-0.3-0.5-0.1-0.9,0.4-0.9l10.6-0.9c0.5,0,0.8,0.3,0.6,0.8l-4.5,9.6c-0.2,0.5-0.7,0.5-1,0.1
					L34.8,95.1z"/>
			</g>
			<g>
				<path class="st1" d="M45.9,93.8l-4.2,8.9c-0.2,0.5-0.7,0.5-1,0.1l-5.1-7.3c-0.3-0.5-0.1-0.9,0.4-0.9L45.9,93.8 M47.2,93.6
					c0.2-0.5,0-0.9-0.6-0.8l-12.3,1c-0.5,0-0.7,0.5-0.4,0.9l7.1,10.1c0.3,0.5,0.8,0.4,1-0.1L47.2,93.6z"/>
			</g>
		</g>
		<g class="st7">
			<g>
				<path class="st1" d="M102.6,79.6c-0.2-0.5,0.1-0.9,0.7-0.8l10.3,1.8c0.5,0.1,0.7,0.5,0.3,0.9l-6.8,8.2c-0.4,0.4-0.8,0.3-1-0.2
					L102.6,79.6z"/>
			</g>
			<g>
				<path class="st1" d="M103,79.4l9.7,1.7c0.5,0.1,0.7,0.5,0.3,0.9l-5.7,6.8c-0.4,0.4-0.8,0.3-1-0.2L103,79.4 M102.5,78.3
					c-0.5-0.1-0.8,0.2-0.6,0.8l4.2,11.6c0.2,0.5,0.6,0.6,1,0.2l7.9-9.4c0.4-0.4,0.2-0.8-0.3-0.9L102.5,78.3z"/>
			</g>
		</g>
		<g class="st7">
			<g>
				<path class="st1" d="M169.8,97.1c-0.3-0.5-0.1-0.9,0.4-0.9l10.6-0.9c0.5,0,0.8,0.3,0.6,0.8l-4.5,9.6c-0.2,0.5-0.7,0.5-1,0.1
					L169.8,97.1z"/>
			</g>
			<g>
				<path class="st1" d="M180.9,95.8l-4.2,8.9c-0.2,0.5-0.7,0.5-1,0.1l-5.1-7.3c-0.3-0.5-0.1-0.9,0.4-0.9L180.9,95.8 M182.2,95.6
					c0.2-0.5,0-0.9-0.6-0.8l-12.3,1c-0.5,0-0.7,0.5-0.4,0.9l7.1,10.1c0.3,0.5,0.8,0.4,1-0.1L182.2,95.6z"/>
			</g>
		</g>
		<g class="st7">
			<g>
				<path class="st1" d="M52.8,161.1c-0.3-0.5-0.1-0.9,0.4-0.9l10.6-0.9c0.5,0,0.8,0.3,0.6,0.8l-4.5,9.6c-0.2,0.5-0.7,0.5-1,0.1
					L52.8,161.1z"/>
			</g>
			<g>
				<path class="st1" d="M63.9,159.8l-4.2,8.9c-0.2,0.5-0.7,0.5-1,0.1l-5.1-7.3c-0.3-0.5-0.1-0.9,0.4-0.9L63.9,159.8 M65.2,159.6
					c0.2-0.5,0-0.9-0.6-0.8l-12.3,1c-0.5,0-0.7,0.5-0.4,0.9l7.1,10.1c0.3,0.5,0.8,0.4,1-0.1L65.2,159.6z"/>
			</g>
		</g>
		<g class="st7">
			<g>
				<path class="st1" d="M110.8,196.1c-0.3-0.5-0.1-0.9,0.4-0.9l10.6-0.9c0.5,0,0.8,0.3,0.6,0.8l-4.5,9.6c-0.2,0.5-0.7,0.5-1,0.1
					L110.8,196.1z"/>
			</g>
			<g>
				<path class="st1" d="M121.9,194.8l-4.2,8.9c-0.2,0.5-0.7,0.5-1,0.1l-5.1-7.3c-0.3-0.5-0.1-0.9,0.4-0.9L121.9,194.8 M123.2,194.6
					c0.2-0.5,0-0.9-0.6-0.8l-12.3,1c-0.5,0-0.7,0.5-0.4,0.9l7.1,10.1c0.3,0.5,0.8,0.4,1-0.1L123.2,194.6z"/>
			</g>
		</g>
		<g class="st7">
			<g>
				<path class="st1" d="M123.8,133.1c-0.3-0.5-0.1-0.9,0.4-0.9l10.6-0.9c0.5,0,0.8,0.3,0.6,0.8l-4.5,9.6c-0.2,0.5-0.7,0.5-1,0.1
					L123.8,133.1z"/>
			</g>
			<g>
				<path class="st1" d="M134.9,131.8l-4.2,8.9c-0.2,0.5-0.7,0.5-1,0.1l-5.1-7.3c-0.3-0.5-0.1-0.9,0.4-0.9L134.9,131.8 M136.2,131.6
					c0.2-0.5,0-0.9-0.6-0.8l-12.3,1c-0.5,0-0.7,0.5-0.4,0.9l7.1,10.1c0.3,0.5,0.8,0.4,1-0.1L136.2,131.6z"/>
			</g>
		</g>
		<g class="st7">
			<g>
				<path class="st1" d="M232.4,217.8c-0.1-0.5,0.3-0.8,0.8-0.6l9.9,3.8c0.5,0.2,0.6,0.6,0.2,1l-8.2,6.6c-0.4,0.3-0.9,0.2-0.9-0.4
					L232.4,217.8z"/>
			</g>
			<g>
				<path class="st1" d="M232.9,217.5l9.2,3.5c0.5,0.2,0.6,0.6,0.2,1l-6.8,5.5c-0.4,0.3-0.8,0.2-0.9-0.4L232.9,217.5 M232.5,216.4
					c-0.5-0.2-0.9,0.1-0.8,0.6l1.9,12.1c0.1,0.5,0.5,0.7,0.9,0.4l9.5-7.7c0.4-0.3,0.4-0.8-0.2-1L232.5,216.4z"/>
			</g>
		</g>
		<g class="st7">
			<g>
				<path class="st1" d="M184.8,152.1c-0.3-0.5-0.1-0.9,0.4-0.9l10.6-0.9c0.5,0,0.8,0.3,0.6,0.8l-4.5,9.6c-0.2,0.5-0.7,0.5-1,0.1
					L184.8,152.1z"/>
			</g>
			<g>
				<path class="st1" d="M195.9,150.8l-4.2,8.9c-0.2,0.5-0.7,0.5-1,0.1l-5.1-7.3c-0.3-0.5-0.1-0.9,0.4-0.9L195.9,150.8 M197.2,150.6
					c0.2-0.5,0-0.9-0.6-0.8l-12.3,1c-0.5,0-0.7,0.5-0.4,0.9l7.1,10.1c0.3,0.5,0.8,0.4,1-0.1L197.2,150.6z"/>
			</g>
		</g>
		<g class="st7">
			<g>
				<path class="st1" d="M132.4,50.9c-0.5-0.3-0.5-0.7,0-1l9.2-5.3c0.5-0.3,0.9-0.1,0.9,0.5v10.6c0,0.5-0.4,0.8-0.9,0.5L132.4,50.9z
					"/>
			</g>
			<g>
				<path class="st1" d="M141.9,45v9.8c0,0.5-0.4,0.8-0.9,0.5l-7.7-4.4c-0.5-0.3-0.5-0.7,0-1L141.9,45 M142.9,44.2
					c0-0.5-0.4-0.8-0.9-0.5l-10.7,6.2c-0.5,0.3-0.5,0.7,0,1l10.7,6.2c0.5,0.3,0.9,0.1,0.9-0.5V44.2z"/>
			</g>
		</g>
		<g class="st7">
			<g>
				<path class="st1" d="M8.8,230.4c-0.5-0.2-0.6-0.6-0.2-1l7.6-7.3c0.4-0.4,0.8-0.3,1,0.3l2.5,10.3c0.1,0.5-0.2,0.8-0.7,0.7
					L8.8,230.4z"/>
			</g>
			<g>
				<path class="st1" d="M16.5,222.4l2.4,9.5c0.1,0.5-0.2,0.8-0.7,0.7l-8.5-2.4c-0.5-0.2-0.6-0.6-0.2-1L16.5,222.4 M17.3,221.5
					c-0.1-0.5-0.6-0.7-1-0.3l-8.9,8.5c-0.4,0.4-0.3,0.8,0.2,1l11.9,3.4c0.5,0.2,0.9-0.2,0.7-0.7L17.3,221.5z"/>
			</g>
		</g>
		<g class="st7">
			<g>
				<path class="st1" d="M67.5,215.2c-0.4-0.4-0.3-0.8,0.3-1l10.2-2.7c0.5-0.1,0.9,0.2,0.7,0.7L76,222.4c-0.1,0.5-0.6,0.6-1,0.3
					L67.5,215.2z"/>
			</g>
			<g>
				<path class="st1" d="M78.2,212l-2.5,9.5c-0.1,0.5-0.6,0.6-1,0.3l-6.3-6.3c-0.4-0.4-0.3-0.8,0.3-1L78.2,212 M79.4,211.6
					c0.1-0.5-0.2-0.8-0.7-0.7L66.9,214c-0.5,0.1-0.6,0.6-0.3,1l8.7,8.7c0.4,0.4,0.8,0.3,1-0.3L79.4,211.6z"/>
			</g>
		</g>
		<g class="st7">
			<g>
				<path class="st1" d="M168.2,225.1c0-0.6,0.4-0.8,0.9-0.5l9.2,5.3c0.5,0.3,0.5,0.7,0,1l-9.2,5.3c-0.5,0.3-0.9,0.1-0.9-0.5V225.1z
					"/>
			</g>
			<g>
				<path class="st1" d="M168.7,225l8.5,4.9c0.5,0.3,0.5,0.7,0,1l-7.7,4.4c-0.5,0.3-0.9,0-0.9-0.5V225 M168.6,223.7
					c-0.5-0.3-0.9,0-0.9,0.5v12.3c0,0.6,0.4,0.8,0.9,0.5l10.7-6.2c0.5-0.3,0.5-0.7,0-1L168.6,223.7z"/>
			</g>
		</g>
		<g class="st8">
			<circle class="st3" cx="25.6" cy="116.6" r="5"/>
			<circle class="st4" cx="25.6" cy="116.6" r="5"/>
		</g>
		<g class="st8">
			<circle class="st3" cx="219.6" cy="85.6" r="5"/>
			<circle class="st4" cx="219.6" cy="85.6" r="5"/>
		</g>
		<g class="st8">
			<circle class="st3" cx="155.6" cy="55.6" r="5"/>
			<circle class="st4" cx="155.6" cy="55.6" r="5"/>
		</g>
		<g class="st8">
			<circle class="st3" cx="150.6" cy="200.6" r="5"/>
			<circle class="st4" cx="150.6" cy="200.6" r="5"/>
		</g>
		<g class="st8">
			<circle class="st3" cx="45.6" cy="230.6" r="5"/>
			<circle class="st4" cx="45.6" cy="230.6" r="5"/>
		</g>
		<g class="st8">
			<circle class="st3" cx="222.6" cy="230.6" r="5"/>
			<circle class="st4" cx="222.6" cy="230.6" r="5"/>
		</g>
		<g class="st8">
			<circle class="st3" cx="229.6" cy="160.6" r="5"/>
			<circle class="st4" cx="229.6" cy="160.6" r="5"/>
		</g>
		<g class="st8">
			<circle class="st3" cx="84.6" cy="116.6" r="5"/>
			<circle class="st4" cx="84.6" cy="116.6" r="5"/>
		</g>
		<g class="st8">
			<circle class="st3" cx="186.6" cy="13.6" r="5"/>
			<circle class="st4" cx="186.6" cy="13.6" r="5"/>
		</g>
		<g class="st7">
			<g>
				<path class="st1" d="M58.6,59.1c-0.5-0.2-0.6-0.6-0.2-1l8-7c0.4-0.4,0.8-0.2,0.9,0.3l2,10.4c0.1,0.5-0.2,0.8-0.8,0.7L58.6,59.1z
					"/>
			</g>
			<g>
				<path class="st1" d="M66.8,51.5l1.9,9.6c0.1,0.5-0.2,0.8-0.8,0.7l-8.4-2.9c-0.5-0.2-0.6-0.6-0.2-1L66.8,51.5 M67.7,50.6
					c-0.1-0.5-0.5-0.7-0.9-0.3l-9.3,8.1c-0.4,0.4-0.3,0.8,0.2,1l11.6,4c0.5,0.2,0.9-0.1,0.8-0.7L67.7,50.6z"/>
			</g>
		</g>
		<g class="st9">
			<path class="st6" d="M16.1,70.1c0-0.6,0.5-1,1-1h5c0.5,0,1,0.4,1,1v5c0,0.6-0.5,1-1,1h-5c-0.5,0-1-0.4-1-1V70.1z"/>
		</g>
		<g class="st9">
			<path class="st6" d="M232.6,124.1c-0.5-0.3-0.6-0.9-0.3-1.4l2.8-4.1c0.3-0.5,0.9-0.6,1.4-0.3l4.1,2.8c0.5,0.3,0.6,0.9,0.3,1.4
				l-2.8,4.1c-0.3,0.5-0.9,0.6-1.4,0.3L232.6,124.1z"/>
		</g>
		<g class="st9">
			<path class="st6" d="M143.3,92.2c-0.3-0.5-0.1-1.1,0.4-1.4l4.3-2.5c0.5-0.3,1.1-0.1,1.4,0.4l2.5,4.3c0.3,0.5,0.1,1.1-0.4,1.4
				l-4.3,2.5c-0.5,0.3-1.1,0.1-1.4-0.4L143.3,92.2z"/>
		</g>
		<g class="st9">
			<path class="st6" d="M90.5,144.6c-0.5-0.1-0.9-0.6-0.8-1.2l0.9-4.9c0.1-0.5,0.6-0.9,1.2-0.8l4.9,0.9c0.5,0.1,0.9,0.6,0.8,1.2
				l-0.9,4.9c-0.1,0.5-0.6,0.9-1.2,0.8L90.5,144.6z"/>
		</g>
		<g class="st9">
			<path class="st6" d="M178.1,187.1c-0.5-0.2-0.8-0.8-0.6-1.3l1.6-4.7c0.2-0.5,0.8-0.8,1.3-0.6l4.7,1.6c0.5,0.2,0.8,0.8,0.6,1.3
				l-1.6,4.7c-0.2,0.5-0.8,0.8-1.3,0.6L178.1,187.1z"/>
		</g>
		<g class="st9">
			<path class="st6" d="M41.5,202.9c-0.4-0.3-0.5-1-0.2-1.4l3-4c0.3-0.4,1-0.5,1.4-0.2l4,3c0.4,0.3,0.5,1,0.2,1.4l-3,4
				c-0.3,0.4-1,0.5-1.4,0.2L41.5,202.9z"/>
		</g>
		<g class="st9">
			<path class="st6" d="M159.4,30.4c-0.5-0.1-0.9-0.7-0.8-1.2l1.1-4.9c0.1-0.5,0.7-0.9,1.2-0.8l4.9,1.1c0.5,0.1,0.9,0.7,0.8,1.2
				l-1.1,4.9c-0.1,0.5-0.7,0.9-1.2,0.8L159.4,30.4z"/>
		</g>
		<g class="st9">
			<path class="st6" d="M60.3,96.5c-0.3-0.5-0.2-1.1,0.2-1.4l4.1-2.9c0.5-0.3,1.1-0.2,1.4,0.2l2.9,4.1c0.3,0.5,0.2,1.1-0.2,1.4
				l-4.1,2.9c-0.5,0.3-1.1,0.2-1.4-0.2L60.3,96.5z"/>
		</g>
		<g class="st9">
			<path class="st6" d="M195.1,221.1c0-0.6,0.4-1,1-1h5c0.6,0,1,0.4,1,1v5c0,0.6-0.4,1-1,1h-5c-0.6,0-1-0.4-1-1V221.1z"/>
		</g>
		<g class="st9">
			<path class="st6" d="M221.1,20.1c0-0.5,0.4-1,1-1h5c0.6,0,1,0.5,1,1v5c0,0.5-0.4,1-1,1h-5c-0.6,0-1-0.5-1-1V20.1z"/>
		</g>
		<g class="st9">
			<path class="st6" d="M6.7,190.4c-0.5-0.3-0.6-0.9-0.4-1.4l2.5-4.3c0.3-0.5,0.9-0.6,1.4-0.4l4.3,2.5c0.5,0.3,0.6,0.9,0.4,1.4
				l-2.5,4.3c-0.3,0.5-0.9,0.6-1.4,0.4L6.7,190.4z"/>
		</g>
		<g class="st9">
			<path class="st6" d="M67.4,32.4c-0.5-0.1-0.9-0.7-0.8-1.2l1.1-4.9c0.1-0.5,0.7-0.9,1.2-0.8l4.9,1.1c0.5,0.1,0.9,0.7,0.8,1.2
				l-1.1,4.9c-0.1,0.5-0.7,0.9-1.2,0.8L67.4,32.4z"/>
		</g>
		<g class="st9">
			<path class="st6" d="M191.1,73.1c0-0.6,0.4-1,1-1h5c0.6,0,1,0.4,1,1v5c0,0.6-0.4,1-1,1h-5c-0.6,0-1-0.4-1-1V73.1z"/>
		</g>
		<g class="st8">
			<circle class="st3" cx="93.6" cy="57.6" r="5"/>
			<circle class="st4" cx="93.6" cy="57.6" r="5"/>
		</g>
		<g class="st9">
			<path class="st6" d="M98.5,221.9c-0.4-0.3-0.5-1-0.2-1.4l3-4c0.3-0.4,1-0.5,1.4-0.2l4,3c0.4,0.3,0.5,1,0.2,1.4l-3,4
				c-0.3,0.4-1,0.5-1.4,0.2L98.5,221.9z"/>
		</g>
		<g class="st8">
			<circle class="st3" cx="155.6" cy="123.6" r="5"/>
			<circle class="st4" cx="155.6" cy="123.6" r="5"/>
		</g>
	</g>
</g>
</svg>
