<?xml version="1.0" encoding="utf-8"?>
<!-- Generator: Adobe Illustrator 22.1.0, SVG Export Plug-In . SVG Version: 6.00 Build 0)  -->
<svg version="1.1" xmlns="http://www.w3.org/2000/svg" xmlns:xlink="http://www.w3.org/1999/xlink" x="0px" y="0px"
	 viewBox="0 0 250 250" style="enable-background:new 0 0 250 250;" xml:space="preserve">
<style type="text/css">
	.st0{fill:#EBEBEB;}
	.st1{fill:#4062BB;}
	.st2{fill:none;stroke:#F45B69;stroke-miterlimit:10;}
	.st3{fill:#2EF2B2;stroke:#2EF2B2;stroke-miterlimit:10;}
	.st4{fill:none;stroke:#52489C;stroke-miterlimit:10;}
	.st5{fill:#BA1200;}
	.st6{opacity:0.5;}
	.st7{opacity:0.5;fill:#2EF2B2;stroke:#2EF2B2;stroke-miterlimit:10;}
	.st8{opacity:0.5;fill:#BA1200;}
</style>
<g id="bg">
	<g>
		<rect class="st0" width="250" height="250"/>
	</g>
</g>
<g id="Layer_1">
	<g>
		<polygon class="st1" points="5.7,14 14.7,5.3 17.7,17.5 		"/>
		<path class="st1" d="M14.4,6.3L17,16.8l-10.4-3L14.4,6.3 M15,4.4L4.7,14.3l13.8,4L15,4.4L15,4.4z"/>
	</g>
	<g>
		<path class="st2" d="M58.8,26c-5.6,2.5-12.2,0-14.7-5.6c-2-4.5,0-9.7,4.5-11.7c3.6-1.6,7.8,0,9.4,3.6c1.3,2.9,0,6.2-2.9,7.5
			c-2.3,1-5,0-6-2.3c-0.8-1.8,0-4,1.8-4.8c1.5-0.7,3.2,0,3.8,1.5c0.5,1.2,0,2.6-1.2,3.1c-0.9,0.4-2,0-2.5-0.9c-0.3-0.8,0-1.6,0.8-2"
			/>
	</g>
	<circle class="st3" cx="39.5" cy="50.5" r="5"/>
	<path class="st4" d="M12.3,37.1c0.2-1.1,0.6-2.5,1.7-3.1c1.6-0.9,3.2,0.6,4.6-0.3c1.4-0.9,0.5-3.2,1.9-4.2c1.5-1,3.2,0.7,4.6-0.3
		S25.6,26,27,25c0.9-0.6,2.1-0.4,2.9-0.1"/>
	<g>
		<polygon class="st1" points="86.1,16.2 98.7,15.1 93.3,26.5 		"/>
		<path class="st1" d="M97.8,15.7l-4.6,9.8L87,16.6L97.8,15.7 M99.5,14.6l-14.3,1.2l8.2,11.7L99.5,14.6L99.5,14.6z"/>
	</g>
	<g>
		<polygon class="st1" points="196.1,31 207,37.3 196.1,43.6 		"/>
		<path class="st1" d="M196.6,31.9l9.4,5.4l-9.4,5.4V31.9 M195.6,30.1v14.3l12.4-7.2L195.6,30.1L195.6,30.1z"/>
	</g>
	<g>
		<polygon class="st1" points="33.1,93.2 45.7,92.1 40.3,103.5 		"/>
		<path class="st1" d="M44.8,92.7l-4.6,9.8L34,93.6L44.8,92.7 M46.5,91.6l-14.3,1.2l8.2,11.7L46.5,91.6L46.5,91.6z"/>
	</g>
	<g>
		<polygon class="st1" points="101.2,77.6 113.5,79.8 105.4,89.5 		"/>
		<path class="st1" d="M101.9,78.3l10.7,1.9l-7,8.3L101.9,78.3 M100.4,77l4.9,13.5l9.2-10.9L100.4,77L100.4,77z"/>
	</g>
	<g>
		<polygon class="st1" points="168.1,95.2 180.7,94.1 175.3,105.5 		"/>
		<path class="st1" d="M179.8,94.7l-4.6,9.8l-6.2-8.9L179.8,94.7 M181.5,93.6l-14.3,1.2l8.2,11.7L181.5,93.6L181.5,93.6z"/>
	</g>
	<g>
		<polygon class="st1" points="51.1,159.2 63.7,158.1 58.3,169.5 		"/>
		<path class="st1" d="M62.8,158.7l-4.6,9.8l-6.2-8.9L62.8,158.7 M64.5,157.6l-14.3,1.2l8.2,11.7L64.5,157.6L64.5,157.6z"/>
	</g>
	<g>
		<polygon class="st1" points="109.1,194.2 121.7,193.1 116.3,204.5 		"/>
		<path class="st1" d="M120.8,193.7l-4.6,9.8l-6.2-8.9L120.8,193.7 M122.5,192.6l-14.3,1.2l8.2,11.7L122.5,192.6L122.5,192.6z"/>
	</g>
	<g>
		<polygon class="st1" points="122.1,131.2 134.7,130.1 129.3,141.5 		"/>
		<path class="st1" d="M133.8,130.7l-4.6,9.8l-6.2-8.9L133.8,130.7 M135.5,129.6l-14.3,1.2l8.2,11.7L135.5,129.6L135.5,129.6z"/>
	</g>
	<g>
		<polygon class="st1" points="231.1,215.7 242.9,220.2 233.1,228.1 		"/>
		<path class="st1" d="M231.8,216.4l10.1,3.9l-8.4,6.8L231.8,216.4 M230.5,214.9l2.2,14.1l11.1-9L230.5,214.9L230.5,214.9z"/>
	</g>
	<g>
		<polygon class="st1" points="183.1,150.2 195.7,149.1 190.3,160.5 		"/>
		<path class="st1" d="M194.8,149.7l-4.6,9.8l-6.2-8.9L194.8,149.7 M196.5,148.6l-14.3,1.2l8.2,11.7L196.5,148.6L196.5,148.6z"/>
	</g>
	<g>
		<polygon class="st1" points="130.4,49.3 141.3,43 141.3,55.6 		"/>
		<path class="st1" d="M140.8,43.9v10.8l-9.4-5.4L140.8,43.9 M141.8,42.1l-12.4,7.2l12.4,7.2V42.1L141.8,42.1z"/>
	</g>
	<g>
		<polygon class="st1" points="6.7,229 15.7,220.3 18.7,232.5 		"/>
		<path class="st1" d="M15.4,221.3l2.6,10.5l-10.4-3L15.4,221.3 M16,219.4l-10.3,9.9l13.8,4L16,219.4L16,219.4z"/>
	</g>
	<g>
		<polygon class="st1" points="65.7,213.4 77.8,210.2 74.6,222.3 		"/>
		<path class="st1" d="M77.1,210.9l-2.8,10.5l-7.7-7.7L77.1,210.9 M78.6,209.5l-13.8,3.7l10.1,10.1L78.6,209.5L78.6,209.5z"/>
	</g>
	<g>
		<polygon class="st1" points="167.1,223 178,229.3 167.1,235.6 		"/>
		<path class="st1" d="M167.6,223.9l9.4,5.4l-9.4,5.4V223.9 M166.6,222.1v14.3l12.4-7.2L166.6,222.1L166.6,222.1z"/>
	</g>
	<path class="st4" d="M23.6,170.7c1.1-0.2,2.5-0.2,3.5,0.6c1.4,1.2,0.4,3.2,1.8,4.2s3.1-0.6,4.6,0.4c1.4,1,0.3,3.2,1.8,4.2
		c1.4,1,3.2-0.6,4.6,0.4c0.9,0.6,1,1.8,1.1,2.7"/>
	<path class="st4" d="M182,203.5c0.5-1,1.3-2.2,2.5-2.5c1.8-0.4,2.9,1.5,4.5,1s1.3-2.9,3-3.5s2.9,1.6,4.5,1s1.4-2.9,3-3.5
		c1-0.3,2.1,0.2,2.9,0.7"/>
	<path class="st4" d="M215.3,108.1c0.2-1.1,0.6-2.5,1.7-3.1c1.6-0.9,3.2,0.6,4.6-0.3c1.4-0.9,0.5-3.2,1.9-4.2c1.5-1,3.2,0.7,4.6-0.3
		c1.4-1,0.5-3.2,1.9-4.2c0.9-0.6,2.1-0.4,2.9-0.1"/>
	<path class="st4" d="M118.3,94.1c0.2-1.1,0.6-2.5,1.7-3.1c1.6-0.9,3.2,0.6,4.6-0.3s0.5-3.2,1.9-4.2c1.5-1,3.2,0.7,4.6-0.3
		c1.4-1,0.5-3.2,1.9-4.2c0.9-0.6,2.1-0.4,2.9-0.1"/>
	<path class="st4" d="M108.1,180.8c0.2-1.1,0.7-2.4,1.8-3c1.6-0.8,3.2,0.7,4.6-0.1c1.5-0.9,0.6-3.2,2.1-4.1c1.5-0.9,3.1,0.8,4.6-0.1
		c1.4-0.9,0.6-3.2,2.1-4.1c0.9-0.6,2.1-0.3,2.9,0"/>
	<path class="st4" d="M73.4,247.4c0-1.1,0.2-2.5,1.2-3.3c1.4-1.1,3.3,0.1,4.5-1c1.3-1.2,0-3.2,1.2-4.4c1.3-1.2,3.3,0.2,4.5-1
		s0-3.2,1.2-4.4c0.8-0.7,2-0.7,2.9-0.6"/>
	<path class="st4" d="M140.3,18.1c0.2-1.1,0.6-2.5,1.7-3.1c1.6-0.9,3.2,0.6,4.6-0.3c1.4-0.9,0.5-3.2,1.9-4.2c1.5-1,3.2,0.7,4.6-0.3
		c1.4-1,0.5-3.2,1.9-4.2c0.9-0.6,2.1-0.4,2.9-0.1"/>
	<path class="st4" d="M211.5,140.5c1-0.4,2.4-0.7,3.5-0.1c1.6,0.9,1.1,3.1,2.5,3.8c1.5,0.8,3-1.2,4.6-0.4s1,3.1,2.5,3.8
		s3-1.1,4.6-0.4c1,0.4,1.4,1.6,1.6,2.5"/>
	<circle class="st3" cx="24.5" cy="115.5" r="5"/>
	<circle class="st3" cx="218.5" cy="84.5" r="5"/>
	<circle class="st3" cx="154.5" cy="54.5" r="5"/>
	<circle class="st3" cx="149.5" cy="199.5" r="5"/>
	<circle class="st3" cx="44.5" cy="229.5" r="5"/>
	<circle class="st3" cx="221.5" cy="229.5" r="5"/>
	<circle class="st3" cx="228.5" cy="159.5" r="5"/>
	<circle class="st3" cx="83.5" cy="115.5" r="5"/>
	<circle class="st3" cx="185.5" cy="12.5" r="5"/>
	<g>
		<path class="st2" d="M173.6,129.2c-0.6-6.1,3.8-11.6,9.9-12.2c4.9-0.5,9.2,3,9.8,7.9c0.4,3.9-2.4,7.4-6.3,7.8
			c-3.1,0.3-5.9-1.9-6.2-5.1c-0.3-2.5,1.6-4.7,4.1-5c2-0.2,3.8,1.2,4,3.2c0.2,1.6-1,3-2.6,3.2c-1.3,0.1-2.4-0.8-2.6-2.1
			c-0.1-1,0.6-1.9,1.7-2c0.8-0.1,1.6,0.5,1.6,1.3"/>
	</g>
	<g>
		<path class="st2" d="M83.3,182c-5.7-2.3-8.5-8.7-6.2-14.4c1.8-4.6,7-6.8,11.5-5c3.6,1.5,5.4,5.6,4,9.2c-1.2,2.9-4.5,4.3-7.4,3.2
			c-2.3-0.9-3.5-3.6-2.5-5.9c0.7-1.9,2.9-2.8,4.7-2c1.5,0.6,2.2,2.3,1.6,3.8c-0.5,1.2-1.8,1.8-3,1.3c-1-0.4-1.4-1.5-1-2.4
			c0.3-0.8,1.2-1.1,1.9-0.8"/>
	</g>
	<g>
		<path class="st2" d="M233.8,63c-5.6,2.5-12.2,0-14.7-5.6c-2-4.5,0-9.7,4.5-11.7c3.6-1.6,7.8,0,9.4,3.6c1.3,2.9,0,6.2-2.9,7.5
			c-2.3,1-5,0-6-2.3c-0.8-1.8,0-4,1.8-4.8c1.5-0.7,3.2,0,3.8,1.5c0.5,1.2,0,2.6-1.2,3.1c-0.9,0.4-2,0-2.5-0.9c-0.3-0.8,0-1.6,0.8-2"
			/>
	</g>
	<g>
		<path class="st2" d="M119.8,47c-5.6,2.5-12.2,0-14.7-5.6c-2-4.5,0-9.7,4.5-11.7c3.6-1.6,7.8,0,9.4,3.6c1.3,2.9,0,6.2-2.9,7.5
			c-2.3,1-5,0-6-2.3c-0.8-1.8,0-4,1.8-4.8c1.5-0.7,3.2,0,3.8,1.5c0.5,1.2,0,2.6-1.2,3.1c-0.9,0.4-2,0-2.5-0.9c-0.3-0.8,0-1.6,0.8-2"
			/>
	</g>
	<g>
		<path class="st2" d="M62.4,129.9c-1.1,6-6.8,10.1-12.9,9c-4.8-0.8-8.1-5.5-7.2-10.3c0.7-3.9,4.4-6.5,8.2-5.8
			c3.1,0.5,5.2,3.5,4.6,6.6c-0.4,2.5-2.8,4.1-5.3,3.7c-2-0.3-3.3-2.2-3-4.2c0.3-1.6,1.8-2.6,3.4-2.4c1.3,0.2,2.1,1.4,1.9,2.7
			c-0.2,1-1.1,1.7-2.2,1.5c-0.8-0.1-1.4-0.9-1.2-1.7"/>
	</g>
	<g>
		<path class="st2" d="M138.8,240c-5.6,2.5-12.2,0-14.7-5.6c-2-4.5,0-9.7,4.5-11.7c3.6-1.6,7.8,0,9.4,3.6c1.3,2.9,0,6.2-2.9,7.5
			c-2.3,1-5,0-6-2.3c-0.8-1.8,0-4,1.8-4.8c1.5-0.7,3.2,0,3.8,1.5c0.5,1.2,0,2.6-1.2,3.1c-0.9,0.4-2,0-2.5-0.9c-0.3-0.8,0-1.6,0.8-2"
			/>
	</g>
	<g>
		<path class="st2" d="M168.4,167.2c-2.8,5.5-9.4,7.7-14.9,4.9c-4.4-2.2-6.2-7.5-3.9-11.9c1.8-3.5,6-4.9,9.5-3.2
			c2.8,1.4,3.9,4.8,2.5,7.6c-1.1,2.2-3.9,3.2-6.1,2c-1.8-0.9-2.5-3.1-1.6-4.9c0.7-1.4,2.5-2,3.9-1.3c1.1,0.6,1.6,2,1,3.1
			c-0.5,0.9-1.6,1.3-2.5,0.8c-0.7-0.4-1-1.3-0.7-2"/>
	</g>
	<g>
		<path class="st2" d="M124.9,111.7c0.2,6.1-4.7,11.2-10.8,11.4c-4.9,0.1-9-3.8-9.1-8.7c-0.1-3.9,3-7.2,6.9-7.3
			c3.1-0.1,5.8,2.4,5.8,5.5c0.1,2.5-1.9,4.6-4.4,4.7c-2,0.1-3.7-1.5-3.7-3.5c0-1.6,1.2-2.9,2.8-3c1.3,0,2.4,1,2.4,2.3
			c0,1-0.8,1.9-1.8,1.9c-0.8,0-1.5-0.6-1.5-1.5"/>
	</g>
	<g>
		<path class="st2" d="M4,146.9c4.5-4.1,11.6-3.8,15.7,0.8c3.3,3.6,3,9.3-0.6,12.6c-2.9,2.6-7.4,2.4-10-0.5c-2.1-2.3-1.9-5.9,0.4-8
			c1.9-1.7,4.7-1.5,6.4,0.3c1.3,1.5,1.2,3.8-0.3,5.1c-1.2,1.1-3,1-4.1-0.2c-0.9-1-0.8-2.4,0.2-3.3c0.8-0.7,1.9-0.6,2.6,0.1
			c0.6,0.6,0.5,1.6-0.1,2.1"/>
	</g>
	<g>
		<polygon class="st1" points="56.6,57.7 66.1,49.4 68.5,61.8 		"/>
		<path class="st1" d="M65.7,50.4L67.8,61l-10.3-3.5L65.7,50.4 M66.4,48.5l-10.8,9.4l13.5,4.7L66.4,48.5L66.4,48.5z"/>
	</g>
	<path class="st4" d="M175.2,49.5c0.9,0.7,1.8,1.7,1.8,3c0,1.8-2.1,2.5-2,4.1c0.1,1.7,2.5,2,2.7,3.7c0.1,1.8-2.2,2.4-2,4.1
		c0.2,1.7,2.5,2,2.7,3.7c0.1,1.1-0.7,2-1.4,2.6"/>
	<rect x="15" y="68" class="st5" width="7" height="7"/>
	<rect x="232" y="118" transform="matrix(0.5596 -0.8288 0.8288 0.5596 3.0341 248.6829)" class="st5" width="7" height="7"/>
	<rect x="143" y="88" transform="matrix(0.866 -0.5 0.5 0.866 -26.1206 85.5115)" class="st5" width="7" height="7"/>
	<rect x="89" y="137" transform="matrix(0.1766 -0.9843 0.9843 0.1766 -62.1278 206.7381)" class="st5" width="7" height="7"/>
	<rect x="177" y="180" transform="matrix(0.3249 -0.9457 0.9457 0.3249 -51.6824 294.5739)" class="st5" width="7" height="7"/>
	<rect x="41" y="197" transform="matrix(0.6033 -0.7975 0.7975 0.6033 -142.244 115.0239)" class="st5" width="7" height="7"/>
	<rect x="158" y="23" transform="matrix(0.2175 -0.9761 0.9761 0.2175 100.5108 178.3784)" class="st5" width="7" height="7"/>
	<rect x="60" y="92" transform="matrix(0.82 -0.5723 0.5723 0.82 -43.2301 53.5269)" class="st5" width="7" height="7"/>
	<rect x="194" y="219" class="st5" width="7" height="7"/>
	<rect x="220" y="18" class="st5" width="7" height="7"/>
	<rect x="6" y="184" transform="matrix(0.5 -0.866 0.866 0.5 -157.6246 101.9725)" class="st5" width="7" height="7"/>
	<rect x="66" y="25" transform="matrix(0.2175 -0.9761 0.9761 0.2175 26.5663 90.1415)" class="st5" width="7" height="7"/>
	<g>
		<path class="st2" d="M236.3,174.5c5,3.5,6.3,10.4,2.7,15.5c-2.8,4-8.4,5-12.4,2.2c-3.2-2.3-4-6.7-1.7-9.9c1.8-2.6,5.3-3.2,7.9-1.4
			c2.1,1.4,2.6,4.3,1.1,6.3c-1.2,1.6-3.4,2-5.1,0.9c-1.3-0.9-1.6-2.7-0.7-4.1c0.7-1.1,2.2-1.3,3.2-0.6c0.8,0.6,1,1.8,0.5,2.6
			c-0.5,0.7-1.4,0.8-2.1,0.4"/>
	</g>
	<rect x="190" y="71" class="st5" width="7" height="7"/>
	<path class="st4" d="M8.2,104.2c-0.1-1.1-0.1-2.5,0.9-3.4c1.3-1.3,3.3-0.2,4.3-1.4c1.1-1.3-0.4-3.2,0.8-4.5
		c1.1-1.3,3.3-0.1,4.3-1.4c1.1-1.3-0.3-3.2,0.8-4.5c0.7-0.8,1.9-0.9,2.8-0.9"/>
	<circle class="st3" cx="92.5" cy="56.5" r="5"/>
	<rect x="98" y="216" transform="matrix(0.6033 -0.7975 0.7975 0.6033 -134.7851 168.0179)" class="st5" width="7" height="7"/>
	<g>
		<path class="st2" d="M86.8,88c-5.6,2.5-12.2,0-14.7-5.6c-2-4.5,0-9.7,4.5-11.7c3.6-1.6,7.8,0,9.4,3.6c1.3,2.9,0,6.2-2.9,7.5
			c-2.3,1-5,0-6-2.3c-0.8-1.8,0-4,1.8-4.8c1.5-0.7,3.2,0,3.8,1.5c0.5,1.2,0,2.6-1.2,3.1c-0.9,0.4-2,0-2.5-0.9c-0.3-0.8,0-1.6,0.8-2"
			/>
	</g>
	<circle class="st3" cx="154.5" cy="122.5" r="5"/>
</g>
<g id="Layer_2">
	<g class="st6">
		<polygon class="st1" points="6.8,15.1 15.8,6.4 18.8,18.6 		"/>
		<path class="st1" d="M15.5,7.4l2.6,10.5l-10.4-3L15.5,7.4 M16.1,5.5L5.8,15.4l13.8,4L16.1,5.5L16.1,5.5z"/>
	</g>
	<circle class="st7" cx="40.6" cy="51.6" r="5"/>
	<g class="st6">
		<polygon class="st1" points="87.2,17.3 99.8,16.2 94.4,27.6 		"/>
		<path class="st1" d="M98.9,16.8l-4.6,9.8l-6.2-8.9L98.9,16.8 M100.6,15.7l-14.3,1.2l8.2,11.7L100.6,15.7L100.6,15.7z"/>
	</g>
	<g class="st6">
		<polygon class="st1" points="197.2,32.1 208.1,38.4 197.2,44.7 		"/>
		<path class="st1" d="M197.7,33l9.4,5.4l-9.4,5.4V33 M196.7,31.2v14.3l12.4-7.2L196.7,31.2L196.7,31.2z"/>
	</g>
	<g class="st6">
		<polygon class="st1" points="34.2,94.3 46.8,93.2 41.4,104.6 		"/>
		<path class="st1" d="M45.9,93.8l-4.6,9.8l-6.2-8.9L45.9,93.8 M47.6,92.7l-14.3,1.2l8.2,11.7L47.6,92.7L47.6,92.7z"/>
	</g>
	<g class="st6">
		<polygon class="st1" points="102.3,78.7 114.6,80.9 106.5,90.6 		"/>
		<path class="st1" d="M103,79.4l10.7,1.9l-7,8.3L103,79.4 M101.5,78.1l4.9,13.5l9.2-10.9L101.5,78.1L101.5,78.1z"/>
	</g>
	<g class="st6">
		<polygon class="st1" points="169.2,96.3 181.8,95.2 176.4,106.6 		"/>
		<path class="st1" d="M180.9,95.8l-4.6,9.8l-6.2-8.9L180.9,95.8 M182.6,94.7l-14.3,1.2l8.2,11.7L182.6,94.7L182.6,94.7z"/>
	</g>
	<g class="st6">
		<polygon class="st1" points="52.2,160.3 64.8,159.2 59.4,170.6 		"/>
		<path class="st1" d="M63.9,159.8l-4.6,9.8l-6.2-8.9L63.9,159.8 M65.6,158.7l-14.3,1.2l8.2,11.7L65.6,158.7L65.6,158.7z"/>
	</g>
	<g class="st6">
		<polygon class="st1" points="110.2,195.3 122.8,194.2 117.4,205.6 		"/>
		<path class="st1" d="M121.9,194.8l-4.6,9.8l-6.2-8.9L121.9,194.8 M123.6,193.7l-14.3,1.2l8.2,11.7L123.6,193.7L123.6,193.7z"/>
	</g>
	<g class="st6">
		<polygon class="st1" points="123.2,132.3 135.8,131.2 130.4,142.6 		"/>
		<path class="st1" d="M134.9,131.8l-4.6,9.8l-6.2-8.9L134.9,131.8 M136.6,130.7l-14.3,1.2l8.2,11.7L136.6,130.7L136.6,130.7z"/>
	</g>
	<g class="st6">
		<polygon class="st1" points="232.2,216.8 244,221.3 234.2,229.2 		"/>
		<path class="st1" d="M232.9,217.5l10.1,3.9l-8.4,6.8L232.9,217.5 M231.6,216l2.2,14.1l11.1-9L231.6,216L231.6,216z"/>
	</g>
	<g class="st6">
		<polygon class="st1" points="184.2,151.3 196.8,150.2 191.4,161.6 		"/>
		<path class="st1" d="M195.9,150.8l-4.6,9.8l-6.2-8.9L195.9,150.8 M197.6,149.7l-14.3,1.2l8.2,11.7L197.6,149.7L197.6,149.7z"/>
	</g>
	<g class="st6">
		<polygon class="st1" points="131.5,50.4 142.4,44.1 142.4,56.7 		"/>
		<path class="st1" d="M141.9,45v10.8l-9.4-5.4L141.9,45 M142.9,43.2l-12.4,7.2l12.4,7.2V43.2L142.9,43.2z"/>
	</g>
	<g class="st6">
		<polygon class="st1" points="7.8,230.1 16.8,221.4 19.8,233.6 		"/>
		<path class="st1" d="M16.5,222.4l2.6,10.5l-10.4-3L16.5,222.4 M17.1,220.5l-10.3,9.9l13.8,4L17.1,220.5L17.1,220.5z"/>
	</g>
	<g class="st6">
		<polygon class="st1" points="66.8,214.5 78.9,211.3 75.7,223.4 		"/>
		<path class="st1" d="M78.2,212l-2.8,10.5l-7.7-7.7L78.2,212 M79.7,210.6l-13.8,3.7L76,224.4L79.7,210.6L79.7,210.6z"/>
	</g>
	<g class="st6">
		<polygon class="st1" points="168.2,224.1 179.1,230.4 168.2,236.7 		"/>
		<path class="st1" d="M168.7,225l9.4,5.4l-9.4,5.4V225 M167.7,223.2v14.3l12.4-7.2L167.7,223.2L167.7,223.2z"/>
	</g>
	<circle class="st7" cx="25.6" cy="116.6" r="5"/>
	<circle class="st7" cx="219.6" cy="85.6" r="5"/>
	<circle class="st7" cx="155.6" cy="55.6" r="5"/>
	<circle class="st7" cx="150.6" cy="200.6" r="5"/>
	<circle class="st7" cx="45.6" cy="230.6" r="5"/>
	<circle class="st7" cx="222.6" cy="230.6" r="5"/>
	<circle class="st7" cx="229.6" cy="160.6" r="5"/>
	<circle class="st7" cx="84.6" cy="116.6" r="5"/>
	<circle class="st7" cx="186.6" cy="13.6" r="5"/>
	<g class="st6">
		<polygon class="st1" points="57.7,58.8 67.2,50.5 69.6,62.9 		"/>
		<path class="st1" d="M66.8,51.5l2.1,10.6l-10.3-3.5L66.8,51.5 M67.5,49.6L56.7,59l13.5,4.7L67.5,49.6L67.5,49.6z"/>
	</g>
	<rect x="16.1" y="69.1" class="st8" width="7" height="7"/>
	<rect x="233.1" y="119.1" transform="matrix(0.5596 -0.8288 0.8288 0.5596 2.5958 250.0581)" class="st8" width="7" height="7"/>
	<rect x="144.1" y="89.1" transform="matrix(0.866 -0.5 0.5 0.866 -26.5267 86.1963)" class="st8" width="7" height="7"/>
	<rect x="90.1" y="138.1" transform="matrix(0.1766 -0.9843 0.9843 0.1766 -62.3256 208.7017)" class="st8" width="7" height="7"/>
	<rect x="178.1" y="181.1" transform="matrix(0.3249 -0.9457 0.9457 0.3249 -51.9971 296.3329)" class="st8" width="7" height="7"/>
	<rect x="42.1" y="198.1" transform="matrix(0.6033 -0.7975 0.7975 0.6033 -142.6949 116.3173)" class="st8" width="7" height="7"/>
	<rect x="159.1" y="24.1" transform="matrix(0.2175 -0.9761 0.9761 0.2175 100.2782 180.2882)" class="st8" width="7" height="7"/>
	<rect x="61.1" y="93.1" transform="matrix(0.82 -0.5723 0.5723 0.82 -43.6662 54.34)" class="st8" width="7" height="7"/>
	<rect x="195.1" y="220.1" class="st8" width="7" height="7"/>
	<rect x="221.1" y="19.1" class="st8" width="7" height="7"/>
	<rect x="7.1" y="185.1" transform="matrix(0.5 -0.866 0.866 0.5 -158.0399 103.4533)" class="st8" width="7" height="7"/>
	<rect x="67.1" y="26.1" transform="matrix(0.2175 -0.9761 0.9761 0.2175 26.3337 92.0513)" class="st8" width="7" height="7"/>
	<rect x="191.1" y="72.1" class="st8" width="7" height="7"/>
	<circle class="st7" cx="93.6" cy="57.6" r="5"/>
	<rect x="99.1" y="217.1" transform="matrix(0.6033 -0.7975 0.7975 0.6033 -135.2361 169.3113)" class="st8" width="7" height="7"/>
	<circle class="st7" cx="155.6" cy="123.6" r="5"/>
</g>
</svg>
