<?xml version="1.0" encoding="utf-8"?>
<!-- Generator: Adobe Illustrator 22.1.0, SVG Export Plug-In . SVG Version: 6.00 Build 0)  -->
<svg version="1.1" xmlns="http://www.w3.org/2000/svg" xmlns:xlink="http://www.w3.org/1999/xlink" x="0px" y="0px"
	 viewBox="0 0 250 250" style="enable-background:new 0 0 250 250;" xml:space="preserve">
<style type="text/css">
	.st0{fill:#1A181B;}
	.st1{fill:#FFBF00;}
	.st2{fill:none;stroke:#FFFFFF;stroke-miterlimit:10;}
	.st3{fill-rule:evenodd;clip-rule:evenodd;fill:#2274A5;}
	.st4{fill:none;stroke:#2274A5;stroke-miterlimit:10;}
	.st5{fill:none;stroke:#E83F6F;stroke-miterlimit:10;}
	.st6{fill:#32936F;}
	.st7{opacity:0.5;}
</style>
<g id="BG">
	<g>
		<path class="st0" d="M250,249c0,0.6-0.4,1-1,1H1c-0.6,0-1-0.4-1-1V1c0-0.6,0.4-1,1-1h248c0.6,0,1,0.4,1,1V249z"/>
	</g>
</g>
<g id="Layer_1">
	<g>
		<path class="st1" d="M17.7,17.6C17.7,17.6,17.7,17.6,17.7,17.6z M17.7,17.5c0,0-0.1,0-0.1,0L5.8,14.1c-0.1,0-0.1,0-0.1,0
			c0,0,0,0,0.1-0.1l8.9-8.5c0,0,0.1-0.1,0.1-0.1c0,0,0,0.1,0,0.1l3,12C17.7,17.5,17.7,17.5,17.7,17.5z"/>
		<path class="st1" d="M14.4,6.3l2.6,10.5l-10.4-3L14.4,6.3 M14.7,4.8c-0.1,0-0.3,0.1-0.5,0.2l-8.9,8.5c-0.4,0.4-0.3,0.8,0.2,1
			L17.5,18c0.1,0,0.2,0,0.3,0c0.4,0,0.6-0.3,0.5-0.7l-3-12C15.2,5,15,4.8,14.7,4.8L14.7,4.8z"/>
	</g>
	<g>
		<path class="st2" d="M58.8,26c-5.6,2.5-12.2,0-14.7-5.6c-2-4.5,0-9.7,4.5-11.7c3.6-1.6,7.8,0,9.4,3.6c1.3,2.9,0,6.2-2.9,7.5
			c-2.3,1-5,0-6-2.3c-0.8-1.8,0-4,1.8-4.8c1.5-0.7,3.2,0,3.8,1.5c0.5,1.2,0,2.6-1.2,3.1c-0.9,0.4-2,0-2.5-0.9c-0.3-0.8,0-1.6,0.8-2"
			/>
	</g>
	<g>
		<circle class="st3" cx="39.5" cy="50.5" r="5"/>
		<circle class="st4" cx="39.5" cy="50.5" r="5"/>
	</g>
	<g>
		<path class="st5" d="M12.3,37.1c0.2-1.1,0.6-2.5,1.7-3.1c1.6-0.9,3.2,0.6,4.6-0.3c1.4-0.9,0.5-3.2,1.9-4.2c1.5-1,3.2,0.7,4.6-0.3
			c1.4-1,0.5-3.2,1.9-4.2c0.9-0.6,2.1-0.4,2.9-0.1"/>
	</g>
	<g>
		<path class="st1" d="M93.3,26.5C93.3,26.5,93.3,26.5,93.3,26.5l-7.1-10.2c0,0-0.1-0.1-0.1-0.1c0,0,12.4-1.1,12.4-1.1l0.1,0
			c0,0,0,0.1,0,0.1L93.3,26.5C93.4,26.5,93.3,26.5,93.3,26.5z"/>
		<path class="st1" d="M97.8,15.7l-4.6,9.8L87,16.6L97.8,15.7 M98.6,14.7C98.6,14.7,98.5,14.7,98.6,14.7l-12.4,1.1
			c-0.5,0-0.7,0.5-0.4,0.9l7,10.1c0.1,0.2,0.3,0.3,0.5,0.3c0.2,0,0.4-0.1,0.5-0.4l5.2-11.2C99.3,15,99.1,14.7,98.6,14.7L98.6,14.7z"
			/>
	</g>
	<g>
		<path class="st1" d="M196.1,43.6c0,0,0-0.1,0-0.1V31.1c0-0.1,0-0.1,0-0.1c0,0,0,0,0.1,0.1l10.7,6.2c0.1,0,0.1,0.1,0.1,0.1
			c0,0,0,0-0.1,0.1l-10.7,6.2C196.1,43.6,196.1,43.6,196.1,43.6z"/>
		<path class="st1" d="M196.6,31.9l9.4,5.4l-9.4,5.4L196.6,31.9 M196.1,30.5c-0.3,0-0.5,0.2-0.5,0.6v12.3c0,0.4,0.2,0.6,0.5,0.6
			c0.1,0,0.2,0,0.4-0.1l10.7-6.2c0.5-0.3,0.5-0.7,0-1l-10.7-6.2C196.3,30.6,196.2,30.5,196.1,30.5L196.1,30.5z"/>
	</g>
	<g>
		<path class="st1" d="M40.3,103.5C40.3,103.5,40.3,103.5,40.3,103.5l-7.1-10.2c0,0-0.1-0.1-0.1-0.1c0,0,12.4-1.1,12.4-1.1l0.1,0
			c0,0,0,0.1,0,0.1L40.3,103.5C40.4,103.5,40.3,103.5,40.3,103.5z"/>
		<path class="st1" d="M44.8,92.7l-4.6,9.8L34,93.6L44.8,92.7 M45.6,91.7C45.6,91.7,45.5,91.7,45.6,91.7l-12.4,1.1
			c-0.5,0-0.7,0.5-0.4,0.9l7,10.1c0.1,0.2,0.3,0.3,0.5,0.3c0.2,0,0.4-0.1,0.5-0.4l5.2-11.2C46.3,92,46.1,91.7,45.6,91.7L45.6,91.7z"
			/>
	</g>
	<g>
		<path class="st1" d="M105.4,89.4c0,0,0-0.1,0-0.1l-4.2-11.6c0-0.1,0-0.1,0-0.1l0.1,0l12.1,2.2c0.1,0,0.1,0,0.1,0c0,0,0,0-0.1,0.1
			L105.4,89.4C105.5,89.4,105.5,89.4,105.4,89.4z"/>
		<path class="st1" d="M101.9,78.3l10.7,1.9l-7,8.3L101.9,78.3 M101.2,77.1c-0.4,0-0.6,0.3-0.5,0.8l4.2,11.6
			c0.1,0.3,0.3,0.4,0.5,0.4c0.2,0,0.3-0.1,0.5-0.3l7.9-9.4c0.4-0.4,0.2-0.8-0.3-0.9l-12.1-2.2C101.3,77.1,101.3,77.1,101.2,77.1
			L101.2,77.1z"/>
	</g>
	<g>
		<path class="st1" d="M175.3,105.5C175.3,105.5,175.3,105.5,175.3,105.5l-7.1-10.2c0,0-0.1-0.1-0.1-0.1c0,0,12.4-1.1,12.4-1.1
			l0.1,0c0,0,0,0.1,0,0.1L175.3,105.5C175.4,105.5,175.3,105.5,175.3,105.5z"/>
		<path class="st1" d="M179.8,94.7l-4.6,9.8l-6.2-8.9L179.8,94.7 M180.6,93.7C180.6,93.7,180.5,93.7,180.6,93.7l-12.4,1.1
			c-0.5,0-0.7,0.5-0.4,0.9l7,10.1c0.1,0.2,0.3,0.3,0.5,0.3c0.2,0,0.4-0.1,0.5-0.4l5.2-11.2C181.3,94,181.1,93.7,180.6,93.7
			L180.6,93.7z"/>
	</g>
	<g>
		<path class="st1" d="M58.3,169.5C58.3,169.5,58.3,169.5,58.3,169.5l-7.1-10.2c0,0-0.1-0.1-0.1-0.1c0,0,12.4-1.1,12.4-1.1l0.1,0
			c0,0,0,0.1,0,0.1L58.3,169.5C58.4,169.5,58.3,169.5,58.3,169.5z"/>
		<path class="st1" d="M62.8,158.7l-4.6,9.8l-6.2-8.9L62.8,158.7 M63.6,157.7C63.6,157.7,63.5,157.7,63.6,157.7l-12.4,1.1
			c-0.5,0-0.7,0.5-0.4,0.9l7,10.1c0.1,0.2,0.3,0.3,0.5,0.3c0.2,0,0.4-0.1,0.5-0.4l5.2-11.2C64.3,158,64.1,157.7,63.6,157.7
			L63.6,157.7z"/>
	</g>
	<g>
		<path class="st1" d="M116.3,204.5C116.3,204.5,116.3,204.5,116.3,204.5l-7.1-10.2c0,0-0.1-0.1-0.1-0.1c0,0,12.4-1.1,12.4-1.1
			l0.1,0c0,0,0,0.1,0,0.1L116.3,204.5C116.4,204.5,116.3,204.5,116.3,204.5z"/>
		<path class="st1" d="M120.8,193.7l-4.6,9.8l-6.2-8.9L120.8,193.7 M121.6,192.7C121.6,192.7,121.5,192.7,121.6,192.7l-12.4,1.1
			c-0.5,0-0.7,0.5-0.4,0.9l7,10.1c0.1,0.2,0.3,0.3,0.5,0.3c0.2,0,0.4-0.1,0.5-0.4l5.2-11.2C122.3,193,122.1,192.7,121.6,192.7
			L121.6,192.7z"/>
	</g>
	<g>
		<path class="st1" d="M129.3,141.5C129.3,141.5,129.3,141.5,129.3,141.5l-7.1-10.2c0,0-0.1-0.1-0.1-0.1c0,0,12.4-1.1,12.4-1.1
			l0.1,0c0,0,0,0.1,0,0.1L129.3,141.5C129.4,141.5,129.3,141.5,129.3,141.5z"/>
		<path class="st1" d="M133.8,130.7l-4.6,9.8l-6.2-8.9L133.8,130.7 M134.6,129.7C134.6,129.7,134.5,129.7,134.6,129.7l-12.4,1.1
			c-0.5,0-0.7,0.5-0.4,0.9l7,10.1c0.1,0.2,0.3,0.3,0.5,0.3c0.2,0,0.4-0.1,0.5-0.4l5.2-11.2C135.3,130,135.1,129.7,134.6,129.7
			L134.6,129.7z"/>
	</g>
	<g>
		<path class="st1" d="M233.1,228.1c0,0,0-0.1,0-0.1l-1.9-12.2c0-0.1,0-0.1,0-0.1c0,0,0,0,0.1,0.1l11.5,4.4c0.1,0,0.1,0,0.1,0.1
			c0,0,0,0-0.1,0.1L233.1,228.1C233.2,228,233.1,228.1,233.1,228.1z"/>
		<path class="st1" d="M231.8,216.4l10.1,3.9l-8.4,6.8L231.8,216.4 M231.1,215.2c-0.3,0-0.5,0.3-0.5,0.7l1.9,12.2
			c0.1,0.3,0.2,0.5,0.5,0.5c0.1,0,0.3-0.1,0.4-0.2l9.6-7.7c0.4-0.3,0.4-0.8-0.2-1l-11.5-4.4C231.3,215.2,231.2,215.2,231.1,215.2
			L231.1,215.2z"/>
	</g>
	<g>
		<path class="st1" d="M190.3,160.5C190.3,160.5,190.3,160.5,190.3,160.5l-7.1-10.2c0,0-0.1-0.1-0.1-0.1c0,0,12.4-1.1,12.4-1.1
			l0.1,0c0,0,0,0.1,0,0.1L190.3,160.5C190.4,160.5,190.3,160.5,190.3,160.5z"/>
		<path class="st1" d="M194.8,149.7l-4.6,9.8l-6.2-8.9L194.8,149.7 M195.6,148.7C195.6,148.7,195.5,148.7,195.6,148.7l-12.4,1.1
			c-0.5,0-0.7,0.5-0.4,0.9l7,10.1c0.1,0.2,0.3,0.3,0.5,0.3c0.2,0,0.4-0.1,0.5-0.4l5.2-11.2C196.3,149,196.1,148.7,195.6,148.7
			L195.6,148.7z"/>
	</g>
	<g>
		<path class="st1" d="M141.3,55.6c0,0-0.1,0-0.1,0l-10.7-6.2c-0.1,0-0.1-0.1-0.1-0.1c0,0,0,0,0.1-0.1l10.7-6.2c0.1,0,0.1,0,0.1,0
			c0,0,0,0.1,0,0.1v12.3C141.3,55.5,141.3,55.5,141.3,55.6z"/>
		<path class="st1" d="M140.8,43.9l0,10.8l-9.4-5.4L140.8,43.9 M141.4,42.5c-0.1,0-0.2,0-0.4,0.1l-10.7,6.2c-0.5,0.3-0.5,0.7,0,1
			L141,56c0.1,0.1,0.3,0.1,0.4,0.1c0.3,0,0.5-0.2,0.5-0.6V43.1C141.8,42.8,141.6,42.5,141.4,42.5L141.4,42.5z"/>
	</g>
	<g>
		<path class="st1" d="M18.7,232.6C18.7,232.6,18.7,232.6,18.7,232.6z M18.7,232.5c0,0-0.1,0-0.1,0l-11.8-3.4c-0.1,0-0.1,0-0.1,0
			c0,0,0,0,0.1-0.1l8.9-8.5c0,0,0.1-0.1,0.1-0.1c0,0,0,0.1,0,0.1l3,12C18.7,232.5,18.7,232.5,18.7,232.5z"/>
		<path class="st1" d="M15.4,221.3l2.6,10.5l-10.4-3L15.4,221.3 M15.7,219.8c-0.1,0-0.3,0.1-0.5,0.2l-8.9,8.5
			c-0.4,0.4-0.3,0.8,0.2,1l11.8,3.4c0.1,0,0.2,0,0.3,0c0.4,0,0.6-0.3,0.5-0.7l-3-12C16.2,220,16,219.8,15.7,219.8L15.7,219.8z"/>
	</g>
	<g>
		<path class="st1" d="M74.6,222.3C74.6,222.3,74.5,222.3,74.6,222.3l-8.8-8.8c0,0-0.1-0.1-0.1-0.1c0,0,0,0,0,0c0,0,0.1,0,0.1,0
			l11.9-3.2c0.1,0,0.1,0,0.1,0c0,0,0,0,0,0c0,0,0,0,0,0.1l-3.2,11.9C74.6,222.2,74.6,222.3,74.6,222.3z"/>
		<path class="st1" d="M77.1,210.9l-2.8,10.5l-7.7-7.7L77.1,210.9 M77.8,209.7c-0.1,0-0.2,0-0.2,0l-11.9,3.2c-0.5,0.1-0.6,0.6-0.3,1
			l8.7,8.7c0.2,0.2,0.3,0.2,0.5,0.2c0.2,0,0.4-0.2,0.5-0.5l3.2-11.9C78.4,210,78.2,209.7,77.8,209.7L77.8,209.7z"/>
	</g>
	<g>
		<path class="st1" d="M167.1,235.6c0,0,0-0.1,0-0.1v-12.3c0-0.1,0-0.1,0-0.1c0,0,0,0,0.1,0.1l10.7,6.2c0.1,0,0.1,0.1,0.1,0.1
			c0,0,0,0-0.1,0.1l-10.7,6.2C167.1,235.6,167.1,235.6,167.1,235.6z"/>
		<path class="st1" d="M167.6,223.9l9.4,5.4l-9.4,5.4L167.6,223.9 M167.1,222.5c-0.3,0-0.5,0.2-0.5,0.6v12.3c0,0.4,0.2,0.6,0.5,0.6
			c0.1,0,0.2,0,0.4-0.1l10.7-6.2c0.5-0.3,0.5-0.7,0-1l-10.7-6.2C167.3,222.6,167.2,222.5,167.1,222.5L167.1,222.5z"/>
	</g>
	<g>
		<path class="st5" d="M23.6,170.7c1.1-0.2,2.5-0.2,3.5,0.6c1.4,1.2,0.4,3.2,1.8,4.2c1.4,1,3.1-0.6,4.6,0.4c1.4,1,0.3,3.2,1.8,4.2
			c1.4,1,3.2-0.6,4.6,0.4c0.9,0.6,1,1.8,1.1,2.7"/>
	</g>
	<g>
		<path class="st5" d="M182,203.5c0.5-1,1.3-2.2,2.5-2.5c1.8-0.4,2.9,1.5,4.5,1c1.6-0.5,1.3-2.9,3-3.5c1.7-0.6,2.9,1.6,4.5,1
			c1.6-0.6,1.4-2.9,3-3.5c1-0.3,2.1,0.2,2.9,0.7"/>
	</g>
	<g>
		<path class="st5" d="M215.3,108.1c0.2-1.1,0.6-2.5,1.7-3.1c1.6-0.9,3.2,0.6,4.6-0.3c1.4-0.9,0.5-3.2,1.9-4.2
			c1.5-1,3.2,0.7,4.6-0.3c1.4-1,0.5-3.2,1.9-4.2c0.9-0.6,2.1-0.4,2.9-0.1"/>
	</g>
	<g>
		<path class="st5" d="M118.3,94.1c0.2-1.1,0.6-2.5,1.7-3.1c1.6-0.9,3.2,0.6,4.6-0.3c1.4-0.9,0.5-3.2,1.9-4.2c1.5-1,3.2,0.7,4.6-0.3
			c1.4-1,0.5-3.2,1.9-4.2c0.9-0.6,2.1-0.4,2.9-0.1"/>
	</g>
	<g>
		<path class="st5" d="M108.1,180.8c0.2-1.1,0.7-2.4,1.8-3c1.6-0.8,3.2,0.7,4.6-0.1c1.5-0.9,0.6-3.2,2.1-4.1
			c1.5-0.9,3.1,0.8,4.6-0.1c1.4-0.9,0.6-3.2,2.1-4.1c0.9-0.6,2.1-0.3,2.9,0"/>
	</g>
	<g>
		<path class="st5" d="M73.4,247.4c0-1.1,0.2-2.5,1.2-3.3c1.4-1.1,3.3,0.1,4.5-1c1.3-1.2,0-3.2,1.2-4.4c1.3-1.2,3.3,0.2,4.5-1
			c1.2-1.2,0-3.2,1.2-4.4c0.8-0.7,2-0.7,2.9-0.6"/>
	</g>
	<g>
		<path class="st5" d="M140.3,18.1c0.2-1.1,0.6-2.5,1.7-3.1c1.6-0.9,3.2,0.6,4.6-0.3c1.4-0.9,0.5-3.2,1.9-4.2c1.5-1,3.2,0.7,4.6-0.3
			c1.4-1,0.5-3.2,1.9-4.2c0.9-0.6,2.1-0.4,2.9-0.1"/>
	</g>
	<g>
		<path class="st5" d="M211.5,140.5c1-0.4,2.4-0.7,3.5-0.1c1.6,0.9,1.1,3.1,2.5,3.8c1.5,0.8,3-1.2,4.6-0.4c1.6,0.8,1,3.1,2.5,3.8
			c1.5,0.7,3-1.1,4.6-0.4c1,0.4,1.4,1.6,1.6,2.5"/>
	</g>
	<g>
		<circle class="st3" cx="24.5" cy="115.5" r="5"/>
		<circle class="st4" cx="24.5" cy="115.5" r="5"/>
	</g>
	<g>
		<circle class="st3" cx="218.5" cy="84.5" r="5"/>
		<circle class="st4" cx="218.5" cy="84.5" r="5"/>
	</g>
	<g>
		<circle class="st3" cx="154.5" cy="54.5" r="5"/>
		<circle class="st4" cx="154.5" cy="54.5" r="5"/>
	</g>
	<g>
		<circle class="st3" cx="149.5" cy="199.5" r="5"/>
		<circle class="st4" cx="149.5" cy="199.5" r="5"/>
	</g>
	<g>
		<circle class="st3" cx="44.5" cy="229.5" r="5"/>
		<circle class="st4" cx="44.5" cy="229.5" r="5"/>
	</g>
	<g>
		<circle class="st3" cx="221.5" cy="229.5" r="5"/>
		<circle class="st4" cx="221.5" cy="229.5" r="5"/>
	</g>
	<g>
		<circle class="st3" cx="228.5" cy="159.5" r="5"/>
		<circle class="st4" cx="228.5" cy="159.5" r="5"/>
	</g>
	<g>
		<circle class="st3" cx="83.5" cy="115.5" r="5"/>
		<circle class="st4" cx="83.5" cy="115.5" r="5"/>
	</g>
	<g>
		<circle class="st3" cx="185.5" cy="12.5" r="5"/>
		<circle class="st4" cx="185.5" cy="12.5" r="5"/>
	</g>
	<g>
		<path class="st2" d="M173.6,129.2c-0.6-6.1,3.8-11.6,9.9-12.2c4.9-0.5,9.2,3,9.8,7.9c0.4,3.9-2.4,7.4-6.3,7.8
			c-3.1,0.3-5.9-1.9-6.2-5.1c-0.3-2.5,1.6-4.7,4.1-5c2-0.2,3.8,1.2,4,3.2c0.2,1.6-1,3-2.6,3.2c-1.3,0.1-2.4-0.8-2.6-2.1
			c-0.1-1,0.6-1.9,1.7-2c0.8-0.1,1.6,0.5,1.6,1.3"/>
	</g>
	<g>
		<path class="st2" d="M83.3,182c-5.7-2.3-8.5-8.7-6.2-14.4c1.8-4.6,7-6.8,11.5-5c3.6,1.5,5.4,5.6,4,9.2c-1.2,2.9-4.5,4.3-7.4,3.2
			c-2.3-0.9-3.5-3.6-2.5-5.9c0.7-1.9,2.9-2.8,4.7-2c1.5,0.6,2.2,2.3,1.6,3.8c-0.5,1.2-1.8,1.8-3,1.3c-1-0.4-1.4-1.5-1-2.4
			c0.3-0.8,1.2-1.1,1.9-0.8"/>
	</g>
	<g>
		<path class="st2" d="M233.8,63c-5.6,2.5-12.2,0-14.7-5.6c-2-4.5,0-9.7,4.5-11.7c3.6-1.6,7.8,0,9.4,3.6c1.3,2.9,0,6.2-2.9,7.5
			c-2.3,1-5,0-6-2.3c-0.8-1.8,0-4,1.8-4.8c1.5-0.7,3.2,0,3.8,1.5c0.5,1.2,0,2.6-1.2,3.1c-0.9,0.4-2,0-2.5-0.9c-0.3-0.8,0-1.6,0.8-2"
			/>
	</g>
	<g>
		<path class="st2" d="M119.8,47c-5.6,2.5-12.2,0-14.7-5.6c-2-4.5,0-9.7,4.5-11.7c3.6-1.6,7.8,0,9.4,3.6c1.3,2.9,0,6.2-2.9,7.5
			c-2.3,1-5,0-6-2.3c-0.8-1.8,0-4,1.8-4.8c1.5-0.7,3.2,0,3.8,1.5c0.5,1.2,0,2.6-1.2,3.1c-0.9,0.4-2,0-2.5-0.9c-0.3-0.8,0-1.6,0.8-2"
			/>
	</g>
	<g>
		<path class="st2" d="M62.4,129.9c-1.1,6-6.8,10.1-12.9,9c-4.8-0.8-8.1-5.5-7.2-10.3c0.7-3.9,4.4-6.5,8.2-5.8
			c3.1,0.5,5.2,3.5,4.6,6.6c-0.4,2.5-2.8,4.1-5.3,3.7c-2-0.3-3.3-2.2-3-4.2c0.3-1.6,1.8-2.6,3.4-2.4c1.3,0.2,2.1,1.4,1.9,2.7
			c-0.2,1-1.1,1.7-2.2,1.5c-0.8-0.1-1.4-0.9-1.2-1.7"/>
	</g>
	<g>
		<path class="st2" d="M138.8,240c-5.6,2.5-12.2,0-14.7-5.6c-2-4.5,0-9.7,4.5-11.7c3.6-1.6,7.8,0,9.4,3.6c1.3,2.9,0,6.2-2.9,7.5
			c-2.3,1-5,0-6-2.3c-0.8-1.8,0-4,1.8-4.8c1.5-0.7,3.2,0,3.8,1.5c0.5,1.2,0,2.6-1.2,3.1c-0.9,0.4-2,0-2.5-0.9c-0.3-0.8,0-1.6,0.8-2"
			/>
	</g>
	<g>
		<path class="st2" d="M168.4,167.2c-2.8,5.5-9.4,7.7-14.9,4.9c-4.4-2.2-6.2-7.5-3.9-11.9c1.8-3.5,6-4.9,9.5-3.2
			c2.8,1.4,3.9,4.8,2.5,7.6c-1.1,2.2-3.9,3.2-6.1,2c-1.8-0.9-2.5-3.1-1.6-4.9c0.7-1.4,2.5-2,3.9-1.3c1.1,0.6,1.6,2,1,3.1
			c-0.5,0.9-1.6,1.3-2.5,0.8c-0.7-0.4-1-1.3-0.7-2"/>
	</g>
	<g>
		<path class="st2" d="M124.9,111.7c0.2,6.1-4.7,11.2-10.8,11.4c-4.9,0.1-9-3.8-9.1-8.7c-0.1-3.9,3-7.2,6.9-7.3
			c3.1-0.1,5.8,2.4,5.8,5.5c0.1,2.5-1.9,4.6-4.4,4.7c-2,0.1-3.7-1.5-3.7-3.5c0-1.6,1.2-2.9,2.8-3c1.3,0,2.4,1,2.4,2.3
			c0,1-0.8,1.9-1.8,1.9c-0.8,0-1.5-0.6-1.5-1.5"/>
	</g>
	<g>
		<path class="st2" d="M4,146.9c4.5-4.1,11.6-3.8,15.7,0.8c3.3,3.6,3,9.3-0.6,12.6c-2.9,2.6-7.4,2.4-10-0.5c-2.1-2.3-1.9-5.9,0.4-8
			c1.9-1.7,4.7-1.5,6.4,0.3c1.3,1.5,1.2,3.8-0.3,5.1c-1.2,1.1-3,1-4.1-0.2c-0.9-1-0.8-2.4,0.2-3.3c0.8-0.7,1.9-0.6,2.6,0.1
			c0.6,0.6,0.5,1.6-0.1,2.1"/>
	</g>
	<g>
		<path class="st1" d="M68.5,61.8c0,0-0.1,0-0.1,0l-11.6-4c-0.1,0-0.1,0-0.1-0.1c0,0,0,0,0.1-0.1l9.3-8.1c0,0,0.1-0.1,0.1-0.1
			c0,0,0,0.1,0,0.1l2.4,12.1C68.5,61.7,68.5,61.7,68.5,61.8z"/>
		<path class="st1" d="M65.7,50.4L67.8,61l-10.3-3.5L65.7,50.4 M66.1,48.9c-0.1,0-0.3,0.1-0.4,0.2l-9.3,8.1c-0.4,0.4-0.3,0.8,0.2,1
			l11.6,4c0.1,0,0.2,0.1,0.3,0.1c0.4,0,0.6-0.3,0.5-0.7l-2.4-12.1C66.5,49.1,66.3,48.9,66.1,48.9L66.1,48.9z"/>
	</g>
	<g>
		<path class="st5" d="M175.2,49.5c0.9,0.7,1.8,1.7,1.8,3c0,1.8-2.1,2.5-2,4.1c0.1,1.7,2.5,2,2.7,3.7c0.1,1.8-2.2,2.4-2,4.1
			c0.2,1.7,2.5,2,2.7,3.7c0.1,1.1-0.7,2-1.4,2.6"/>
	</g>
	<g>
		<path class="st6" d="M22,74c0,0.6-0.5,1-1,1h-5c-0.6,0-1-0.4-1-1v-5c0-0.6,0.4-1,1-1h5c0.5,0,1,0.4,1,1V74z"/>
	</g>
	<g>
		<path class="st6" d="M239.5,120c0.5,0.3,0.6,0.9,0.3,1.4l-2.8,4.1c-0.3,0.5-0.9,0.6-1.4,0.3l-4.1-2.8c-0.5-0.3-0.6-0.9-0.3-1.4
			l2.8-4.1c0.3-0.5,0.9-0.6,1.4-0.3L239.5,120z"/>
	</g>
	<g>
		<path class="st6" d="M146.1,95.8c-0.5,0.3-1.1,0.1-1.4-0.4l-2.5-4.3c-0.3-0.5-0.1-1.1,0.4-1.4l4.3-2.5c0.5-0.3,1.1-0.1,1.4,0.4
			l2.5,4.3c0.3,0.5,0.1,1.1-0.4,1.4L146.1,95.8z"/>
	</g>
	<g>
		<path class="st6" d="M95.5,143.6c-0.1,0.5-0.6,0.9-1.2,0.8l-4.9-0.9c-0.5-0.1-0.9-0.6-0.8-1.2l0.9-4.9c0.1-0.5,0.6-0.9,1.2-0.8
			l4.9,0.9c0.5,0.1,0.9,0.6,0.8,1.2L95.5,143.6z"/>
	</g>
	<g>
		<path class="st6" d="M183,187c-0.2,0.5-0.8,0.8-1.3,0.6L177,186c-0.5-0.2-0.8-0.8-0.6-1.3l1.6-4.7c0.2-0.5,0.8-0.8,1.3-0.6
			l4.7,1.6c0.5,0.2,0.8,0.8,0.6,1.3L183,187z"/>
	</g>
	<g>
		<path class="st6" d="M48.6,199.2c0.4,0.3,0.5,1,0.2,1.4l-3,4c-0.3,0.4-1,0.5-1.4,0.2l-4-3c-0.4-0.3-0.5-1-0.2-1.4l3-4
			c0.3-0.4,1-0.5,1.4-0.2L48.6,199.2z"/>
	</g>
	<g>
		<path class="st6" d="M164.4,29.7c-0.1,0.5-0.7,0.9-1.2,0.8l-4.9-1.1c-0.5-0.1-0.9-0.7-0.8-1.2l1.1-4.9c0.1-0.5,0.7-0.9,1.2-0.8
			l4.9,1.1c0.5,0.1,0.9,0.7,0.8,1.2L164.4,29.7z"/>
	</g>
	<g>
		<path class="st6" d="M67.8,95.5c0.3,0.5,0.2,1.1-0.2,1.4l-4.1,2.9c-0.5,0.3-1.1,0.2-1.4-0.2l-2.9-4.1c-0.3-0.5-0.2-1.1,0.2-1.4
			l4.1-2.9c0.5-0.3,1.1-0.2,1.4,0.2L67.8,95.5z"/>
	</g>
	<g>
		<path class="st6" d="M201,225c0,0.6-0.4,1-1,1h-5c-0.6,0-1-0.4-1-1v-5c0-0.6,0.4-1,1-1h5c0.6,0,1,0.4,1,1V225z"/>
	</g>
	<g>
		<path class="st6" d="M227,24c0,0.5-0.4,1-1,1h-5c-0.6,0-1-0.5-1-1v-5c0-0.5,0.4-1,1-1h5c0.6,0,1,0.5,1,1V24z"/>
	</g>
	<g>
		<path class="st6" d="M11.3,191.4c-0.3,0.5-0.9,0.6-1.4,0.4l-4.3-2.5c-0.5-0.3-0.6-0.9-0.4-1.4l2.5-4.3c0.3-0.5,0.9-0.6,1.4-0.4
			l4.3,2.5c0.5,0.3,0.6,0.9,0.4,1.4L11.3,191.4z"/>
	</g>
	<g>
		<path class="st6" d="M72.4,31.7c-0.1,0.5-0.7,0.9-1.2,0.8l-4.9-1.1c-0.5-0.1-0.9-0.7-0.8-1.2l1.1-4.9c0.1-0.5,0.7-0.9,1.2-0.8
			l4.9,1.1c0.5,0.1,0.9,0.7,0.8,1.2L72.4,31.7z"/>
	</g>
	<g>
		<path class="st2" d="M236.3,174.5c5,3.5,6.3,10.4,2.7,15.5c-2.8,4-8.4,5-12.4,2.2c-3.2-2.3-4-6.7-1.7-9.9c1.8-2.6,5.3-3.2,7.9-1.4
			c2.1,1.4,2.6,4.3,1.1,6.3c-1.2,1.6-3.4,2-5.1,0.9c-1.3-0.9-1.6-2.7-0.7-4.1c0.7-1.1,2.2-1.3,3.2-0.6c0.8,0.6,1,1.8,0.5,2.6
			c-0.5,0.7-1.4,0.8-2.1,0.4"/>
	</g>
	<g>
		<path class="st6" d="M197,77c0,0.6-0.4,1-1,1h-5c-0.6,0-1-0.4-1-1v-5c0-0.6,0.4-1,1-1h5c0.6,0,1,0.4,1,1V77z"/>
	</g>
	<g>
		<path class="st5" d="M8.2,104.2c-0.1-1.1-0.1-2.5,0.9-3.4c1.3-1.3,3.3-0.2,4.3-1.4c1.1-1.3-0.4-3.2,0.8-4.5
			c1.1-1.3,3.3-0.1,4.3-1.4c1.1-1.3-0.3-3.2,0.8-4.5c0.7-0.8,1.9-0.9,2.8-0.9"/>
	</g>
	<g>
		<circle class="st3" cx="92.5" cy="56.5" r="5"/>
		<circle class="st4" cx="92.5" cy="56.5" r="5"/>
	</g>
	<g>
		<path class="st6" d="M105.6,218.2c0.4,0.3,0.5,1,0.2,1.4l-3,4c-0.3,0.4-1,0.5-1.4,0.2l-4-3c-0.4-0.3-0.5-1-0.2-1.4l3-4
			c0.3-0.4,1-0.5,1.4-0.2L105.6,218.2z"/>
	</g>
	<g>
		<path class="st2" d="M86.8,88c-5.6,2.5-12.2,0-14.7-5.6c-2-4.5,0-9.7,4.5-11.7c3.6-1.6,7.8,0,9.4,3.6c1.3,2.9,0,6.2-2.9,7.5
			c-2.3,1-5,0-6-2.3c-0.8-1.8,0-4,1.8-4.8c1.5-0.7,3.2,0,3.8,1.5c0.5,1.2,0,2.6-1.2,3.1c-0.9,0.4-2,0-2.5-0.9c-0.3-0.8,0-1.6,0.8-2"
			/>
	</g>
	<g>
		<circle class="st3" cx="154.5" cy="122.5" r="5"/>
		<circle class="st4" cx="154.5" cy="122.5" r="5"/>
	</g>
</g>
<g id="Layer_3">
	<g class="st7">
		<path class="st1" d="M18.7,18.6C18.7,18.6,18.7,18.6,18.7,18.6z M18.7,18.5c0,0-0.1,0-0.1,0L6.8,15.1c-0.1,0-0.1,0-0.1,0
			c0,0,0,0,0.1-0.1l8.9-8.5c0,0,0.1-0.1,0.1-0.1c0,0,0,0.1,0,0.1l3,12C18.7,18.5,18.7,18.5,18.7,18.5z"/>
		<path class="st1" d="M15.4,7.3l2.6,10.5l-10.4-3L15.4,7.3 M15.7,5.8c-0.1,0-0.3,0.1-0.5,0.2l-8.9,8.5c-0.4,0.4-0.3,0.8,0.2,1
			L18.5,19c0.1,0,0.2,0,0.3,0c0.4,0,0.6-0.3,0.5-0.7l-3-12C16.2,6,16,5.8,15.7,5.8L15.7,5.8z"/>
	</g>
	<g class="st7">
		<circle class="st3" cx="40.5" cy="51.5" r="5"/>
		<circle class="st4" cx="40.5" cy="51.5" r="5"/>
	</g>
	<g class="st7">
		<path class="st1" d="M94.3,27.5C94.3,27.5,94.3,27.5,94.3,27.5l-7.1-10.2c0,0-0.1-0.1-0.1-0.1c0,0,12.4-1.1,12.4-1.1l0.1,0
			c0,0,0,0.1,0,0.1L94.3,27.5C94.4,27.5,94.3,27.5,94.3,27.5z"/>
		<path class="st1" d="M98.8,16.7l-4.6,9.8L88,17.6L98.8,16.7 M99.6,15.7C99.6,15.7,99.5,15.7,99.6,15.7l-12.4,1.1
			c-0.5,0-0.7,0.5-0.4,0.9l7,10.1c0.1,0.2,0.3,0.3,0.5,0.3c0.2,0,0.4-0.1,0.5-0.4l5.2-11.2C100.3,16,100.1,15.7,99.6,15.7L99.6,15.7
			z"/>
	</g>
	<g class="st7">
		<path class="st1" d="M197.1,44.6c0,0,0-0.1,0-0.1V32.1c0-0.1,0-0.1,0-0.1c0,0,0,0,0.1,0.1l10.7,6.2c0.1,0,0.1,0.1,0.1,0.1
			c0,0,0,0-0.1,0.1l-10.7,6.2C197.1,44.6,197.1,44.6,197.1,44.6z"/>
		<path class="st1" d="M197.6,32.9l9.4,5.4l-9.4,5.4L197.6,32.9 M197.1,31.5c-0.3,0-0.5,0.2-0.5,0.6v12.3c0,0.4,0.2,0.6,0.5,0.6
			c0.1,0,0.2,0,0.4-0.1l10.7-6.2c0.5-0.3,0.5-0.7,0-1l-10.7-6.2C197.3,31.6,197.2,31.5,197.1,31.5L197.1,31.5z"/>
	</g>
	<g class="st7">
		<path class="st1" d="M41.3,104.5C41.3,104.5,41.3,104.5,41.3,104.5l-7.1-10.2c0,0-0.1-0.1-0.1-0.1c0,0,12.4-1.1,12.4-1.1l0.1,0
			c0,0,0,0.1,0,0.1L41.3,104.5C41.4,104.5,41.3,104.5,41.3,104.5z"/>
		<path class="st1" d="M45.8,93.7l-4.6,9.8L35,94.6L45.8,93.7 M46.6,92.7C46.6,92.7,46.5,92.7,46.6,92.7l-12.4,1.1
			c-0.5,0-0.7,0.5-0.4,0.9l7,10.1c0.1,0.2,0.3,0.3,0.5,0.3c0.2,0,0.4-0.1,0.5-0.4l5.2-11.2C47.3,93,47.1,92.7,46.6,92.7L46.6,92.7z"
			/>
	</g>
	<g class="st7">
		<path class="st1" d="M106.4,90.4c0,0,0-0.1,0-0.1l-4.2-11.6c0-0.1,0-0.1,0-0.1l0.1,0l12.1,2.2c0.1,0,0.1,0,0.1,0c0,0,0,0-0.1,0.1
			L106.4,90.4C106.5,90.4,106.5,90.4,106.4,90.4z"/>
		<path class="st1" d="M102.9,79.3l10.7,1.9l-7,8.3L102.9,79.3 M102.2,78.1c-0.4,0-0.6,0.3-0.5,0.8l4.2,11.6
			c0.1,0.3,0.3,0.4,0.5,0.4c0.2,0,0.3-0.1,0.5-0.3l7.9-9.4c0.4-0.4,0.2-0.8-0.3-0.9l-12.1-2.2C102.3,78.1,102.3,78.1,102.2,78.1
			L102.2,78.1z"/>
	</g>
	<g class="st7">
		<path class="st1" d="M176.3,106.5C176.3,106.5,176.3,106.5,176.3,106.5l-7.1-10.2c0,0-0.1-0.1-0.1-0.1c0,0,12.4-1.1,12.4-1.1
			l0.1,0c0,0,0,0.1,0,0.1L176.3,106.5C176.4,106.5,176.3,106.5,176.3,106.5z"/>
		<path class="st1" d="M180.8,95.7l-4.6,9.8l-6.2-8.9L180.8,95.7 M181.6,94.7C181.6,94.7,181.5,94.7,181.6,94.7l-12.4,1.1
			c-0.5,0-0.7,0.5-0.4,0.9l7,10.1c0.1,0.2,0.3,0.3,0.5,0.3c0.2,0,0.4-0.1,0.5-0.4l5.2-11.2C182.3,95,182.1,94.7,181.6,94.7
			L181.6,94.7z"/>
	</g>
	<g class="st7">
		<path class="st1" d="M59.3,170.5C59.3,170.5,59.3,170.5,59.3,170.5l-7.1-10.2c0,0-0.1-0.1-0.1-0.1c0,0,12.4-1.1,12.4-1.1l0.1,0
			c0,0,0,0.1,0,0.1L59.3,170.5C59.4,170.5,59.3,170.5,59.3,170.5z"/>
		<path class="st1" d="M63.8,159.7l-4.6,9.8l-6.2-8.9L63.8,159.7 M64.6,158.7C64.6,158.7,64.5,158.7,64.6,158.7l-12.4,1.1
			c-0.5,0-0.7,0.5-0.4,0.9l7,10.1c0.1,0.2,0.3,0.3,0.5,0.3c0.2,0,0.4-0.1,0.5-0.4l5.2-11.2C65.3,159,65.1,158.7,64.6,158.7
			L64.6,158.7z"/>
	</g>
	<g class="st7">
		<path class="st1" d="M117.3,205.5C117.3,205.5,117.3,205.5,117.3,205.5l-7.1-10.2c0,0-0.1-0.1-0.1-0.1c0,0,12.4-1.1,12.4-1.1
			l0.1,0c0,0,0,0.1,0,0.1L117.3,205.5C117.4,205.5,117.3,205.5,117.3,205.5z"/>
		<path class="st1" d="M121.8,194.7l-4.6,9.8l-6.2-8.9L121.8,194.7 M122.6,193.7C122.6,193.7,122.5,193.7,122.6,193.7l-12.4,1.1
			c-0.5,0-0.7,0.5-0.4,0.9l7,10.1c0.1,0.2,0.3,0.3,0.5,0.3c0.2,0,0.4-0.1,0.5-0.4l5.2-11.2C123.3,194,123.1,193.7,122.6,193.7
			L122.6,193.7z"/>
	</g>
	<g class="st7">
		<path class="st1" d="M130.3,142.5C130.3,142.5,130.3,142.5,130.3,142.5l-7.1-10.2c0,0-0.1-0.1-0.1-0.1c0,0,12.4-1.1,12.4-1.1
			l0.1,0c0,0,0,0.1,0,0.1L130.3,142.5C130.4,142.5,130.3,142.5,130.3,142.5z"/>
		<path class="st1" d="M134.8,131.7l-4.6,9.8l-6.2-8.9L134.8,131.7 M135.6,130.7C135.6,130.7,135.5,130.7,135.6,130.7l-12.4,1.1
			c-0.5,0-0.7,0.5-0.4,0.9l7,10.1c0.1,0.2,0.3,0.3,0.5,0.3c0.2,0,0.4-0.1,0.5-0.4l5.2-11.2C136.3,131,136.1,130.7,135.6,130.7
			L135.6,130.7z"/>
	</g>
	<g class="st7">
		<path class="st1" d="M234.1,229.1c0,0,0-0.1,0-0.1l-1.9-12.2c0-0.1,0-0.1,0-0.1c0,0,0,0,0.1,0.1l11.5,4.4c0.1,0,0.1,0,0.1,0.1
			c0,0,0,0-0.1,0.1L234.1,229.1C234.2,229,234.1,229.1,234.1,229.1z"/>
		<path class="st1" d="M232.8,217.4l10.1,3.9l-8.4,6.8L232.8,217.4 M232.1,216.2c-0.3,0-0.5,0.3-0.5,0.7l1.9,12.2
			c0.1,0.3,0.2,0.5,0.5,0.5c0.1,0,0.3-0.1,0.4-0.2l9.6-7.7c0.4-0.3,0.4-0.8-0.2-1l-11.5-4.4C232.3,216.2,232.2,216.2,232.1,216.2
			L232.1,216.2z"/>
	</g>
	<g class="st7">
		<path class="st1" d="M191.3,161.5C191.3,161.5,191.3,161.5,191.3,161.5l-7.1-10.2c0,0-0.1-0.1-0.1-0.1c0,0,12.4-1.1,12.4-1.1
			l0.1,0c0,0,0,0.1,0,0.1L191.3,161.5C191.4,161.5,191.3,161.5,191.3,161.5z"/>
		<path class="st1" d="M195.8,150.7l-4.6,9.8l-6.2-8.9L195.8,150.7 M196.6,149.7C196.6,149.7,196.5,149.7,196.6,149.7l-12.4,1.1
			c-0.5,0-0.7,0.5-0.4,0.9l7,10.1c0.1,0.2,0.3,0.3,0.5,0.3c0.2,0,0.4-0.1,0.5-0.4l5.2-11.2C197.3,150,197.1,149.7,196.6,149.7
			L196.6,149.7z"/>
	</g>
	<g class="st7">
		<path class="st1" d="M142.3,56.6c0,0-0.1,0-0.1,0l-10.7-6.2c-0.1,0-0.1-0.1-0.1-0.1c0,0,0,0,0.1-0.1l10.7-6.2c0.1,0,0.1,0,0.1,0
			c0,0,0,0.1,0,0.1v12.3C142.3,56.5,142.3,56.5,142.3,56.6z"/>
		<path class="st1" d="M141.8,44.9l0,10.8l-9.4-5.4L141.8,44.9 M142.4,43.5c-0.1,0-0.2,0-0.4,0.1l-10.7,6.2c-0.5,0.3-0.5,0.7,0,1
			L142,57c0.1,0.1,0.3,0.1,0.4,0.1c0.3,0,0.5-0.2,0.5-0.6V44.1C142.8,43.8,142.6,43.5,142.4,43.5L142.4,43.5z"/>
	</g>
	<g class="st7">
		<path class="st1" d="M19.7,233.6C19.7,233.6,19.7,233.6,19.7,233.6z M19.7,233.5c0,0-0.1,0-0.1,0l-11.8-3.4c-0.1,0-0.1,0-0.1,0
			c0,0,0,0,0.1-0.1l8.9-8.5c0,0,0.1-0.1,0.1-0.1c0,0,0,0.1,0,0.1l3,12C19.7,233.5,19.7,233.5,19.7,233.5z"/>
		<path class="st1" d="M16.4,222.3l2.6,10.5l-10.4-3L16.4,222.3 M16.7,220.8c-0.1,0-0.3,0.1-0.5,0.2l-8.9,8.5
			c-0.4,0.4-0.3,0.8,0.2,1l11.8,3.4c0.1,0,0.2,0,0.3,0c0.4,0,0.6-0.3,0.5-0.7l-3-12C17.2,221,17,220.8,16.7,220.8L16.7,220.8z"/>
	</g>
	<g class="st7">
		<path class="st1" d="M75.6,223.3C75.6,223.3,75.5,223.3,75.6,223.3l-8.8-8.8c0,0-0.1-0.1-0.1-0.1c0,0,0,0,0,0c0,0,0.1,0,0.1,0
			l11.9-3.2c0.1,0,0.1,0,0.1,0c0,0,0,0,0,0c0,0,0,0,0,0.1l-3.2,11.9C75.6,223.2,75.6,223.3,75.6,223.3z"/>
		<path class="st1" d="M78.1,211.9l-2.8,10.5l-7.7-7.7L78.1,211.9 M78.8,210.7c-0.1,0-0.2,0-0.2,0l-11.9,3.2c-0.5,0.1-0.6,0.6-0.3,1
			l8.7,8.7c0.2,0.2,0.3,0.2,0.5,0.2c0.2,0,0.4-0.2,0.5-0.5l3.2-11.9C79.4,211,79.2,210.7,78.8,210.7L78.8,210.7z"/>
	</g>
	<g>
		<path class="st1" d="M168.1,236.6c0,0,0-0.1,0-0.1v-12.3c0-0.1,0-0.1,0-0.1c0,0,0,0,0.1,0.1l10.7,6.2c0.1,0,0.1,0.1,0.1,0.1
			c0,0,0,0-0.1,0.1l-10.7,6.2C168.1,236.6,168.1,236.6,168.1,236.6z"/>
		<path class="st1" d="M168.6,224.9l9.4,5.4l-9.4,5.4L168.6,224.9 M168.1,223.5c-0.3,0-0.5,0.2-0.5,0.6v12.3c0,0.4,0.2,0.6,0.5,0.6
			c0.1,0,0.2,0,0.4-0.1l10.7-6.2c0.5-0.3,0.5-0.7,0-1l-10.7-6.2C168.3,223.6,168.2,223.5,168.1,223.5L168.1,223.5z"/>
	</g>
	<g class="st7">
		<circle class="st3" cx="25.5" cy="116.5" r="5"/>
		<circle class="st4" cx="25.5" cy="116.5" r="5"/>
	</g>
	<g class="st7">
		<circle class="st3" cx="219.5" cy="85.5" r="5"/>
		<circle class="st4" cx="219.5" cy="85.5" r="5"/>
	</g>
	<g class="st7">
		<circle class="st3" cx="150.5" cy="200.5" r="5"/>
		<circle class="st4" cx="150.5" cy="200.5" r="5"/>
	</g>
	<g class="st7">
		<circle class="st3" cx="45.5" cy="230.5" r="5"/>
		<circle class="st4" cx="45.5" cy="230.5" r="5"/>
	</g>
	<g class="st7">
		<circle class="st3" cx="222.5" cy="230.5" r="5"/>
		<circle class="st4" cx="222.5" cy="230.5" r="5"/>
	</g>
	<g class="st7">
		<circle class="st3" cx="229.5" cy="160.5" r="5"/>
		<circle class="st4" cx="229.5" cy="160.5" r="5"/>
	</g>
	<g class="st7">
		<circle class="st3" cx="84.5" cy="116.5" r="5"/>
		<circle class="st4" cx="84.5" cy="116.5" r="5"/>
	</g>
	<g class="st7">
		<circle class="st3" cx="186.5" cy="13.5" r="5"/>
		<circle class="st4" cx="186.5" cy="13.5" r="5"/>
	</g>
	<g class="st7">
		<path class="st1" d="M69.5,62.8c0,0-0.1,0-0.1,0l-11.6-4c-0.1,0-0.1,0-0.1-0.1c0,0,0,0,0.1-0.1l9.3-8.1c0,0,0.1-0.1,0.1-0.1
			c0,0,0,0.1,0,0.1l2.4,12.1C69.5,62.7,69.5,62.7,69.5,62.8z"/>
		<path class="st1" d="M66.7,51.4L68.8,62l-10.3-3.5L66.7,51.4 M67.1,49.9c-0.1,0-0.3,0.1-0.4,0.2l-9.3,8.1c-0.4,0.4-0.3,0.8,0.2,1
			l11.6,4c0.1,0,0.2,0.1,0.3,0.1c0.4,0,0.6-0.3,0.5-0.7l-2.4-12.1C67.5,50.1,67.3,49.9,67.1,49.9L67.1,49.9z"/>
	</g>
	<g class="st7">
		<path class="st6" d="M23,75c0,0.6-0.5,1-1,1h-5c-0.5,0-1-0.4-1-1v-5c0-0.6,0.5-1,1-1h5c0.5,0,1,0.4,1,1V75z"/>
	</g>
	<g class="st7">
		<path class="st6" d="M240.5,121c0.5,0.3,0.6,0.9,0.3,1.4l-2.8,4.1c-0.3,0.5-0.9,0.6-1.4,0.3l-4.1-2.8c-0.5-0.3-0.6-0.9-0.3-1.4
			l2.8-4.1c0.3-0.5,0.9-0.6,1.4-0.3L240.5,121z"/>
	</g>
	<g class="st7">
		<path class="st6" d="M147.1,96.8c-0.5,0.3-1.1,0.1-1.4-0.4l-2.5-4.3c-0.3-0.5-0.1-1.1,0.4-1.4l4.3-2.5c0.5-0.3,1.1-0.1,1.4,0.4
			l2.5,4.3c0.3,0.5,0.1,1.1-0.4,1.4L147.1,96.8z"/>
	</g>
	<g class="st7">
		<path class="st6" d="M96.5,144.6c-0.1,0.5-0.6,0.9-1.2,0.8l-4.9-0.9c-0.5-0.1-0.9-0.6-0.8-1.2l0.9-4.9c0.1-0.5,0.6-0.9,1.2-0.8
			l4.9,0.9c0.5,0.1,0.9,0.6,0.8,1.2L96.5,144.6z"/>
	</g>
	<g class="st7">
		<path class="st6" d="M184,188c-0.2,0.5-0.8,0.8-1.3,0.6L178,187c-0.5-0.2-0.8-0.8-0.6-1.3l1.6-4.7c0.2-0.5,0.8-0.8,1.3-0.6
			l4.7,1.6c0.5,0.2,0.8,0.8,0.6,1.3L184,188z"/>
	</g>
	<g class="st7">
		<path class="st6" d="M49.6,200.2c0.4,0.3,0.5,1,0.2,1.4l-3,4c-0.3,0.4-1,0.5-1.4,0.2l-4-3c-0.4-0.3-0.5-1-0.2-1.4l3-4
			c0.3-0.4,1-0.5,1.4-0.2L49.6,200.2z"/>
	</g>
	<g class="st7">
		<path class="st6" d="M165.4,30.7c-0.1,0.5-0.7,0.9-1.2,0.8l-4.9-1.1c-0.5-0.1-0.9-0.7-0.8-1.2l1.1-4.9c0.1-0.5,0.7-0.9,1.2-0.8
			l4.9,1.1c0.5,0.1,0.9,0.7,0.8,1.2L165.4,30.7z"/>
	</g>
	<g class="st7">
		<path class="st6" d="M68.8,96.5c0.3,0.5,0.2,1.1-0.2,1.4l-4.1,2.9c-0.5,0.3-1.1,0.2-1.4-0.2l-2.9-4.1c-0.3-0.5-0.2-1.1,0.2-1.4
			l4.1-2.9c0.5-0.3,1.1-0.2,1.4,0.2L68.8,96.5z"/>
	</g>
	<g class="st7">
		<path class="st6" d="M202,226c0,0.6-0.4,1-1,1h-5c-0.6,0-1-0.4-1-1v-5c0-0.6,0.4-1,1-1h5c0.6,0,1,0.4,1,1V226z"/>
	</g>
	<g class="st7">
		<path class="st6" d="M228,25c0,0.5-0.4,1-1,1h-5c-0.6,0-1-0.5-1-1v-5c0-0.5,0.4-1,1-1h5c0.6,0,1,0.5,1,1V25z"/>
	</g>
	<g class="st7">
		<path class="st6" d="M12.3,192.4c-0.3,0.5-0.9,0.6-1.4,0.4l-4.3-2.5c-0.5-0.3-0.6-0.9-0.4-1.4l2.5-4.3c0.3-0.5,0.9-0.6,1.4-0.4
			l4.3,2.5c0.5,0.3,0.6,0.9,0.4,1.4L12.3,192.4z"/>
	</g>
	<g class="st7">
		<path class="st6" d="M73.4,32.7c-0.1,0.5-0.7,0.9-1.2,0.8l-4.9-1.1c-0.5-0.1-0.9-0.7-0.8-1.2l1.1-4.9c0.1-0.5,0.7-0.9,1.2-0.8
			l4.9,1.1c0.5,0.1,0.9,0.7,0.8,1.2L73.4,32.7z"/>
	</g>
	<g class="st7">
		<path class="st6" d="M198,78c0,0.6-0.4,1-1,1h-5c-0.6,0-1-0.4-1-1v-5c0-0.6,0.4-1,1-1h5c0.6,0,1,0.4,1,1V78z"/>
	</g>
	<g class="st7">
		<path class="st6" d="M106.6,219.2c0.4,0.3,0.5,1,0.2,1.4l-3,4c-0.3,0.4-1,0.5-1.4,0.2l-4-3c-0.4-0.3-0.5-1-0.2-1.4l3-4
			c0.3-0.4,1-0.5,1.4-0.2L106.6,219.2z"/>
	</g>
	<g class="st7">
		<circle class="st3" cx="155.5" cy="123.5" r="5"/>
		<circle class="st4" cx="155.5" cy="123.5" r="5"/>
	</g>
	<g class="st7">
		<circle class="st3" cx="93.5" cy="57.5" r="5"/>
		<circle class="st4" cx="93.5" cy="57.5" r="5"/>
	</g>
	<g class="st7">
		<circle class="st3" cx="155.5" cy="55.5" r="5"/>
		<circle class="st4" cx="155.5" cy="55.5" r="5"/>
	</g>
</g>
</svg>
