<?xml version="1.0" encoding="utf-8"?>
<!-- Generator: Adobe Illustrator 22.1.0, SVG Export Plug-In . SVG Version: 6.00 Build 0)  -->
<svg version="1.1" xmlns="http://www.w3.org/2000/svg" xmlns:xlink="http://www.w3.org/1999/xlink" x="0px" y="0px"
	 viewBox="0 0 250 250" style="enable-background:new 0 0 250 250;" xml:space="preserve">
<style type="text/css">
	.st0{fill:#00E983;}
	.st1{fill:#6355FF;}
</style>
<g id="Layer_1">
	<g id="Layer_1_2_">
		<g id="Layer_1_1_">
			<rect width="250" height="250"/>
		</g>
	</g>
</g>
<g id="Layer_2">
	<g>
		<path class="st0" d="M42,26c0.8,1.4,0.1,1.6-2.1,0.7c-8.8,2.3-18,4.1-27.7,5.4v15.2c0,2,1,3,3,3h27l-0.5,5.2H14.3
			c-5,0-7.5-2-7.5-6.1V12.7h4.7c1.7,0.3,2,0.9,0.7,1.9v12c10.6-1.3,19.9-3.2,27.9-5.9L42,26z M39.2,18.3c-2.5-3.1-4.9-5.9-7.3-8.2
			l3.3-2.6c2.2,2,4.6,4.8,7.3,8.2L39.2,18.3z M38.7,7l2.8-2.6c2.3,2.2,4.8,4.8,7.5,8L46,15C43.1,11.7,40.7,9.1,38.7,7z"/>
		<path class="st0" d="M73.1,36.4c-4.7-3.4-8.6-5.9-11.7-7.5l3.5-4.9c3.9,2,7.9,4.5,12,7.5L73.1,36.4z M109.2,30.1
			c-8,12.8-20.3,21.9-37,27.2c-0.5,1.9-1.3,2-2.3,0.2l-3.3-5.2c17-3.8,29.8-12.6,38.4-26.5L109.2,30.1z M80.2,22.6
			c-4.2-3-8.1-5.5-11.7-7.5l3-4.9c4.2,2.3,8.2,4.8,12,7.5L80.2,22.6z M94,10.6c2.7,2.2,5.3,4.7,8,7.5l-3,2.8
			c-2.7-2.8-5.4-5.4-8.2-7.7L94,10.6z M99.6,6.6c2.7,2,5.3,4.5,8,7.3l-3,3c-2.8-3.1-5.5-5.6-8-7.5L99.6,6.6z"/>
		<path class="st0" d="M164.3,54.2h-42.2v-4.5h25.3l0.5-17.6h-19.2v-4.5h23.9l-0.5,22h12.2V54.2z"/>
		<path class="st0" d="M205.1,32.2c0.3,11.9-4.8,21.1-15.2,27.7l-4-4.5c9.2-5,13.8-12,13.8-21.1V24.2h4.9c1.4,0.2,1.6,0.7,0.5,1.6
			v6.1c5.6-4.2,9.9-8.4,12.9-12.4l-38.2,1.4l-0.5-5.4l42.7-1.2l1.6-0.5l3.5,4.2c0.5,0.6,0.1,0.9-1.2,0.7
			c-4.7,6.1-10.3,11.8-16.9,17.1L205.1,32.2z"/>
		<path class="st0" d="M17.2,111.7c15.2-3.9,23.7-12.1,25.5-24.6H7.2v-5.2H43l2.1-0.7l4.2,2.6c0.9,0.8,0.8,1.5-0.5,2.1
			c-2.5,15.6-11.6,25.8-27.4,30.5L17.2,111.7z M43.7,73.7H11.4v-5.2h32.3V73.7z"/>
		<path class="st0" d="M62.3,95.7c16.4-6.9,28.8-16.6,37.3-29.1l4.5,3.8c1.2,0.9,0.7,1.6-1.6,2.1c-3,3.9-6.8,7.9-11.5,12v31.9h-5.4
			V88.9c-5.5,4.2-11.9,8-19.2,11.5L62.3,95.7z"/>
		<path class="st0" d="M155.8,81.7h13.8v5.2H156v4.5c0,11.7-6.2,20.1-18.5,25.1l-3.8-4.2c11.3-3.8,16.9-10.5,16.9-20.4v-4.9h-15.5
			l0.2,12h-5.2l-0.2-12h-13.1v-5.2H130l-0.2-12.4h4.9c1.6,0.2,1.6,0.9,0.2,2.3l0.2,10.1h15.2V67.4h5.2c1.6,0.2,1.6,0.9,0.2,2.3V81.7
			z M167.5,73.9l-3,2.6c-2.5-3.1-4.8-5.6-7-7.5l2.6-2.8C162.5,68.4,165,71,167.5,73.9z M169.6,69.9l-2.3,2.6
			c-1.8-3.1-3.6-5.6-5.4-7.5l2-2.8C165.9,64.4,167.8,67,169.6,69.9z"/>
		<path class="st0" d="M193.8,112.9h-7.5l10.3-14.6c-3.2,1.1-7.4,1-10.3-0.7c-4.7-2.7-7.1-7.7-7.1-12.5c0-7.3,5.2-14.6,15.4-14.6
			c10.3,0,15.5,7.3,15.5,14.6c0,2.9-1,5.9-2.6,8.5L193.8,112.9z M204,85c0-4.3-3.1-8.4-9.3-8.4c-6.2,0-9.3,4.1-9.3,8.4
			c0,4.2,3.1,8.5,9.3,8.5C201,93.5,204,89.2,204,85z"/>
		<path class="st0" d="M235.2,90.9c4.9,1.9,7.1,6,7.1,9.8c0,6.3-5.1,12.6-15.2,12.6c-10,0-15.1-5.9-15.1-12.6c0-3.7,2.5-7.7,7.3-9.8
			c-4.6-1.9-5.5-6.2-5.5-8.6c0.1-8,7-11.8,13.4-11.8c8.9,0,13.4,5.9,13.4,11.8C240.5,85.4,238.7,89.3,235.2,90.9z M236.3,100.7
			c0-3.3-3-6.7-9.2-6.7c-6.1,0-9.1,3.4-9.1,6.7c0,3.2,3.1,6.9,9.1,6.9C233.3,107.6,236.3,104,236.3,100.7z M219.7,82.2
			c0,2.9,2.4,6.2,7.4,6.2c5,0,7.4-3.4,7.4-6.3c0-4-3.9-6.3-7.4-6.3C223.5,75.8,219.7,78.2,219.7,82.2z"/>
	</g>
</g>
<g id="Layer_4">
	<g>
		<path class="st1" d="M40.9,25c0.8,1.4,0.1,1.6-2.1,0.7c-8.8,2.3-18,4.1-27.7,5.4v15.2c0,2,1,3,3,3h27l-0.5,5.2H13.3
			c-5,0-7.5-2-7.5-6.1V11.7h4.7c1.7,0.3,2,0.9,0.7,1.9v12c10.6-1.3,19.9-3.2,27.9-5.9L40.9,25z M38.1,17.3c-2.5-3.1-4.9-5.9-7.3-8.2
			l3.3-2.6c2.2,2,4.6,4.8,7.3,8.2L38.1,17.3z M37.7,6l2.8-2.6c2.3,2.2,4.8,4.8,7.5,8l-3,2.6C42.1,10.7,39.7,8.1,37.7,6z"/>
		<path class="st1" d="M72.1,35.4c-4.7-3.4-8.6-5.9-11.7-7.5l3.5-4.9c3.9,2,7.9,4.5,12,7.5L72.1,35.4z M108.2,29.1
			c-8,12.8-20.3,21.9-37,27.2c-0.5,1.9-1.3,2-2.3,0.2l-3.3-5.2c17-3.8,29.8-12.6,38.4-26.5L108.2,29.1z M79.1,21.6
			c-4.2-3-8.1-5.5-11.7-7.5l3-4.9c4.2,2.3,8.2,4.8,12,7.5L79.1,21.6z M93,9.6c2.7,2.2,5.3,4.7,8,7.5l-3,2.8
			c-2.7-2.8-5.4-5.4-8.2-7.7L93,9.6z M98.6,5.6c2.7,2,5.3,4.5,8,7.3l-3,3c-2.8-3.1-5.5-5.6-8-7.5L98.6,5.6z"/>
		<path class="st1" d="M163.3,53.2h-42.2v-4.5h25.3l0.5-17.6h-19.2v-4.5h23.9l-0.5,22h12.2V53.2z"/>
		<path class="st1" d="M204.1,31.2c0.3,11.9-4.8,21.1-15.2,27.7l-4-4.5c9.2-5,13.8-12,13.8-21.1V23.2h4.9c1.4,0.2,1.6,0.7,0.5,1.6
			v6.1c5.6-4.2,9.9-8.4,12.9-12.4l-38.2,1.4l-0.5-5.4l42.7-1.2l1.6-0.5l3.5,4.2c0.5,0.6,0.1,0.9-1.2,0.7
			c-4.7,6.1-10.3,11.8-16.9,17.1L204.1,31.2z"/>
		<path class="st1" d="M16.2,110.6c15.2-3.9,23.7-12.1,25.5-24.6H6.1v-5.2H42l2.1-0.7l4.2,2.6c0.9,0.8,0.8,1.5-0.5,2.1
			c-2.5,15.6-11.6,25.8-27.4,30.5L16.2,110.6z M42.7,72.7H10.3v-5.2h32.3V72.7z"/>
		<path class="st1" d="M61.2,94.7c16.4-6.9,28.8-16.6,37.3-29.1l4.5,3.8c1.2,0.9,0.7,1.6-1.6,2.1c-3,3.9-6.8,7.9-11.5,12v31.9h-5.4
			V87.9c-5.5,4.2-11.9,8-19.2,11.5L61.2,94.7z"/>
		<path class="st1" d="M154.7,80.6h13.8v5.2H155v4.5c0,11.7-6.2,20.1-18.5,25.1l-3.8-4.2c11.3-3.8,16.9-10.5,16.9-20.4v-4.9h-15.5
			l0.2,12h-5.2l-0.2-12h-13.1v-5.2h13.1l-0.2-12.4h4.9c1.6,0.2,1.6,0.9,0.2,2.3l0.2,10.1h15.2V66.4h5.2c1.6,0.2,1.6,0.9,0.2,2.3
			V80.6z M166.4,72.9l-3,2.6c-2.5-3.1-4.8-5.6-7-7.5l2.6-2.8C161.4,67.4,163.9,69.9,166.4,72.9z M168.6,68.9l-2.3,2.6
			c-1.8-3.1-3.6-5.6-5.4-7.5l2-2.8C164.8,63.4,166.8,66,168.6,68.9z"/>
		<path class="st1" d="M192.8,111.8h-7.5l10.3-14.6c-3.2,1.1-7.4,1-10.3-0.7c-4.7-2.7-7.1-7.7-7.1-12.5c0-7.3,5.2-14.6,15.4-14.6
			c10.3,0,15.5,7.3,15.5,14.6c0,2.9-1,5.9-2.6,8.5L192.8,111.8z M203,84c0-4.3-3.1-8.4-9.3-8.4c-6.2,0-9.3,4.1-9.3,8.4
			c0,4.2,3.1,8.5,9.3,8.5C199.9,92.5,203,88.2,203,84z"/>
		<path class="st1" d="M234.2,89.9c4.9,1.9,7.1,6,7.1,9.8c0,6.3-5.1,12.6-15.2,12.6c-10,0-15.1-5.9-15.1-12.6c0-3.7,2.5-7.7,7.3-9.8
			c-4.6-1.9-5.5-6.2-5.5-8.6c0.1-8,7-11.8,13.4-11.8c8.9,0,13.4,5.9,13.4,11.8C239.5,84.4,237.6,88.3,234.2,89.9z M235.2,99.7
			c0-3.3-3-6.7-9.2-6.7c-6.1,0-9.1,3.4-9.1,6.7c0,3.2,3.1,6.9,9.1,6.9C232.2,106.6,235.2,103,235.2,99.7z M218.7,81.2
			c0,2.9,2.4,6.2,7.4,6.2c5,0,7.4-3.4,7.4-6.3c0-4-3.9-6.3-7.4-6.3C222.5,74.8,218.7,77.2,218.7,81.2z"/>
	</g>
</g>
<g id="Layer_3_1_">
	<g>
		<path d="M39.9,24c0.8,1.4,0.1,1.6-2.1,0.7c-8.8,2.3-18,4.1-27.7,5.4v15.2c0,2,1,3,3,3h27l-0.5,5.2H12.3c-5,0-7.5-2-7.5-6.1V10.6
			h4.7c1.7,0.3,2,0.9,0.7,1.9v12c10.6-1.3,19.9-3.2,27.9-5.9L39.9,24z M37.1,16.2c-2.5-3.1-4.9-5.9-7.3-8.2l3.3-2.6
			c2.2,2,4.6,4.8,7.3,8.2L37.1,16.2z M36.6,5l2.8-2.6c2.3,2.2,4.8,4.8,7.5,8l-3,2.6C41.1,9.7,38.7,7,36.6,5z"/>
		<path d="M71.1,34.3c-4.7-3.4-8.6-5.9-11.7-7.5l3.5-4.9c3.9,2,7.9,4.5,12,7.5L71.1,34.3z M107.2,28c-8,12.8-20.3,21.9-37,27.2
			c-0.5,1.9-1.3,2-2.3,0.2l-3.3-5.2c17-3.8,29.8-12.6,38.4-26.5L107.2,28z M78.1,20.5c-4.2-3-8.1-5.5-11.7-7.5l3-4.9
			c4.2,2.3,8.2,4.8,12,7.5L78.1,20.5z M92,8.6c2.7,2.2,5.3,4.7,8,7.5l-3,2.8c-2.7-2.8-5.4-5.4-8.2-7.7L92,8.6z M97.6,4.6
			c2.7,2,5.3,4.5,8,7.3l-3,3c-2.8-3.1-5.5-5.6-8-7.5L97.6,4.6z"/>
		<path d="M162.3,52.2h-42.2v-4.5h25.3l0.5-17.6h-19.2v-4.5h23.9l-0.5,22h12.2V52.2z"/>
		<path d="M203.1,30.1c0.3,11.9-4.8,21.1-15.2,27.7l-4-4.5c9.2-5,13.8-12,13.8-21.1V22.2h4.9c1.4,0.2,1.6,0.7,0.5,1.6v6.1
			c5.6-4.2,9.9-8.4,12.9-12.4l-38.2,1.4l-0.5-5.4l42.7-1.2l1.6-0.5l3.5,4.2c0.5,0.6,0.1,0.9-1.2,0.7c-4.7,6.1-10.3,11.8-16.9,17.1
			L203.1,30.1z"/>
		<path d="M15.2,109.6c15.2-3.9,23.7-12.1,25.5-24.6H5.1v-5.2H41l2.1-0.7l4.2,2.6c0.9,0.8,0.8,1.5-0.5,2.1
			c-2.5,15.6-11.6,25.8-27.4,30.5L15.2,109.6z M41.7,71.6H9.3v-5.2h32.3V71.6z"/>
		<path d="M60.2,93.7c16.4-6.9,28.8-16.6,37.3-29.1l4.5,3.8c1.2,0.9,0.7,1.6-1.6,2.1c-3,3.9-6.8,7.9-11.5,12v31.9h-5.4V86.9
			c-5.5,4.2-11.9,8-19.2,11.5L60.2,93.7z"/>
		<path d="M153.7,79.6h13.8v5.2H154v4.5c0,11.7-6.2,20.1-18.5,25.1l-3.8-4.2c11.3-3.8,16.9-10.5,16.9-20.4v-4.9h-15.5l0.2,12h-5.2
			l-0.2-12h-13.1v-5.2h13.1l-0.2-12.4h4.9c1.6,0.2,1.6,0.9,0.2,2.3l0.2,10.1h15.2V65.3h5.2c1.6,0.2,1.6,0.9,0.2,2.3V79.6z
			 M165.4,71.9l-3,2.6c-2.5-3.1-4.8-5.6-7-7.5l2.6-2.8C160.4,66.3,162.9,68.9,165.4,71.9z M167.5,67.9l-2.3,2.6
			c-1.8-3.1-3.6-5.6-5.4-7.5l2-2.8C163.8,62.3,165.7,64.9,167.5,67.9z"/>
		<path d="M191.8,110.8h-7.5l10.3-14.6c-3.2,1.1-7.4,1-10.3-0.7c-4.7-2.7-7.1-7.7-7.1-12.5c0-7.3,5.2-14.6,15.4-14.6
			c10.3,0,15.5,7.3,15.5,14.6c0,2.9-1,5.9-2.6,8.5L191.8,110.8z M202,83c0-4.3-3.1-8.4-9.3-8.4c-6.2,0-9.3,4.1-9.3,8.4
			c0,4.2,3.1,8.5,9.3,8.5C198.9,91.4,202,87.2,202,83z"/>
		<path d="M233.2,88.8c4.9,1.9,7.1,6,7.1,9.8c0,6.3-5.1,12.6-15.2,12.6c-10,0-15.1-5.9-15.1-12.6c0-3.7,2.5-7.7,7.3-9.8
			c-4.6-1.9-5.5-6.2-5.5-8.6c0.1-8,7-11.8,13.4-11.8c8.9,0,13.4,5.9,13.4,11.8C238.5,83.3,236.6,87.3,233.2,88.8z M234.2,98.7
			c0-3.3-3-6.7-9.2-6.7c-6.1,0-9.1,3.4-9.1,6.7c0,3.2,3.1,6.9,9.1,6.9C231.2,105.6,234.2,101.9,234.2,98.7z M217.7,80.1
			c0,2.9,2.4,6.2,7.4,6.2c5,0,7.4-3.4,7.4-6.3c0-4-3.9-6.3-7.4-6.3C221.5,73.8,217.7,76.1,217.7,80.1z"/>
	</g>
</g>
<g id="Layer_5">
	<g>
		<path class="st0" d="M43.4,152.1c0.8,1.4,0.1,1.6-2.1,0.7c-8.8,2.3-18,4.1-27.7,5.4v15.2c0,2,1,3,3,3h27l-0.5,5.2H15.8
			c-5,0-7.5-2-7.5-6.1v-36.8H13c1.7,0.3,2,0.9,0.7,1.9v12c10.6-1.3,19.9-3.2,27.9-5.9L43.4,152.1z M40.6,144.3
			c-2.5-3.1-4.9-5.9-7.3-8.2l3.3-2.6c2.2,2,4.6,4.8,7.3,8.2L40.6,144.3z M40.1,133.1l2.8-2.6c2.3,2.2,4.8,4.8,7.5,8l-3,2.6
			C44.6,137.8,42.2,135.1,40.1,133.1z"/>
		<path class="st0" d="M74.6,162.4c-4.7-3.4-8.6-5.9-11.7-7.5l3.5-4.9c3.9,2,7.9,4.5,12,7.5L74.6,162.4z M110.7,156.1
			c-8,12.8-20.3,21.9-37,27.2c-0.5,1.9-1.3,2-2.3,0.2l-3.3-5.2c17-3.8,29.8-12.6,38.4-26.5L110.7,156.1z M81.6,148.6
			c-4.2-3-8.1-5.5-11.7-7.5l3-4.9c4.2,2.3,8.2,4.8,12,7.5L81.6,148.6z M95.5,136.7c2.7,2.2,5.3,4.7,8,7.5l-3,2.8
			c-2.7-2.8-5.4-5.4-8.2-7.7L95.5,136.7z M101.1,132.7c2.7,2,5.3,4.5,8,7.3l-3,3c-2.8-3.1-5.5-5.6-8-7.5L101.1,132.7z"/>
		<path class="st0" d="M165.8,180.3h-42.2v-4.5h25.3l0.5-17.6h-19.2v-4.5h23.9l-0.5,22h12.2V180.3z"/>
		<path class="st0" d="M206.6,158.2c0.3,11.9-4.8,21.1-15.2,27.7l-4-4.5c9.2-5,13.8-12,13.8-21.1v-10.1h4.9c1.4,0.2,1.6,0.7,0.5,1.6
			v6.1c5.6-4.2,9.9-8.4,12.9-12.4l-38.2,1.4l-0.5-5.4l42.7-1.2l1.6-0.5l3.5,4.2c0.5,0.6,0.1,0.9-1.2,0.7
			c-4.7,6.1-10.3,11.8-16.9,17.1L206.6,158.2z"/>
		<path class="st0" d="M18.7,237.7c15.2-3.9,23.7-12.1,25.5-24.6H8.6v-5.2h35.9l2.1-0.7l4.2,2.6c0.9,0.8,0.8,1.5-0.5,2.1
			c-2.5,15.6-11.6,25.8-27.4,30.5L18.7,237.7z M45.2,199.7H12.8v-5.2h32.3V199.7z"/>
		<path class="st0" d="M63.7,221.8c16.4-6.9,28.8-16.6,37.3-29.1l4.5,3.8c1.2,0.9,0.7,1.6-1.6,2.1c-3,3.9-6.8,7.9-11.5,12v31.9h-5.4
			V215c-5.5,4.2-11.9,8-19.2,11.5L63.7,221.8z"/>
		<path class="st0" d="M157.2,207.7H171v5.2h-13.6v4.5c0,11.7-6.2,20.1-18.5,25.1l-3.8-4.2c11.3-3.8,16.9-10.5,16.9-20.4v-4.9h-15.5
			l0.2,12h-5.2l-0.2-12h-13.1v-5.2h13.1l-0.2-12.4h4.9c1.6,0.2,1.6,0.9,0.2,2.3l0.2,10.1h15.2v-14.3h5.2c1.6,0.2,1.6,0.9,0.2,2.3
			V207.7z M168.9,200l-3,2.6c-2.5-3.1-4.8-5.6-7-7.5l2.6-2.8C163.9,194.4,166.4,197,168.9,200z M171,196l-2.3,2.6
			c-1.8-3.1-3.6-5.6-5.4-7.5l2-2.8C167.3,190.4,169.2,193,171,196z"/>
		<path class="st0" d="M195.3,238.9h-7.5l10.3-14.6c-3.2,1.1-7.4,1-10.3-0.7c-4.7-2.7-7.1-7.7-7.1-12.5c0-7.3,5.2-14.6,15.4-14.6
			c10.3,0,15.5,7.3,15.5,14.6c0,2.9-1,5.9-2.6,8.5L195.3,238.9z M205.5,211.1c0-4.3-3.1-8.4-9.3-8.4c-6.2,0-9.3,4.1-9.3,8.4
			c0,4.2,3.1,8.5,9.3,8.5C202.4,219.5,205.5,215.3,205.5,211.1z"/>
		<path class="st0" d="M236.7,216.9c4.9,1.9,7.1,6,7.1,9.8c0,6.3-5.1,12.6-15.2,12.6c-10,0-15.1-5.9-15.1-12.6
			c0-3.7,2.5-7.7,7.3-9.8c-4.6-1.9-5.5-6.2-5.5-8.6c0.1-8,7-11.8,13.4-11.8c8.9,0,13.4,5.9,13.4,11.8
			C242,211.4,240.1,215.4,236.7,216.9z M237.7,226.8c0-3.3-3-6.7-9.2-6.7c-6.1,0-9.1,3.4-9.1,6.7c0,3.2,3.1,6.9,9.1,6.9
			C234.7,233.7,237.7,230,237.7,226.8z M221.2,208.2c0,2.9,2.4,6.2,7.4,6.2c5,0,7.4-3.4,7.4-6.3c0-4-3.9-6.3-7.4-6.3
			C225,201.9,221.2,204.2,221.2,208.2z"/>
	</g>
	<g>
		<path class="st1" d="M42.4,151.1c0.8,1.4,0.1,1.6-2.1,0.7c-8.8,2.3-18,4.1-27.7,5.4v15.2c0,2,1,3,3,3h27l-0.5,5.2H14.7
			c-5,0-7.5-2-7.5-6.1v-36.8h4.7c1.7,0.3,2,0.9,0.7,1.9v12c10.6-1.3,19.9-3.2,27.9-5.9L42.4,151.1z M39.6,143.3
			c-2.5-3.1-4.9-5.9-7.3-8.2l3.3-2.6c2.2,2,4.6,4.8,7.3,8.2L39.6,143.3z M39.1,132.1l2.8-2.6c2.3,2.2,4.8,4.8,7.5,8l-3,2.6
			C43.6,136.8,41.1,134.1,39.1,132.1z"/>
		<path class="st1" d="M73.6,161.4c-4.7-3.4-8.6-5.9-11.7-7.5l3.5-4.9c3.9,2,7.9,4.5,12,7.5L73.6,161.4z M109.7,155.1
			c-8,12.8-20.3,21.9-37,27.2c-0.5,1.9-1.3,2-2.3,0.2l-3.3-5.2c17-3.8,29.8-12.6,38.4-26.5L109.7,155.1z M80.6,147.6
			c-4.2-3-8.1-5.5-11.7-7.5l3-4.9c4.2,2.3,8.2,4.8,12,7.5L80.6,147.6z M94.4,135.7c2.7,2.2,5.3,4.7,8,7.5l-3,2.8
			c-2.7-2.8-5.4-5.4-8.2-7.7L94.4,135.7z M100,131.7c2.7,2,5.3,4.5,8,7.3l-3,3c-2.8-3.1-5.5-5.6-8-7.5L100,131.7z"/>
		<path class="st1" d="M164.7,179.2h-42.2v-4.5h25.3l0.5-17.6h-19.2v-4.5H153l-0.5,22h12.2V179.2z"/>
		<path class="st1" d="M205.5,157.2c0.3,11.9-4.8,21.1-15.2,27.7l-4-4.5c9.2-5,13.8-12,13.8-21.1v-10.1h4.9c1.4,0.2,1.6,0.7,0.5,1.6
			v6.1c5.6-4.2,9.9-8.4,12.9-12.4l-38.2,1.4l-0.5-5.4l42.7-1.2l1.6-0.5l3.5,4.2c0.5,0.6,0.1,0.9-1.2,0.7
			c-4.7,6.1-10.3,11.8-16.9,17.1L205.5,157.2z"/>
		<path class="st1" d="M17.6,236.7c15.2-3.9,23.7-12.1,25.5-24.6H7.6v-5.2h35.9l2.1-0.7l4.2,2.6c0.9,0.8,0.8,1.5-0.5,2.1
			c-2.5,15.6-11.6,25.8-27.4,30.5L17.6,236.7z M44.1,198.7H11.8v-5.2h32.3V198.7z"/>
		<path class="st1" d="M62.7,220.8c16.4-6.9,28.8-16.6,37.3-29.1l4.5,3.8c1.2,0.9,0.7,1.6-1.6,2.1c-3,3.9-6.8,7.9-11.5,12v31.9h-5.4
			V214c-5.5,4.2-11.9,8-19.2,11.5L62.7,220.8z"/>
		<path class="st1" d="M156.2,206.7H170v5.2h-13.6v4.5c0,11.7-6.2,20.1-18.5,25.1l-3.8-4.2c11.3-3.8,16.9-10.5,16.9-20.4v-4.9h-15.5
			l0.2,12h-5.2l-0.2-12h-13.1v-5.2h13.1l-0.2-12.4h4.9c1.6,0.2,1.6,0.9,0.2,2.3l0.2,10.1h15.2v-14.3h5.2c1.6,0.2,1.6,0.9,0.2,2.3
			V206.7z M167.9,199l-3,2.6c-2.5-3.1-4.8-5.6-7-7.5l2.6-2.8C162.9,193.4,165.4,196,167.9,199z M170,195l-2.3,2.6
			c-1.8-3.1-3.6-5.6-5.4-7.5l2-2.8C166.3,189.4,168.2,192,170,195z"/>
		<path class="st1" d="M194.3,237.9h-7.5l10.3-14.6c-3.2,1.1-7.4,1-10.3-0.7c-4.7-2.7-7.1-7.7-7.1-12.5c0-7.3,5.2-14.6,15.4-14.6
			c10.3,0,15.5,7.3,15.5,14.6c0,2.9-1,5.9-2.6,8.5L194.3,237.9z M204.5,210c0-4.3-3.1-8.4-9.3-8.4c-6.2,0-9.3,4.1-9.3,8.4
			c0,4.2,3.1,8.5,9.3,8.5C201.4,218.5,204.5,214.2,204.5,210z"/>
		<path class="st1" d="M235.7,215.9c4.9,1.9,7.1,6,7.1,9.8c0,6.3-5.1,12.6-15.2,12.6c-10,0-15.1-5.9-15.1-12.6
			c0-3.7,2.5-7.7,7.3-9.8c-4.6-1.9-5.5-6.2-5.5-8.6c0.1-8,7-11.8,13.4-11.8c8.9,0,13.4,5.9,13.4,11.8
			C240.9,210.4,239.1,214.4,235.7,215.9z M236.7,225.8c0-3.3-3-6.7-9.2-6.7c-6.1,0-9.1,3.4-9.1,6.7c0,3.2,3.1,6.9,9.1,6.9
			C233.7,232.7,236.7,229,236.7,225.8z M220.1,207.2c0,2.9,2.4,6.2,7.4,6.2c5,0,7.4-3.4,7.4-6.3c0-4-3.9-6.3-7.4-6.3
			C224,200.9,220.1,203.2,220.1,207.2z"/>
	</g>
	<g>
		<path d="M41.4,150c0.8,1.4,0.1,1.6-2.1,0.7c-8.8,2.3-18,4.1-27.7,5.4v15.2c0,2,1,3,3,3h27l-0.5,5.2H13.7c-5,0-7.5-2-7.5-6.1v-36.8
			h4.7c1.7,0.3,2,0.9,0.7,1.9v12c10.6-1.3,19.9-3.2,27.9-5.9L41.4,150z M38.6,142.3c-2.5-3.1-4.9-5.9-7.3-8.2l3.3-2.6
			c2.2,2,4.6,4.8,7.3,8.2L38.6,142.3z M38.1,131l2.8-2.6c2.3,2.2,4.8,4.8,7.5,8l-3,2.6C42.6,135.7,40.1,133.1,38.1,131z"/>
		<path d="M72.6,160.4c-4.7-3.4-8.6-5.9-11.7-7.5l3.5-4.9c3.9,2,7.9,4.5,12,7.5L72.6,160.4z M108.7,154.1c-8,12.8-20.3,21.9-37,27.2
			c-0.5,1.9-1.3,2-2.3,0.2l-3.3-5.2c17-3.8,29.8-12.6,38.4-26.5L108.7,154.1z M79.6,146.6c-4.2-3-8.1-5.5-11.7-7.5l3-4.9
			c4.2,2.3,8.2,4.8,12,7.5L79.6,146.6z M93.4,134.6c2.7,2.2,5.3,4.7,8,7.5l-3,2.8c-2.7-2.8-5.4-5.4-8.2-7.7L93.4,134.6z M99,130.6
			c2.7,2,5.3,4.5,8,7.3l-3,3c-2.8-3.1-5.5-5.6-8-7.5L99,130.6z"/>
		<path d="M163.7,178.2h-42.2v-4.5h25.3l0.5-17.6h-19.2v-4.5H152l-0.5,22h12.2V178.2z"/>
		<path d="M204.5,156.2c0.3,11.9-4.8,21.1-15.2,27.7l-4-4.5c9.2-5,13.8-12,13.8-21.1v-10.1h4.9c1.4,0.2,1.6,0.7,0.5,1.6v6.1
			c5.6-4.2,9.9-8.4,12.9-12.4l-38.2,1.4l-0.5-5.4l42.7-1.2l1.6-0.5l3.5,4.2c0.5,0.6,0.1,0.9-1.2,0.7c-4.7,6.1-10.3,11.8-16.9,17.1
			L204.5,156.2z"/>
		<path d="M16.6,235.7c15.2-3.9,23.7-12.1,25.5-24.6H6.6v-5.2h35.9l2.1-0.7l4.2,2.6c0.9,0.8,0.8,1.5-0.5,2.1
			c-2.5,15.6-11.6,25.8-27.4,30.5L16.6,235.7z M43.1,197.7H10.8v-5.2h32.3V197.7z"/>
		<path d="M61.7,219.7c16.4-6.9,28.8-16.6,37.3-29.1l4.5,3.8c1.2,0.9,0.7,1.6-1.6,2.1c-3,3.9-6.8,7.9-11.5,12v31.9h-5.4v-27.4
			c-5.5,4.2-11.9,8-19.2,11.5L61.7,219.7z"/>
		<path d="M155.2,205.7H169v5.2h-13.6v4.5c0,11.7-6.2,20.1-18.5,25.1l-3.8-4.2c11.3-3.8,16.9-10.5,16.9-20.4v-4.9h-15.5l0.2,12h-5.2
			l-0.2-12h-13.1v-5.2h13.1l-0.2-12.4h4.9c1.6,0.2,1.6,0.9,0.2,2.3l0.2,10.1h15.2v-14.3h5.2c1.6,0.2,1.6,0.9,0.2,2.3V205.7z
			 M166.9,197.9l-3,2.6c-2.5-3.1-4.8-5.6-7-7.5l2.6-2.8C161.9,192.4,164.4,195,166.9,197.9z M169,193.9l-2.3,2.6
			c-1.8-3.1-3.6-5.6-5.4-7.5l2-2.8C165.3,188.4,167.2,191,169,193.9z"/>
		<path d="M193.2,236.8h-7.5l10.3-14.6c-3.2,1.1-7.4,1-10.3-0.7c-4.7-2.7-7.1-7.7-7.1-12.5c0-7.3,5.2-14.6,15.4-14.6
			c10.3,0,15.5,7.3,15.5,14.6c0,2.9-1,5.9-2.6,8.5L193.2,236.8z M203.4,209c0-4.3-3.1-8.4-9.3-8.4c-6.2,0-9.3,4.1-9.3,8.4
			c0,4.2,3.1,8.5,9.3,8.5C200.4,217.5,203.4,213.2,203.4,209z"/>
		<path d="M234.6,214.9c4.9,1.9,7.1,6,7.1,9.8c0,6.3-5.1,12.6-15.2,12.6c-10,0-15.1-5.9-15.1-12.6c0-3.7,2.5-7.7,7.3-9.8
			c-4.6-1.9-5.5-6.2-5.5-8.6c0.1-8,7-11.8,13.4-11.8c8.9,0,13.4,5.9,13.4,11.8C239.9,209.4,238.1,213.3,234.6,214.9z M235.7,224.7
			c0-3.3-3-6.7-9.2-6.7c-6.1,0-9.1,3.4-9.1,6.7c0,3.2,3.1,6.9,9.1,6.9C232.7,231.6,235.7,228,235.7,224.7z M219.1,206.2
			c0,2.9,2.4,6.2,7.4,6.2c5,0,7.4-3.4,7.4-6.3c0-4-3.9-6.3-7.4-6.3C222.9,199.8,219.1,202.2,219.1,206.2z"/>
	</g>
</g>
</svg>
