<?xml version="1.0" encoding="utf-8"?>
<!-- Generator: Adobe Illustrator 22.1.0, SVG Export Plug-In . SVG Version: 6.00 Build 0)  -->
<svg version="1.1" xmlns="http://www.w3.org/2000/svg" xmlns:xlink="http://www.w3.org/1999/xlink" x="0px" y="0px"
	 viewBox="0 0 250 250" style="enable-background:new 0 0 250 250;" xml:space="preserve">
<style type="text/css">
	.st0{fill:#C3F3C0;}
	.st1{fill:#D8D8D8;}
	.st2{fill:#FF5E5B;}
	.st3{fill:#9CFFFA;}
	.st4{fill:#FFFFEA;}
</style>
<g id="Layer_1">
	<g id="Layer_1_2_">
		<g id="Layer_1_1_">
			<rect class="st0" width="250" height="250"/>
		</g>
	</g>
</g>
<g id="Layer_3_1_">
	<g>
		<path class="st1" d="M13.3,9.6c0.7,0.7,0.3,2.2-0.9,3.3l-5.5,5.5c-1.2,1.2-2.7,1.6-3.3,0.9c-0.7-0.7-0.3-2.2,0.9-3.3l5.5-5.5
			C11.1,9.3,12.6,8.9,13.3,9.6z"/>
	</g>
	<g>
		<path class="st1" d="M75.2,156.6c0.7,0.7,0.3,2.2-0.9,3.3l-5.5,5.5c-1.2,1.2-2.7,1.6-3.3,0.9s-0.3-2.2,0.9-3.3l5.5-5.5
			C73,156.3,74.5,155.9,75.2,156.6z"/>
	</g>
	<g>
		<path class="st2" d="M18.7,183.6c-0.1,0.9-1.5,1.6-3.1,1.5l-7.8-0.6c-1.6-0.1-2.9-1-2.9-1.9c0.1-0.9,1.5-1.6,3.1-1.5l7.8,0.6
			C17.4,181.8,18.7,182.7,18.7,183.6z"/>
	</g>
	<g>
		<path class="st1" d="M37.2,170.5c0.2,0.9-0.9,2-2.5,2.4l-7.6,2c-1.6,0.4-3.1,0-3.3-0.9s0.9-2,2.5-2.4l7.6-2
			C35.5,169.1,37,169.5,37.2,170.5z"/>
	</g>
	<g>
		<path class="st1" d="M20.1,162.2c0.4,0.9-0.6,2.1-2.1,2.7l-7.2,3c-1.5,0.6-3.1,0.4-3.4-0.4c-0.4-0.9,0.6-2.1,2.1-2.7l7.2-3
			C18.2,161.1,19.8,161.3,20.1,162.2z"/>
	</g>
	<g>
		<path class="st1" d="M48.6,161.4c-0.1,0.9-1.5,1.6-3.1,1.5l-7.8-0.6c-1.6-0.1-2.9-1-2.9-1.9c0.1-0.9,1.5-1.6,3.1-1.5l7.8,0.6
			C47.4,159.6,48.7,160.5,48.6,161.4z"/>
	</g>
	<g>
		<path class="st1" d="M57.2,52.5c-0.3,0.9-1.8,1.3-3.4,0.8l-7.5-2.2c-1.6-0.5-2.7-1.6-2.4-2.5s1.8-1.3,3.4-0.8l7.5,2.2
			C56.4,50.4,57.5,51.6,57.2,52.5z"/>
	</g>
	<g>
		<path class="st1" d="M48.7,72c0.7,0.7,0.3,2.2-0.9,3.3l-5.5,5.5c-1.2,1.2-2.7,1.6-3.3,0.9c-0.7-0.7-0.3-2.2,0.9-3.3l5.5-5.5
			C46.5,71.7,48,71.3,48.7,72z"/>
	</g>
	<g>
		<path class="st1" d="M6.2,85c0.4-0.9,2-1,3.5-0.3l7.1,3.3c1.5,0.7,2.4,2,2,2.8c-0.4,0.9-2,1-3.5,0.3l-7.1-3.3
			C6.7,87.1,5.8,85.8,6.2,85z"/>
	</g>
	<g>
		<path class="st1" d="M27.6,71.9c0.1,0.9-1.2,1.8-2.9,2l-7.8,0.6c-1.6,0.1-3.1-0.5-3.1-1.5c-0.1-0.9,1.2-1.8,2.9-2l7.8-0.6
			C26.1,70.3,27.5,71,27.6,71.9z"/>
	</g>
	<g>
		<path class="st2" d="M35.1,19.3c-0.2,0.9-1.7,1.4-3.3,1.1l-7.7-1.5c-1.6-0.3-2.8-1.3-2.6-2.3c0.2-0.9,1.7-1.4,3.3-1.1l7.7,1.5
			C34.1,17.3,35.3,18.3,35.1,19.3z"/>
	</g>
	<g>
		<path class="st1" d="M145,51.5c0.4,0.9-0.5,2.1-1.9,2.9l-7,3.4c-1.5,0.7-3,0.6-3.5-0.2c-0.4-0.9,0.5-2.1,1.9-2.9l7-3.4
			C143,50.6,144.6,50.7,145,51.5z"/>
	</g>
	<g>
		<path class="st1" d="M37.5,188.1c0.7,0.7,0.3,2.2-0.9,3.3L31,197c-1.2,1.2-2.7,1.6-3.3,0.9c-0.7-0.7-0.3-2.2,0.9-3.3l5.5-5.5
			C35.3,187.8,36.8,187.4,37.5,188.1z"/>
	</g>
	<g>
		<path class="st1" d="M39.7,228.2c0.7,0.7,0.3,2.2-0.9,3.3l-5.5,5.5c-1.2,1.2-2.7,1.6-3.3,0.9c-0.7-0.7-0.3-2.2,0.9-3.3l5.5-5.5
			C37.6,227.9,39.1,227.5,39.7,228.2z"/>
	</g>
	<g>
		<path class="st1" d="M15.7,247.4c-0.1,0.9-1.5,1.6-3.1,1.5l-7.8-0.6c-1.6-0.1-2.9-1-2.9-1.9c0.1-0.9,1.5-1.6,3.1-1.5l7.8,0.6
			C14.5,245.5,15.8,246.4,15.7,247.4z"/>
	</g>
	<g>
		<path class="st1" d="M21.9,226.3c0.2,0.9-0.9,2-2.5,2.4l-7.6,2c-1.6,0.4-3.1,0-3.3-0.9s0.9-2,2.5-2.4l7.6-2
			C20.1,225,21.6,225.4,21.9,226.3z"/>
	</g>
	<g>
		<path class="st1" d="M51.8,247.4c-0.1,0.9-1.5,1.6-3.1,1.5l-7.8-0.6c-1.6-0.1-2.9-1-2.9-1.9c0.1-0.9,1.5-1.6,3.1-1.5l7.8,0.6
			C50.6,245.5,51.9,246.4,51.8,247.4z"/>
	</g>
	<g>
		<path class="st1" d="M126.1,149.9c-0.3,0.9-1.8,1.3-3.4,0.8l-7.5-2.2c-1.6-0.5-2.7-1.6-2.4-2.5c0.3-0.9,1.8-1.3,3.4-0.8l7.5,2.2
			C125.3,147.9,126.4,149,126.1,149.9z"/>
	</g>
	<g>
		<path class="st1" d="M61.8,199.7c0.7,0.7,0.3,2.2-0.9,3.3l-5.5,5.5c-1.2,1.2-2.7,1.6-3.3,0.9c-0.7-0.7-0.3-2.2,0.9-3.3l5.5-5.5
			C59.6,199.4,61.1,199,61.8,199.7z"/>
	</g>
	<g>
		<path class="st2" d="M31.5,209.5c0.4-0.9,2-1,3.5-0.3l7.1,3.3c1.5,0.7,2.4,2,2,2.8c-0.4,0.9-2,1-3.5,0.3l-7.1-3.3
			C32,211.6,31.1,210.3,31.5,209.5z"/>
	</g>
	<g>
		<path class="st1" d="M19.5,204.7c0.1,0.9-1.2,1.8-2.9,2l-7.8,0.6c-1.6,0.1-3.1-0.5-3.1-1.5c-0.1-0.9,1.2-1.8,2.9-2l7.8-0.6
			C18.1,203.1,19.5,203.7,19.5,204.7z"/>
	</g>
	<g>
		<path class="st1" d="M87.3,195.7c0.4,0.9-0.5,2.1-1.9,2.9l-7,3.4c-1.5,0.7-3,0.6-3.5-0.2c-0.4-0.9,0.5-2.1,1.9-2.9l7-3.4
			C85.3,194.8,86.9,194.9,87.3,195.7z"/>
	</g>
	<g>
		<path class="st1" d="M107.9,29.2c0.7,0.7,0.3,2.2-0.9,3.3l-5.5,5.5c-1.2,1.2-2.7,1.6-3.3,0.9c-0.7-0.7-0.3-2.2,0.9-3.3l5.5-5.5
			C105.7,28.9,107.2,28.5,107.9,29.2z"/>
	</g>
	<g>
		<path class="st1" d="M103.2,108.1c0.7,0.7,0.3,2.2-0.9,3.3l-5.5,5.5c-1.2,1.2-2.7,1.6-3.3,0.9c-0.7-0.7-0.3-2.2,0.9-3.3l5.5-5.5
			C101,107.9,102.5,107.4,103.2,108.1z"/>
	</g>
	<g>
		<path class="st1" d="M120.9,115.9c-0.1,0.9-1.5,1.6-3.1,1.5l-7.8-0.6c-1.6-0.1-2.9-1-2.9-1.9c0.1-0.9,1.5-1.6,3.1-1.5l7.8,0.6
			C119.7,114.1,121,115,120.9,115.9z"/>
	</g>
	<g>
		<path class="st1" d="M92.1,101.9c0.2,0.9-0.9,2-2.5,2.4l-7.6,2c-1.6,0.4-3.1,0-3.3-0.9c-0.2-0.9,0.9-2,2.5-2.4l7.6-2
			C90.3,100.5,91.9,100.9,92.1,101.9z"/>
	</g>
	<g>
		<path class="st1" d="M85.2,82.4c0.4,0.9-0.6,2.1-2.1,2.7l-7.2,3c-1.5,0.6-3.1,0.4-3.4-0.4c-0.4-0.9,0.6-2.1,2.1-2.7l7.2-3
			C83.3,81.3,84.9,81.5,85.2,82.4z"/>
	</g>
	<g>
		<path class="st1" d="M98.6,157.1c-0.1,0.9-1.5,1.6-3.1,1.5l-7.8-0.6c-1.6-0.1-2.9-1-2.9-1.9c0.1-0.9,1.5-1.6,3.1-1.5l7.8,0.6
			C97.4,155.2,98.7,156.1,98.6,157.1z"/>
	</g>
	<g>
		<path class="st1" d="M122.7,73.2c-0.3,0.9-1.8,1.3-3.4,0.8l-7.5-2.2c-1.6-0.5-2.7-1.6-2.4-2.5c0.3-0.9,1.8-1.3,3.4-0.8l7.5,2.2
			C121.9,71.2,123,72.3,122.7,73.2z"/>
	</g>
	<g>
		<path class="st1" d="M101.7,62.2c0.7,0.7,0.3,2.2-0.9,3.3L95.3,71c-1.2,1.2-2.7,1.6-3.3,0.9c-0.7-0.7-0.3-2.2,0.9-3.3l5.5-5.5
			C99.5,62,101,61.6,101.7,62.2z"/>
	</g>
	<g>
		<path class="st1" d="M68.6,67.1c0.4-0.9,2-1,3.5-0.3l7.1,3.3c1.5,0.7,2.4,2,2,2.8c-0.4,0.9-2,1-3.5,0.3l-7.1-3.3
			C69.1,69.2,68.2,67.9,68.6,67.1z"/>
	</g>
	<g>
		<path class="st1" d="M119.9,52.5c0.1,0.9-1.2,1.8-2.9,2l-7.8,0.6c-1.6,0.1-3.1-0.5-3.1-1.5c-0.1-0.9,1.2-1.8,2.9-2l7.8-0.6
			C118.4,50.9,119.8,51.6,119.9,52.5z"/>
	</g>
	<g>
		<path class="st2" d="M129.7,38.8c-0.2,0.9-1.7,1.4-3.3,1.1l-7.7-1.5c-1.6-0.3-2.8-1.3-2.6-2.3c0.2-0.9,1.7-1.4,3.3-1.1l7.7,1.5
			C128.7,36.9,129.9,37.9,129.7,38.8z"/>
	</g>
	<g>
		<path class="st2" d="M117.1,88.4c0.4,0.9-0.5,2.1-1.9,2.9l-7,3.4c-1.5,0.7-3,0.6-3.5-0.2c-0.4-0.9,0.5-2.1,1.9-2.9l7-3.4
			C115.2,87.4,116.7,87.5,117.1,88.4z"/>
	</g>
	<g>
		<path class="st2" d="M63.2,179.4c0.7,0.7,0.3,2.2-0.9,3.3l-5.5,5.5c-1.2,1.2-2.7,1.6-3.3,0.9s-0.3-2.2,0.9-3.3l5.5-5.5
			C61,179.1,62.5,178.7,63.2,179.4z"/>
	</g>
	<g>
		<path class="st2" d="M148.7,207.6c0.7,0.7,0.3,2.2-0.9,3.3l-5.5,5.5c-1.2,1.2-2.7,1.6-3.3,0.9c-0.7-0.7-0.3-2.2,0.9-3.3l5.5-5.5
			C146.5,207.3,148,206.9,148.7,207.6z"/>
	</g>
	<g>
		<path class="st1" d="M75.4,242.5c-0.1,0.9-1.5,1.6-3.1,1.5l-7.8-0.6c-1.6-0.1-2.9-1-2.9-1.9s1.5-1.6,3.1-1.5l7.8,0.6
			C74.2,240.7,75.5,241.5,75.4,242.5z"/>
	</g>
	<g>
		<path class="st1" d="M94,229.3c0.2,0.9-0.9,2-2.5,2.4l-7.6,2c-1.6,0.4-3.1,0-3.3-0.9c-0.2-0.9,0.9-2,2.5-2.4l7.6-2
			C92.3,228,93.8,228.4,94,229.3z"/>
	</g>
	<g>
		<path class="st1" d="M67.9,222.8c0.4,0.9-0.6,2.1-2.1,2.7l-7.2,3c-1.5,0.6-3.1,0.4-3.4-0.4c-0.4-0.9,0.6-2.1,2.1-2.7l7.2-3
			C66,221.7,67.6,221.9,67.9,222.8z"/>
	</g>
	<g>
		<path class="st2" d="M103.1,214.6c-0.1,0.9-1.5,1.6-3.1,1.5l-7.8-0.6c-1.6-0.1-2.9-1-2.9-1.9s1.5-1.6,3.1-1.5l7.8,0.6
			C101.9,212.8,103.2,213.7,103.1,214.6z"/>
	</g>
	<g>
		<path class="st1" d="M150.9,167.8c-0.3,0.9-1.8,1.3-3.4,0.8l-7.5-2.2c-1.6-0.5-2.7-1.6-2.4-2.5s1.8-1.3,3.4-0.8l7.5,2.2
			C150.1,165.8,151.2,166.9,150.9,167.8z"/>
	</g>
	<g>
		<path class="st2" d="M154.1,117.3c0.7,0.7,0.3,2.2-0.9,3.3l-5.5,5.5c-1.2,1.2-2.7,1.6-3.3,0.9c-0.7-0.7-0.3-2.2,0.9-3.3l5.5-5.5
			C151.9,117,153.4,116.6,154.1,117.3z"/>
	</g>
	<g>
		<path class="st1" d="M91.5,174.6c0.4-0.9,2-1,3.5-0.3l7.1,3.3c1.5,0.7,2.4,2,2,2.8c-0.4,0.9-2,1-3.5,0.3l-7.1-3.3
			C92,176.7,91.1,175.5,91.5,174.6z"/>
	</g>
	<g>
		<path class="st1" d="M130.5,130.7c0.1,0.9-1.2,1.8-2.9,2l-7.8,0.6c-1.6,0.1-3.1-0.5-3.1-1.5c-0.1-0.9,1.2-1.8,2.9-2l7.8-0.6
			C129,129.1,130.4,129.7,130.5,130.7z"/>
	</g>
	<g>
		<path class="st2" d="M98.7,138.7c-0.6,0.7-2.1,0.4-3.4-0.6l-6-5.1c-1.3-1.1-1.8-2.5-1.2-3.3c0.6-0.7,2.1-0.4,3.4,0.6l6,5.1
			C98.8,136.5,99.3,138,98.7,138.7z"/>
	</g>
	<g>
		<path class="st1" d="M70.8,141.3c-0.2,0.9-1.7,1.4-3.3,1.1l-7.7-1.5c-1.6-0.3-2.8-1.3-2.6-2.3c0.2-0.9,1.7-1.4,3.3-1.1l7.7,1.5
			C69.8,139.3,71,140.3,70.8,141.3z"/>
	</g>
	<g>
		<path class="st1" d="M120.7,159.9c0.4,0.9-0.5,2.1-1.9,2.9l-7,3.4c-1.5,0.7-3,0.6-3.5-0.2c-0.4-0.9,0.5-2.1,1.9-2.9l7-3.4
			C118.8,159,120.3,159.1,120.7,159.9z"/>
	</g>
	<g>
		<path class="st1" d="M178.1,94.4c0.7,0.7,0.3,2.2-0.9,3.3l-5.5,5.5c-1.2,1.2-2.7,1.6-3.3,0.9c-0.7-0.7-0.3-2.2,0.9-3.3l5.5-5.5
			C175.9,94.1,177.4,93.7,178.1,94.4z"/>
	</g>
	<g>
		<path class="st1" d="M248.1,237.5c0.7,0.7,0.3,2.2-0.9,3.3l-5.5,5.5c-1.2,1.2-2.7,1.6-3.3,0.9c-0.7-0.7-0.3-2.2,0.9-3.3l5.5-5.5
			C245.9,237.2,247.4,236.8,248.1,237.5z"/>
	</g>
	<g>
		<path class="st1" d="M222.6,246.5c-0.1,0.9-1.5,1.6-3.1,1.5l-7.8-0.6c-1.6-0.1-2.9-1-2.9-1.9s1.5-1.6,3.1-1.5l7.8,0.6
			C221.3,244.7,222.6,245.5,222.6,246.5z"/>
	</g>
	<g>
		<path class="st2" d="M222.9,209.7c0.2,0.9-0.9,2-2.5,2.4l-7.6,2c-1.6,0.4-3.1,0-3.3-0.9s0.9-2,2.5-2.4l7.6-2
			C221.1,208.3,222.6,208.7,222.9,209.7z"/>
	</g>
	<g>
		<path class="st2" d="M197.5,238.8c0.4,0.9-0.6,2.1-2.1,2.7l-7.2,3c-1.5,0.6-3.1,0.4-3.4-0.4c-0.4-0.9,0.6-2.1,2.1-2.7l7.2-3
			C195.6,237.8,197.1,238,197.5,238.8z"/>
	</g>
	<g>
		<path class="st1" d="M241.4,196.6c-0.1,0.9-1.5,1.6-3.1,1.5l-7.8-0.6c-1.6-0.1-2.9-1-2.9-1.9c0.1-0.9,1.5-1.6,3.1-1.5l7.8,0.6
			C240.2,194.8,241.5,195.7,241.4,196.6z"/>
	</g>
	<g>
		<path class="st1" d="M209.9,106.7c-0.3,0.9-1.8,1.3-3.4,0.8l-7.5-2.2c-1.6-0.5-2.7-1.6-2.4-2.5s1.8-1.3,3.4-0.8l7.5,2.2
			C209.1,104.7,210.1,105.8,209.9,106.7z"/>
	</g>
	<g>
		<path class="st2" d="M208.1,124.5c0.7,0.7,0.3,2.2-0.9,3.3l-5.5,5.5c-1.2,1.2-2.7,1.6-3.3,0.9s-0.3-2.2,0.9-3.3l5.5-5.5
			C205.9,124.2,207.4,123.8,208.1,124.5z"/>
	</g>
	<g>
		<path class="st1" d="M167,129c0.4-0.9,2-1,3.5-0.3l7.1,3.3c1.5,0.7,2.4,2,2,2.8s-2,1-3.5,0.3l-7.1-3.3
			C167.5,131.2,166.6,129.9,167,129z"/>
	</g>
	<g>
		<path class="st1" d="M185.6,115.8c0.1,0.9-1.2,1.8-2.9,2l-7.8,0.6c-1.6,0.1-3.1-0.5-3.1-1.5c-0.1-0.9,1.2-1.8,2.9-2l7.8-0.6
			C184.1,114.1,185.5,114.8,185.6,115.8z"/>
	</g>
	<g>
		<path class="st1" d="M239.9,98.7c-0.6,0.7-2.1,0.4-3.4-0.6l-6-5.1c-1.3-1.1-1.8-2.5-1.2-3.3c0.6-0.7,2.1-0.4,3.4,0.6l6,5.1
			C240,96.5,240.5,97.9,239.9,98.7z"/>
	</g>
	<g>
		<path class="st2" d="M204.3,89.7c-0.2,0.9-1.7,1.4-3.3,1.1l-7.7-1.5c-1.6-0.3-2.8-1.3-2.6-2.3c0.2-0.9,1.7-1.4,3.3-1.1l7.7,1.5
			C203.3,87.7,204.5,88.8,204.3,89.7z"/>
	</g>
	<g>
		<path class="st1" d="M235.8,109.9c0.4,0.9-0.5,2.1-1.9,2.9l-7,3.4c-1.5,0.7-3,0.6-3.5-0.2c-0.4-0.9,0.5-2.1,1.9-2.9l7-3.4
			C233.8,108.9,235.4,109.1,235.8,109.9z"/>
	</g>
	<g>
		<path class="st1" d="M171.9,5.4c0.7,0.7,0.3,2.2-0.9,3.3l-5.5,5.5c-1.2,1.2-2.7,1.6-3.3,0.9s-0.3-2.2,0.9-3.3l5.5-5.5
			C169.8,5.1,171.3,4.7,171.9,5.4z"/>
	</g>
	<g>
		<path class="st1" d="M221.7,45.3c0.7,0.7,0.3,2.2-0.9,3.3l-5.5,5.5c-1.2,1.2-2.7,1.6-3.3,0.9s-0.3-2.2,0.9-3.3l5.5-5.5
			C219.5,45,221,44.6,221.7,45.3z"/>
	</g>
	<g>
		<path class="st1" d="M192.5,66.6c-0.1,0.9-1.5,1.6-3.1,1.5l-7.8-0.6c-1.6-0.1-2.9-1-2.9-1.9c0.1-0.9,1.5-1.6,3.1-1.5l7.8,0.6
			C191.2,64.8,192.5,65.7,192.5,66.6z"/>
	</g>
	<g>
		<path class="st2" d="M205.2,43.9c0.2,0.9-0.9,2-2.5,2.4l-7.6,2c-1.6,0.4-3.1,0-3.3-0.9s0.9-2,2.5-2.4l7.6-2
			C203.4,42.6,205,43,205.2,43.9z"/>
	</g>
	<g>
		<path class="st2" d="M168.7,55c0.4,0.9-0.6,2.1-2.1,2.7l-7.2,3c-1.5,0.6-3.1,0.4-3.4-0.4c-0.4-0.9,0.6-2.1,2.1-2.7l7.2-3
			C166.8,53.9,168.3,54.1,168.7,55z"/>
	</g>
	<g>
		<path class="st2" d="M243.4,61.5c-0.1,0.9-1.5,1.6-3.1,1.5l-7.8-0.6c-1.6-0.1-2.9-1-2.9-1.9s1.5-1.6,3.1-1.5l7.8,0.6
			C242.2,59.7,243.5,60.6,243.4,61.5z"/>
	</g>
	<g>
		<path class="st2" d="M229.7,19c-0.3,0.9-1.8,1.3-3.4,0.8l-7.5-2.2c-1.6-0.5-2.7-1.6-2.4-2.5s1.8-1.3,3.4-0.8l7.5,2.2
			C228.9,17,229.9,18.1,229.7,19z"/>
	</g>
	<g>
		<path class="st1" d="M223.6,67.4c0.7,0.7,0.3,2.2-0.9,3.3l-5.5,5.5c-1.2,1.2-2.7,1.6-3.3,0.9s-0.3-2.2,0.9-3.3l5.5-5.5
			C221.4,67.1,223,66.7,223.6,67.4z"/>
	</g>
	<g>
		<path class="st1" d="M141.1,31.5c0.4-0.9,2-1,3.5-0.3l7.1,3.3c1.5,0.7,2.4,2,2,2.8c-0.4,0.9-2,1-3.5,0.3l-7.1-3.3
			C141.6,33.6,140.7,32.3,141.1,31.5z"/>
	</g>
	<g>
		<path class="st1" d="M184.9,30.7c0.1,0.9-1.2,1.8-2.9,2l-7.8,0.6c-1.6,0.1-3.1-0.5-3.1-1.5c-0.1-0.9,1.2-1.8,2.9-2l7.8-0.6
			C183.4,29.1,184.9,29.8,184.9,30.7z"/>
	</g>
	<g>
		<path class="st1" d="M245.9,13c-0.6,0.7-2.1,0.4-3.4-0.6l-6-5.1c-1.3-1.1-1.8-2.5-1.2-3.3s2.1-0.4,3.4,0.6l6,5.1
			C246,10.8,246.5,12.3,245.9,13z"/>
	</g>
	<g>
		<path class="st1" d="M200.8,19.1c-0.2,0.9-1.7,1.4-3.3,1.1l-7.7-1.5c-1.6-0.3-2.8-1.3-2.6-2.3c0.2-0.9,1.7-1.4,3.3-1.1l7.7,1.5
			C199.8,17.1,200.9,18.1,200.8,19.1z"/>
	</g>
	<g>
		<path class="st1" d="M244.3,29.6c0.4,0.9-0.5,2.1-1.9,2.9l-7,3.4c-1.5,0.7-3,0.6-3.5-0.2c-0.4-0.9,0.5-2.1,1.9-2.9l7-3.4
			C242.3,28.6,243.9,28.7,244.3,29.6z"/>
	</g>
	<g>
		<path class="st2" d="M212.1,168.2c0.7,0.7,0.3,2.2-0.9,3.3l-5.5,5.5c-1.2,1.2-2.7,1.6-3.3,0.9c-0.7-0.7-0.3-2.2,0.9-3.3l5.5-5.5
			C209.9,167.9,211.4,167.5,212.1,168.2z"/>
	</g>
	<g>
		<path class="st1" d="M198.6,155.8c0.2,0.9-0.9,2-2.5,2.4l-7.6,2c-1.6,0.4-3.1,0-3.3-0.9s0.9-2,2.5-2.4l7.6-2
			C196.9,154.5,198.4,154.9,198.6,155.8z"/>
	</g>
	<g>
		<path class="st1" d="M224.8,150.5c-0.1,0.9-1.5,1.6-3.1,1.5l-7.8-0.6c-1.6-0.1-2.9-1-2.9-1.9c0.1-0.9,1.5-1.6,3.1-1.5l7.8,0.6
			C223.6,148.7,224.9,149.6,224.8,150.5z"/>
	</g>
	<g>
		<path class="st1" d="M240.7,137.3c-0.3,0.9-1.8,1.3-3.4,0.8l-7.5-2.2c-1.6-0.5-2.7-1.6-2.4-2.5s1.8-1.3,3.4-0.8l7.5,2.2
			C239.9,135.2,241,136.4,240.7,137.3z"/>
	</g>
	<g>
		<path class="st1" d="M238.9,165.5c0.7,0.7,0.3,2.2-0.9,3.3l-5.5,5.5c-1.2,1.2-2.7,1.6-3.3,0.9s-0.3-2.2,0.9-3.3l5.5-5.5
			C236.7,165.3,238.3,164.8,238.9,165.5z"/>
	</g>
	<g>
		<path class="st1" d="M210.1,191.3c0.7,0.7,0.3,2.2-0.9,3.3l-5.5,5.5c-1.2,1.2-2.7,1.6-3.3,0.9c-0.7-0.7-0.3-2.2,0.9-3.3l5.5-5.5
			C207.9,191,209.4,190.6,210.1,191.3z"/>
	</g>
	<g>
		<path class="st1" d="M169.6,242c-0.1,0.9-1.5,1.6-3.1,1.5l-7.8-0.6c-1.6-0.1-2.9-1-2.9-1.9c0.1-0.9,1.5-1.6,3.1-1.5l7.8,0.6
			C168.4,240.2,169.6,241.1,169.6,242z"/>
	</g>
	<g>
		<path class="st1" d="M182.4,210.7c0.2,0.9-0.9,2-2.5,2.4l-7.6,2c-1.6,0.4-3.1,0-3.3-0.9s0.9-2,2.5-2.4l7.6-2
			C180.6,209.4,182.1,209.8,182.4,210.7z"/>
	</g>
	<g>
		<path class="st1" d="M155.6,224.5c0.4,0.9-0.6,2.1-2.1,2.7l-7.2,3c-1.5,0.6-3.1,0.4-3.4-0.4c-0.4-0.9,0.6-2.1,2.1-2.7l7.2-3
			C153.7,223.4,155.2,223.6,155.6,224.5z"/>
	</g>
	<g>
		<path class="st1" d="M182.6,194.4c-0.1,0.9-1.5,1.6-3.1,1.5l-7.8-0.6c-1.6-0.1-2.9-1-2.9-1.9s1.5-1.6,3.1-1.5l7.8,0.6
			C181.4,192.6,182.7,193.4,182.6,194.4z"/>
	</g>
	<g>
		<path class="st1" d="M178.2,170.2c-0.3,0.9-1.8,1.3-3.4,0.8l-7.5-2.2c-1.6-0.5-2.7-1.6-2.4-2.5s1.8-1.3,3.4-0.8l7.5,2.2
			C177.4,168.2,178.4,169.3,178.2,170.2z"/>
	</g>
	<g>
		<path class="st1" d="M155.6,185.1c0.7,0.7,0.3,2.2-0.9,3.3l-5.5,5.5c-1.2,1.2-2.7,1.6-3.3,0.9c-0.7-0.7-0.3-2.2,0.9-3.3l5.5-5.5
			C153.4,184.9,155,184.5,155.6,185.1z"/>
	</g>
	<g>
		<path class="st1" d="M122.5,239.4c0.4-0.9,2-1,3.5-0.3l7.1,3.3c1.5,0.7,2.4,2,2,2.8c-0.4,0.9-2,1-3.5,0.3l-7.1-3.3
			C123,241.6,122.1,240.3,122.5,239.4z"/>
	</g>
	<g>
		<path class="st1" d="M128.1,224.9c0.1,0.9-1.2,1.8-2.9,2l-7.8,0.6c-1.6,0.1-3.1-0.5-3.1-1.5s1.2-1.8,2.9-2l7.8-0.6
			C126.6,223.3,128,224,128.1,224.9z"/>
	</g>
	<g>
		<path class="st1" d="M176.7,146.1c0.4,0.9-0.5,2.1-1.9,2.9l-7,3.4c-1.5,0.7-3,0.6-3.5-0.2s0.5-2.1,1.9-2.9l7-3.4
			C174.7,145.1,176.3,145.2,176.7,146.1z"/>
	</g>
	<g>
		<path class="st1" d="M199.4,223.2c-0.1,0.9-1.5,1.6-3.1,1.5l-7.8-0.6c-1.6-0.1-2.9-1-2.9-1.9s1.5-1.6,3.1-1.5l7.8,0.6
			C198.1,221.4,199.4,222.2,199.4,223.2z"/>
	</g>
	<g>
		<path class="st1" d="M148.8,138.6c0.2,0.9-0.9,2-2.5,2.4l-7.6,2c-1.6,0.4-3.1,0-3.3-0.9s0.9-2,2.5-2.4l7.6-2
			C147.1,137.3,148.6,137.7,148.8,138.6z"/>
	</g>
	<g>
		<path class="st1" d="M114.9,190.3c0.4,0.9-0.6,2.1-2.1,2.7l-7.2,3c-1.5,0.6-3.1,0.4-3.4-0.4c-0.4-0.9,0.6-2.1,2.1-2.7l7.2-3
			C113,189.3,114.5,189.5,114.9,190.3z"/>
	</g>
	<g>
		<path class="st1" d="M152.6,96.2c-0.1,0.9-1.5,1.6-3.1,1.5l-7.8-0.6c-1.6-0.1-2.9-1-2.9-1.9c0.1-0.9,1.5-1.6,3.1-1.5l7.8,0.6
			C151.4,94.4,152.7,95.3,152.6,96.2z"/>
	</g>
	<g>
		<path class="st1" d="M169.2,82.8c-0.3,0.9-1.8,1.3-3.4,0.8l-7.5-2.2c-1.6-0.5-2.7-1.6-2.4-2.5s1.8-1.3,3.4-0.8l7.5,2.2
			C168.4,80.7,169.5,81.9,169.2,82.8z"/>
	</g>
	<g>
		<path class="st1" d="M141.1,72.6c0.7,0.7,0.3,2.2-0.9,3.3l-5.5,5.5c-1.2,1.2-2.7,1.6-3.3,0.9c-0.7-0.7-0.3-2.2,0.9-3.3l5.5-5.5
			C138.9,72.4,140.4,71.9,141.1,72.6z"/>
	</g>
	<g>
		<path class="st1" d="M125.4,104.4c0.4-0.9,2-1,3.5-0.3l7.1,3.3c1.5,0.7,2.4,2,2,2.8c-0.4,0.9-2,1-3.5,0.3l-7.1-3.3
			C125.9,106.6,125,105.3,125.4,104.4z"/>
	</g>
	<g>
		<path class="st1" d="M129.2,206.6c-0.1,0.9-1.5,1.6-3.1,1.5l-7.8-0.6c-1.6-0.1-2.9-1-2.9-1.9c0.1-0.9,1.5-1.6,3.1-1.5l7.8,0.6
			C127.9,204.8,129.2,205.7,129.2,206.6z"/>
	</g>
	<g>
		<path class="st2" d="M140.9,181.7c-0.3,0.9-1.8,1.3-3.4,0.8l-7.5-2.2c-1.6-0.5-2.7-1.6-2.4-2.5c0.3-0.9,1.8-1.3,3.4-0.8l7.5,2.2
			C140.1,179.6,141.2,180.8,140.9,181.7z"/>
	</g>
	<g>
		<path class="st1" d="M106.2,237.5c0.7,0.7,0.3,2.2-0.9,3.3l-5.5,5.5c-1.2,1.2-2.7,1.6-3.3,0.9c-0.7-0.7-0.3-2.2,0.9-3.3l5.5-5.5
			C104.1,237.2,105.6,236.8,106.2,237.5z"/>
	</g>
	<g>
		<path class="st1" d="M46.6,130.6c-0.3,0.9-1.8,1.3-3.4,0.8l-7.5-2.2c-1.6-0.5-2.7-1.6-2.4-2.5s1.8-1.3,3.4-0.8l7.5,2.2
			C45.8,128.6,46.9,129.7,46.6,130.6z"/>
	</g>
	<g>
		<path class="st2" d="M41.4,96.7c-0.1,0.9-1.5,1.6-3.1,1.5l-7.8-0.6c-1.6-0.1-2.9-1-2.9-1.9c0.1-0.9,1.5-1.6,3.1-1.5l7.8,0.6
			C40.2,94.8,41.5,95.7,41.4,96.7z"/>
	</g>
	<g>
		<path class="st1" d="M63.7,90.8c0.7,0.7,0.3,2.2-0.9,3.3l-5.5,5.5c-1.2,1.2-2.7,1.6-3.3,0.9c-0.7-0.7-0.3-2.2,0.9-3.3l5.5-5.5
			C61.6,90.5,63.1,90.1,63.7,90.8z"/>
	</g>
	<g>
		<path class="st1" d="M51,111.4c0.1,0.9-1.2,1.8-2.9,2l-7.8,0.6c-1.6,0.1-3.1-0.5-3.1-1.5c-0.1-0.9,1.2-1.8,2.9-2l7.8-0.6
			C49.5,109.8,50.9,110.4,51,111.4z"/>
	</g>
	<g>
		<path class="st1" d="M19.2,119.5c-0.6,0.7-2.1,0.4-3.4-0.6l-6-5.1c-1.3-1.1-1.8-2.5-1.2-3.3c0.6-0.7,2.1-0.4,3.4,0.6l6,5.1
			C19.3,117.3,19.8,118.7,19.2,119.5z"/>
	</g>
	<g>
		<path class="st1" d="M16.5,135.6c-0.2,0.9-1.7,1.4-3.3,1.1l-7.7-1.5c-1.6-0.3-2.8-1.3-2.6-2.3s1.7-1.4,3.3-1.1l7.7,1.5
			C15.5,133.7,16.7,134.7,16.5,135.6z"/>
	</g>
	<g>
		<path class="st2" d="M41.2,140.6c0.4,0.9-0.5,2.1-1.9,2.9l-7,3.4c-1.5,0.7-3,0.6-3.5-0.2c-0.4-0.9,0.5-2.1,1.9-2.9l7-3.4
			C39.3,139.7,40.8,139.8,41.2,140.6z"/>
	</g>
	<g>
		<path class="st1" d="M69.3,119.3c0.2,0.9-0.9,2-2.5,2.4l-7.6,2c-1.6,0.4-3.1,0-3.3-0.9s0.9-2,2.5-2.4l7.6-2
			C67.6,118,69.1,118.4,69.3,119.3z"/>
	</g>
	<g>
		<path class="st1" d="M62.8,15.6c-0.3,0.9-1.8,1.3-3.4,0.8l-7.5-2.2c-1.6-0.5-2.7-1.6-2.4-2.5s1.8-1.3,3.4-0.8l7.5,2.2
			C62,13.5,63.1,14.6,62.8,15.6z"/>
	</g>
	<g>
		<path class="st1" d="M87.6,33.5c-0.3,0.9-1.8,1.3-3.4,0.8l-7.5-2.2c-1.6-0.5-2.7-1.6-2.4-2.5c0.3-0.9,1.8-1.3,3.4-0.8l7.5,2.2
			C86.8,31.4,87.9,32.6,87.6,33.5z"/>
	</g>
	<g>
		<path class="st1" d="M100,8c0.7,0.7,0.3,2.2-0.9,3.3l-5.5,5.5c-1.2,1.2-2.7,1.6-3.3,0.9c-0.7-0.7-0.3-2.2,0.9-3.3l5.5-5.5
			C97.8,7.7,99.3,7.3,100,8z"/>
	</g>
	<g>
		<path class="st1" d="M131,14.8c0.1,0.9-1.2,1.8-2.9,2l-7.8,0.6c-1.6,0.1-3.1-0.5-3.1-1.5c-0.1-0.9,1.2-1.8,2.9-2l7.8-0.6
			C129.5,13.2,130.9,13.9,131,14.8z"/>
	</g>
	<g>
		<path class="st1" d="M57.4,25.6c0.4,0.9-0.5,2.1-1.9,2.9l-7,3.4c-1.5,0.7-3,0.6-3.5-0.2s0.5-2.1,1.9-2.9l7-3.4
			C55.5,24.6,57,24.7,57.4,25.6z"/>
	</g>
	<g>
		<path class="st1" d="M85.5,4.2c0.2,0.9-0.9,2-2.5,2.4l-7.6,2c-1.6,0.4-3.1,0-3.3-0.9c-0.2-0.9,0.9-2,2.5-2.4l7.6-2
			C83.8,2.9,85.3,3.3,85.5,4.2z"/>
	</g>
	<g>
		<path class="st2" d="M77.6,47.3c-0.3,0.9-1.8,1.3-3.4,0.8l-7.5-2.2c-1.6-0.5-2.7-1.6-2.4-2.5c0.3-0.9,1.8-1.3,3.4-0.8l7.5,2.2
			C76.8,45.3,77.9,46.4,77.6,47.3z"/>
	</g>
	<g>
		<path class="st2" d="M35.1,55.9c-0.2,0.9-1.7,1.4-3.3,1.1l-7.7-1.5c-1.6-0.3-2.8-1.3-2.6-2.3c0.2-0.9,1.7-1.4,3.3-1.1l7.7,1.5
			C34.1,54,35.3,55,35.1,55.9z"/>
	</g>
	<g>
		<path class="st1" d="M23.7,32.5c-0.1,0.9-1.5,1.6-3.1,1.5l-7.8-0.6c-1.6-0.1-2.9-1-2.9-1.9s1.5-1.6,3.1-1.5l7.8,0.6
			C22.4,30.7,23.7,31.6,23.7,32.5z"/>
	</g>
	<g>
		<path class="st2" d="M151.4,14c0.4,0.9-0.5,2.1-1.9,2.9l-7,3.4c-1.5,0.7-3,0.6-3.5-0.2c-0.4-0.9,0.5-2.1,1.9-2.9l7-3.4
			C149.4,13,151,13.2,151.4,14z"/>
	</g>
	<g>
		<path class="st1" d="M15.4,48.6c0.4,0.9-0.5,2.1-1.9,2.9l-7,3.4c-1.5,0.7-3,0.6-3.5-0.2c-0.4-0.9,0.5-2.1,1.9-2.9l7-3.4
			C13.5,47.7,15,47.8,15.4,48.6z"/>
	</g>
	<g>
		<path class="st1" d="M246.6,215.3c0.7,0.7,0.3,2.2-0.9,3.3l-5.5,5.5c-1.2,1.2-2.7,1.6-3.3,0.9c-0.7-0.7-0.3-2.2,0.9-3.3l5.5-5.5
			C244.4,215,245.9,214.6,246.6,215.3z"/>
	</g>
	<g>
		<path class="st1" d="M225.1,227.5c0.2,0.9-0.9,2-2.5,2.4l-7.6,2c-1.6,0.4-3.1,0-3.3-0.9s0.9-2,2.5-2.4l7.6-2
			C223.4,226.2,224.9,226.6,225.1,227.5z"/>
	</g>
	<g>
		<path class="st1" d="M194.6,185.2c-0.3,0.9-1.8,1.3-3.4,0.8l-7.5-2.2c-1.6-0.5-2.7-1.6-2.4-2.5s1.8-1.3,3.4-0.8l7.5,2.2
			C193.8,183.2,194.9,184.3,194.6,185.2z"/>
	</g>
	<g>
		<path class="st2" d="M249.4,151.4c-0.1,0.9-1.5,1.6-3.1,1.5l-7.8-0.6c-1.6-0.1-2.9-1-2.9-1.9c0.1-0.9,1.5-1.6,3.1-1.5l7.8,0.6
			C248.2,149.6,249.5,150.4,249.4,151.4z"/>
	</g>
</g>
<g id="Layer_2">
	<g>
		<path class="st3" d="M13.3,7.6c0.7,0.7,0.3,2.2-0.9,3.3l-5.5,5.5c-1.2,1.2-2.7,1.6-3.3,0.9c-0.7-0.7-0.3-2.2,0.9-3.3L10,8.5
			C11.1,7.3,12.6,6.9,13.3,7.6z"/>
	</g>
	<g>
		<path class="st3" d="M75.2,154.6c0.7,0.7,0.3,2.2-0.9,3.3l-5.5,5.5c-1.2,1.2-2.7,1.6-3.3,0.9s-0.3-2.2,0.9-3.3l5.5-5.5
			C73,154.3,74.5,153.9,75.2,154.6z"/>
	</g>
	<g>
		<path class="st4" d="M18.7,181.6c-0.1,0.9-1.5,1.6-3.1,1.5l-7.8-0.6c-1.6-0.1-2.9-1-2.9-1.9c0.1-0.9,1.5-1.6,3.1-1.5l7.8,0.6
			C17.4,179.8,18.7,180.7,18.7,181.6z"/>
	</g>
	<g>
		<path class="st3" d="M37.2,168.5c0.2,0.9-0.9,2-2.5,2.4l-7.6,2c-1.6,0.4-3.1,0-3.3-0.9s0.9-2,2.5-2.4l7.6-2
			C35.5,167.1,37,167.5,37.2,168.5z"/>
	</g>
	<g>
		<path class="st3" d="M20.1,160.2c0.4,0.9-0.6,2.1-2.1,2.7l-7.2,3c-1.5,0.6-3.1,0.4-3.4-0.4c-0.4-0.9,0.6-2.1,2.1-2.7l7.2-3
			C18.2,159.1,19.8,159.3,20.1,160.2z"/>
	</g>
	<g>
		<path class="st3" d="M48.6,159.4c-0.1,0.9-1.5,1.6-3.1,1.5l-7.8-0.6c-1.6-0.1-2.9-1-2.9-1.9c0.1-0.9,1.5-1.6,3.1-1.5l7.8,0.6
			C47.4,157.6,48.7,158.5,48.6,159.4z"/>
	</g>
	<g>
		<path class="st3" d="M57.2,50.5c-0.3,0.9-1.8,1.3-3.4,0.8l-7.5-2.2c-1.6-0.5-2.7-1.6-2.4-2.5s1.8-1.3,3.4-0.8l7.5,2.2
			C56.4,48.4,57.5,49.6,57.2,50.5z"/>
	</g>
	<g>
		<path class="st3" d="M48.7,70c0.7,0.7,0.3,2.2-0.9,3.3l-5.5,5.5c-1.2,1.2-2.7,1.6-3.3,0.9c-0.7-0.7-0.3-2.2,0.9-3.3l5.5-5.5
			C46.5,69.7,48,69.3,48.7,70z"/>
	</g>
	<g>
		<path class="st3" d="M6.2,83c0.4-0.9,2-1,3.5-0.3l7.1,3.3c1.5,0.7,2.4,2,2,2.8c-0.4,0.9-2,1-3.5,0.3l-7.1-3.3
			C6.7,85.1,5.8,83.8,6.2,83z"/>
	</g>
	<g>
		<path class="st3" d="M27.6,69.9c0.1,0.9-1.2,1.8-2.9,2l-7.8,0.6c-1.6,0.1-3.1-0.5-3.1-1.5c-0.1-0.9,1.2-1.8,2.9-2l7.8-0.6
			C26.1,68.3,27.5,69,27.6,69.9z"/>
	</g>
	<g>
		<path class="st4" d="M35.1,17.3c-0.2,0.9-1.7,1.4-3.3,1.1l-7.7-1.5c-1.6-0.3-2.8-1.3-2.6-2.3c0.2-0.9,1.7-1.4,3.3-1.1l7.7,1.5
			C34.1,15.3,35.3,16.3,35.1,17.3z"/>
	</g>
	<g>
		<path class="st3" d="M145,49.5c0.4,0.9-0.5,2.1-1.9,2.9l-7,3.4c-1.5,0.7-3,0.6-3.5-0.2c-0.4-0.9,0.5-2.1,1.9-2.9l7-3.4
			C143,48.6,144.6,48.7,145,49.5z"/>
	</g>
	<g>
		<path class="st3" d="M37.5,186.1c0.7,0.7,0.3,2.2-0.9,3.3L31,195c-1.2,1.2-2.7,1.6-3.3,0.9c-0.7-0.7-0.3-2.2,0.9-3.3l5.5-5.5
			C35.3,185.8,36.8,185.4,37.5,186.1z"/>
	</g>
	<g>
		<path class="st3" d="M39.7,226.2c0.7,0.7,0.3,2.2-0.9,3.3l-5.5,5.5c-1.2,1.2-2.7,1.6-3.3,0.9c-0.7-0.7-0.3-2.2,0.9-3.3l5.5-5.5
			C37.6,225.9,39.1,225.5,39.7,226.2z"/>
	</g>
	<g>
		<path class="st3" d="M15.7,245.4c-0.1,0.9-1.5,1.6-3.1,1.5l-7.8-0.6c-1.6-0.1-2.9-1-2.9-1.9c0.1-0.9,1.5-1.6,3.1-1.5l7.8,0.6
			C14.5,243.5,15.8,244.4,15.7,245.4z"/>
	</g>
	<g>
		<path class="st3" d="M21.9,224.3c0.2,0.9-0.9,2-2.5,2.4l-7.6,2c-1.6,0.4-3.1,0-3.3-0.9s0.9-2,2.5-2.4l7.6-2
			C20.1,223,21.6,223.4,21.9,224.3z"/>
	</g>
	<g>
		<path class="st3" d="M51.8,245.4c-0.1,0.9-1.5,1.6-3.1,1.5l-7.8-0.6c-1.6-0.1-2.9-1-2.9-1.9c0.1-0.9,1.5-1.6,3.1-1.5l7.8,0.6
			C50.6,243.5,51.9,244.4,51.8,245.4z"/>
	</g>
	<g>
		<path class="st3" d="M126.1,147.9c-0.3,0.9-1.8,1.3-3.4,0.8l-7.5-2.2c-1.6-0.5-2.7-1.6-2.4-2.5c0.3-0.9,1.8-1.3,3.4-0.8l7.5,2.2
			C125.3,145.9,126.4,147,126.1,147.9z"/>
	</g>
	<g>
		<path class="st3" d="M61.8,197.7c0.7,0.7,0.3,2.2-0.9,3.3l-5.5,5.5c-1.2,1.2-2.7,1.6-3.3,0.9c-0.7-0.7-0.3-2.2,0.9-3.3l5.5-5.5
			C59.6,197.4,61.1,197,61.8,197.7z"/>
	</g>
	<g>
		<path class="st4" d="M31.5,207.5c0.4-0.9,2-1,3.5-0.3l7.1,3.3c1.5,0.7,2.4,2,2,2.8c-0.4,0.9-2,1-3.5,0.3l-7.1-3.3
			C32,209.6,31.1,208.3,31.5,207.5z"/>
	</g>
	<g>
		<path class="st3" d="M19.5,202.7c0.1,0.9-1.2,1.8-2.9,2l-7.8,0.6c-1.6,0.1-3.1-0.5-3.1-1.5c-0.1-0.9,1.2-1.8,2.9-2l7.8-0.6
			C18.1,201.1,19.5,201.7,19.5,202.7z"/>
	</g>
	<g>
		<path class="st3" d="M87.3,193.7c0.4,0.9-0.5,2.1-1.9,2.9l-7,3.4c-1.5,0.7-3,0.6-3.5-0.2c-0.4-0.9,0.5-2.1,1.9-2.9l7-3.4
			C85.3,192.8,86.9,192.9,87.3,193.7z"/>
	</g>
	<g>
		<path class="st3" d="M107.9,27.2c0.7,0.7,0.3,2.2-0.9,3.3l-5.5,5.5c-1.2,1.2-2.7,1.6-3.3,0.9c-0.7-0.7-0.3-2.2,0.9-3.3l5.5-5.5
			C105.7,26.9,107.2,26.5,107.9,27.2z"/>
	</g>
	<g>
		<path class="st3" d="M103.2,106.1c0.7,0.7,0.3,2.2-0.9,3.3l-5.5,5.5c-1.2,1.2-2.7,1.6-3.3,0.9c-0.7-0.7-0.3-2.2,0.9-3.3l5.5-5.5
			C101,105.9,102.5,105.4,103.2,106.1z"/>
	</g>
	<g>
		<path class="st3" d="M120.9,113.9c-0.1,0.9-1.5,1.6-3.1,1.5l-7.8-0.6c-1.6-0.1-2.9-1-2.9-1.9c0.1-0.9,1.5-1.6,3.1-1.5l7.8,0.6
			C119.7,112.1,121,113,120.9,113.9z"/>
	</g>
	<g>
		<path class="st3" d="M92.1,99.9c0.2,0.9-0.9,2-2.5,2.4l-7.6,2c-1.6,0.4-3.1,0-3.3-0.9c-0.2-0.9,0.9-2,2.5-2.4l7.6-2
			C90.3,98.5,91.9,98.9,92.1,99.9z"/>
	</g>
	<g>
		<path class="st3" d="M85.2,80.4c0.4,0.9-0.6,2.1-2.1,2.7l-7.2,3c-1.5,0.6-3.1,0.4-3.4-0.4c-0.4-0.9,0.6-2.1,2.1-2.7l7.2-3
			C83.3,79.3,84.9,79.5,85.2,80.4z"/>
	</g>
	<g>
		<path class="st3" d="M98.6,155.1c-0.1,0.9-1.5,1.6-3.1,1.5l-7.8-0.6c-1.6-0.1-2.9-1-2.9-1.9c0.1-0.9,1.5-1.6,3.1-1.5l7.8,0.6
			C97.4,153.2,98.7,154.1,98.6,155.1z"/>
	</g>
	<g>
		<path class="st3" d="M122.7,71.2c-0.3,0.9-1.8,1.3-3.4,0.8l-7.5-2.2c-1.6-0.5-2.7-1.6-2.4-2.5c0.3-0.9,1.8-1.3,3.4-0.8l7.5,2.2
			C121.9,69.2,123,70.3,122.7,71.2z"/>
	</g>
	<g>
		<path class="st3" d="M101.7,60.2c0.7,0.7,0.3,2.2-0.9,3.3L95.3,69c-1.2,1.2-2.7,1.6-3.3,0.9c-0.7-0.7-0.3-2.2,0.9-3.3l5.5-5.5
			C99.5,60,101,59.6,101.7,60.2z"/>
	</g>
	<g>
		<path class="st3" d="M68.6,65.1c0.4-0.9,2-1,3.5-0.3l7.1,3.3c1.5,0.7,2.4,2,2,2.8c-0.4,0.9-2,1-3.5,0.3l-7.1-3.3
			C69.1,67.2,68.2,65.9,68.6,65.1z"/>
	</g>
	<g>
		<path class="st3" d="M119.9,50.5c0.1,0.9-1.2,1.8-2.9,2l-7.8,0.6c-1.6,0.1-3.1-0.5-3.1-1.5c-0.1-0.9,1.2-1.8,2.9-2l7.8-0.6
			C118.4,48.9,119.8,49.6,119.9,50.5z"/>
	</g>
	<g>
		<path class="st4" d="M129.7,36.8c-0.2,0.9-1.7,1.4-3.3,1.1l-7.7-1.5c-1.6-0.3-2.8-1.3-2.6-2.3c0.2-0.9,1.7-1.4,3.3-1.1l7.7,1.5
			C128.7,34.9,129.9,35.9,129.7,36.8z"/>
	</g>
	<g>
		<path class="st4" d="M117.1,86.4c0.4,0.9-0.5,2.1-1.9,2.9l-7,3.4c-1.5,0.7-3,0.6-3.5-0.2c-0.4-0.9,0.5-2.1,1.9-2.9l7-3.4
			C115.2,85.4,116.7,85.5,117.1,86.4z"/>
	</g>
	<g>
		<path class="st4" d="M63.2,177.4c0.7,0.7,0.3,2.2-0.9,3.3l-5.5,5.5c-1.2,1.2-2.7,1.6-3.3,0.9s-0.3-2.2,0.9-3.3l5.5-5.5
			C61,177.1,62.5,176.7,63.2,177.4z"/>
	</g>
	<g>
		<path class="st4" d="M148.7,205.6c0.7,0.7,0.3,2.2-0.9,3.3l-5.5,5.5c-1.2,1.2-2.7,1.6-3.3,0.9c-0.7-0.7-0.3-2.2,0.9-3.3l5.5-5.5
			C146.5,205.3,148,204.9,148.7,205.6z"/>
	</g>
	<g>
		<path class="st3" d="M75.4,240.5c-0.1,0.9-1.5,1.6-3.1,1.5l-7.8-0.6c-1.6-0.1-2.9-1-2.9-1.9s1.5-1.6,3.1-1.5l7.8,0.6
			C74.2,238.7,75.5,239.5,75.4,240.5z"/>
	</g>
	<g>
		<path class="st3" d="M94,227.3c0.2,0.9-0.9,2-2.5,2.4l-7.6,2c-1.6,0.4-3.1,0-3.3-0.9c-0.2-0.9,0.9-2,2.5-2.4l7.6-2
			C92.3,226,93.8,226.4,94,227.3z"/>
	</g>
	<g>
		<path class="st3" d="M67.9,220.8c0.4,0.9-0.6,2.1-2.1,2.7l-7.2,3c-1.5,0.6-3.1,0.4-3.4-0.4c-0.4-0.9,0.6-2.1,2.1-2.7l7.2-3
			C66,219.7,67.6,219.9,67.9,220.8z"/>
	</g>
	<g>
		<path class="st4" d="M103.1,212.6c-0.1,0.9-1.5,1.6-3.1,1.5l-7.8-0.6c-1.6-0.1-2.9-1-2.9-1.9s1.5-1.6,3.1-1.5l7.8,0.6
			C101.9,210.8,103.2,211.7,103.1,212.6z"/>
	</g>
	<g>
		<path class="st3" d="M150.9,165.8c-0.3,0.9-1.8,1.3-3.4,0.8l-7.5-2.2c-1.6-0.5-2.7-1.6-2.4-2.5s1.8-1.3,3.4-0.8l7.5,2.2
			C150.1,163.8,151.2,164.9,150.9,165.8z"/>
	</g>
	<g>
		<path class="st4" d="M154.1,115.3c0.7,0.7,0.3,2.2-0.9,3.3l-5.5,5.5c-1.2,1.2-2.7,1.6-3.3,0.9c-0.7-0.7-0.3-2.2,0.9-3.3l5.5-5.5
			C151.9,115,153.4,114.6,154.1,115.3z"/>
	</g>
	<g>
		<path class="st3" d="M91.5,172.6c0.4-0.9,2-1,3.5-0.3l7.1,3.3c1.5,0.7,2.4,2,2,2.8c-0.4,0.9-2,1-3.5,0.3l-7.1-3.3
			C92,174.7,91.1,173.5,91.5,172.6z"/>
	</g>
	<g>
		<path class="st3" d="M130.5,128.7c0.1,0.9-1.2,1.8-2.9,2l-7.8,0.6c-1.6,0.1-3.1-0.5-3.1-1.5c-0.1-0.9,1.2-1.8,2.9-2l7.8-0.6
			C129,127.1,130.4,127.7,130.5,128.7z"/>
	</g>
	<g>
		<path class="st4" d="M98.7,136.7c-0.6,0.7-2.1,0.4-3.4-0.6l-6-5.1c-1.3-1.1-1.8-2.5-1.2-3.3c0.6-0.7,2.1-0.4,3.4,0.6l6,5.1
			C98.8,134.5,99.3,136,98.7,136.7z"/>
	</g>
	<g>
		<path class="st3" d="M70.8,139.3c-0.2,0.9-1.7,1.4-3.3,1.1l-7.7-1.5c-1.6-0.3-2.8-1.3-2.6-2.3c0.2-0.9,1.7-1.4,3.3-1.1l7.7,1.5
			C69.8,137.3,71,138.3,70.8,139.3z"/>
	</g>
	<g>
		<path class="st3" d="M120.7,157.9c0.4,0.9-0.5,2.1-1.9,2.9l-7,3.4c-1.5,0.7-3,0.6-3.5-0.2c-0.4-0.9,0.5-2.1,1.9-2.9l7-3.4
			C118.8,157,120.3,157.1,120.7,157.9z"/>
	</g>
	<g>
		<path class="st3" d="M178.1,92.4c0.7,0.7,0.3,2.2-0.9,3.3l-5.5,5.5c-1.2,1.2-2.7,1.6-3.3,0.9c-0.7-0.7-0.3-2.2,0.9-3.3l5.5-5.5
			C175.9,92.1,177.4,91.7,178.1,92.4z"/>
	</g>
	<g>
		<path class="st3" d="M248.1,235.5c0.7,0.7,0.3,2.2-0.9,3.3l-5.5,5.5c-1.2,1.2-2.7,1.6-3.3,0.9c-0.7-0.7-0.3-2.2,0.9-3.3l5.5-5.5
			C245.9,235.2,247.4,234.8,248.1,235.5z"/>
	</g>
	<g>
		<path class="st3" d="M222.6,244.5c-0.1,0.9-1.5,1.6-3.1,1.5l-7.8-0.6c-1.6-0.1-2.9-1-2.9-1.9s1.5-1.6,3.1-1.5l7.8,0.6
			C221.3,242.7,222.6,243.5,222.6,244.5z"/>
	</g>
	<g>
		<path class="st4" d="M222.9,207.7c0.2,0.9-0.9,2-2.5,2.4l-7.6,2c-1.6,0.4-3.1,0-3.3-0.9s0.9-2,2.5-2.4l7.6-2
			C221.1,206.3,222.6,206.7,222.9,207.7z"/>
	</g>
	<g>
		<path class="st4" d="M197.5,236.8c0.4,0.9-0.6,2.1-2.1,2.7l-7.2,3c-1.5,0.6-3.1,0.4-3.4-0.4c-0.4-0.9,0.6-2.1,2.1-2.7l7.2-3
			C195.6,235.8,197.1,236,197.5,236.8z"/>
	</g>
	<g>
		<path class="st3" d="M241.4,194.6c-0.1,0.9-1.5,1.6-3.1,1.5l-7.8-0.6c-1.6-0.1-2.9-1-2.9-1.9c0.1-0.9,1.5-1.6,3.1-1.5l7.8,0.6
			C240.2,192.8,241.5,193.7,241.4,194.6z"/>
	</g>
	<g>
		<path class="st3" d="M209.9,104.7c-0.3,0.9-1.8,1.3-3.4,0.8l-7.5-2.2c-1.6-0.5-2.7-1.6-2.4-2.5s1.8-1.3,3.4-0.8l7.5,2.2
			C209.1,102.7,210.1,103.8,209.9,104.7z"/>
	</g>
	<g>
		<path class="st4" d="M208.1,122.5c0.7,0.7,0.3,2.2-0.9,3.3l-5.5,5.5c-1.2,1.2-2.7,1.6-3.3,0.9s-0.3-2.2,0.9-3.3l5.5-5.5
			C205.9,122.2,207.4,121.8,208.1,122.5z"/>
	</g>
	<g>
		<path class="st3" d="M167,127c0.4-0.9,2-1,3.5-0.3l7.1,3.3c1.5,0.7,2.4,2,2,2.8s-2,1-3.5,0.3l-7.1-3.3
			C167.5,129.2,166.6,127.9,167,127z"/>
	</g>
	<g>
		<path class="st3" d="M185.6,113.8c0.1,0.9-1.2,1.8-2.9,2l-7.8,0.6c-1.6,0.1-3.1-0.5-3.1-1.5c-0.1-0.9,1.2-1.8,2.9-2l7.8-0.6
			C184.1,112.1,185.5,112.8,185.6,113.8z"/>
	</g>
	<g>
		<path class="st3" d="M239.9,96.7c-0.6,0.7-2.1,0.4-3.4-0.6l-6-5.1c-1.3-1.1-1.8-2.5-1.2-3.3c0.6-0.7,2.1-0.4,3.4,0.6l6,5.1
			C240,94.5,240.5,95.9,239.9,96.7z"/>
	</g>
	<g>
		<path class="st4" d="M204.3,87.7c-0.2,0.9-1.7,1.4-3.3,1.1l-7.7-1.5c-1.6-0.3-2.8-1.3-2.6-2.3c0.2-0.9,1.7-1.4,3.3-1.1l7.7,1.5
			C203.3,85.7,204.5,86.8,204.3,87.7z"/>
	</g>
	<g>
		<path class="st3" d="M235.8,107.9c0.4,0.9-0.5,2.1-1.9,2.9l-7,3.4c-1.5,0.7-3,0.6-3.5-0.2c-0.4-0.9,0.5-2.1,1.9-2.9l7-3.4
			C233.8,106.9,235.4,107.1,235.8,107.9z"/>
	</g>
	<g>
		<path class="st3" d="M171.9,3.4c0.7,0.7,0.3,2.2-0.9,3.3l-5.5,5.5c-1.2,1.2-2.7,1.6-3.3,0.9s-0.3-2.2,0.9-3.3l5.5-5.5
			C169.8,3.1,171.3,2.7,171.9,3.4z"/>
	</g>
	<g>
		<path class="st3" d="M221.7,43.3c0.7,0.7,0.3,2.2-0.9,3.3l-5.5,5.5c-1.2,1.2-2.7,1.6-3.3,0.9s-0.3-2.2,0.9-3.3l5.5-5.5
			C219.5,43,221,42.6,221.7,43.3z"/>
	</g>
	<g>
		<path class="st3" d="M192.5,64.6c-0.1,0.9-1.5,1.6-3.1,1.5l-7.8-0.6c-1.6-0.1-2.9-1-2.9-1.9c0.1-0.9,1.5-1.6,3.1-1.5l7.8,0.6
			C191.2,62.8,192.5,63.7,192.5,64.6z"/>
	</g>
	<g>
		<path class="st4" d="M205.2,41.9c0.2,0.9-0.9,2-2.5,2.4l-7.6,2c-1.6,0.4-3.1,0-3.3-0.9s0.9-2,2.5-2.4l7.6-2
			C203.4,40.6,205,41,205.2,41.9z"/>
	</g>
	<g>
		<path class="st4" d="M168.7,53c0.4,0.9-0.6,2.1-2.1,2.7l-7.2,3c-1.5,0.6-3.1,0.4-3.4-0.4c-0.4-0.9,0.6-2.1,2.1-2.7l7.2-3
			C166.8,51.9,168.3,52.1,168.7,53z"/>
	</g>
	<g>
		<path class="st4" d="M243.4,59.5c-0.1,0.9-1.5,1.6-3.1,1.5l-7.8-0.6c-1.6-0.1-2.9-1-2.9-1.9s1.5-1.6,3.1-1.5l7.8,0.6
			C242.2,57.7,243.5,58.6,243.4,59.5z"/>
	</g>
	<g>
		<path class="st4" d="M229.7,17c-0.3,0.9-1.8,1.3-3.4,0.8l-7.5-2.2c-1.6-0.5-2.7-1.6-2.4-2.5s1.8-1.3,3.4-0.8l7.5,2.2
			C228.9,15,229.9,16.1,229.7,17z"/>
	</g>
	<g>
		<path class="st3" d="M223.6,65.4c0.7,0.7,0.3,2.2-0.9,3.3l-5.5,5.5c-1.2,1.2-2.7,1.6-3.3,0.9s-0.3-2.2,0.9-3.3l5.5-5.5
			C221.4,65.1,223,64.7,223.6,65.4z"/>
	</g>
	<g>
		<path class="st3" d="M141.1,29.5c0.4-0.9,2-1,3.5-0.3l7.1,3.3c1.5,0.7,2.4,2,2,2.8c-0.4,0.9-2,1-3.5,0.3l-7.1-3.3
			C141.6,31.6,140.7,30.3,141.1,29.5z"/>
	</g>
	<g>
		<path class="st3" d="M184.9,28.7c0.1,0.9-1.2,1.8-2.9,2l-7.8,0.6c-1.6,0.1-3.1-0.5-3.1-1.5c-0.1-0.9,1.2-1.8,2.9-2l7.8-0.6
			C183.4,27.1,184.9,27.8,184.9,28.7z"/>
	</g>
	<g>
		<path class="st3" d="M245.9,11c-0.6,0.7-2.1,0.4-3.4-0.6l-6-5.1c-1.3-1.1-1.8-2.5-1.2-3.3s2.1-0.4,3.4,0.6l6,5.1
			C246,8.8,246.5,10.3,245.9,11z"/>
	</g>
	<g>
		<path class="st3" d="M200.8,17.1c-0.2,0.9-1.7,1.4-3.3,1.1l-7.7-1.5c-1.6-0.3-2.8-1.3-2.6-2.3c0.2-0.9,1.7-1.4,3.3-1.1l7.7,1.5
			C199.8,15.1,200.9,16.1,200.8,17.1z"/>
	</g>
	<g>
		<path class="st3" d="M244.3,27.6c0.4,0.9-0.5,2.1-1.9,2.9l-7,3.4c-1.5,0.7-3,0.6-3.5-0.2c-0.4-0.9,0.5-2.1,1.9-2.9l7-3.4
			C242.3,26.6,243.9,26.7,244.3,27.6z"/>
	</g>
	<g>
		<path class="st4" d="M212.1,166.2c0.7,0.7,0.3,2.2-0.9,3.3l-5.5,5.5c-1.2,1.2-2.7,1.6-3.3,0.9c-0.7-0.7-0.3-2.2,0.9-3.3l5.5-5.5
			C209.9,165.9,211.4,165.5,212.1,166.2z"/>
	</g>
	<g>
		<path class="st3" d="M198.6,153.8c0.2,0.9-0.9,2-2.5,2.4l-7.6,2c-1.6,0.4-3.1,0-3.3-0.9s0.9-2,2.5-2.4l7.6-2
			C196.9,152.5,198.4,152.9,198.6,153.8z"/>
	</g>
	<g>
		<path class="st3" d="M224.8,148.5c-0.1,0.9-1.5,1.6-3.1,1.5l-7.8-0.6c-1.6-0.1-2.9-1-2.9-1.9c0.1-0.9,1.5-1.6,3.1-1.5l7.8,0.6
			C223.6,146.7,224.9,147.6,224.8,148.5z"/>
	</g>
	<g>
		<path class="st3" d="M240.7,135.3c-0.3,0.9-1.8,1.3-3.4,0.8l-7.5-2.2c-1.6-0.5-2.7-1.6-2.4-2.5s1.8-1.3,3.4-0.8l7.5,2.2
			C239.9,133.2,241,134.4,240.7,135.3z"/>
	</g>
	<g>
		<path class="st3" d="M238.9,163.5c0.7,0.7,0.3,2.2-0.9,3.3l-5.5,5.5c-1.2,1.2-2.7,1.6-3.3,0.9s-0.3-2.2,0.9-3.3l5.5-5.5
			C236.7,163.3,238.3,162.8,238.9,163.5z"/>
	</g>
	<g>
		<path class="st3" d="M210.1,189.3c0.7,0.7,0.3,2.2-0.9,3.3l-5.5,5.5c-1.2,1.2-2.7,1.6-3.3,0.9c-0.7-0.7-0.3-2.2,0.9-3.3l5.5-5.5
			C207.9,189,209.4,188.6,210.1,189.3z"/>
	</g>
	<g>
		<path class="st3" d="M169.6,240c-0.1,0.9-1.5,1.6-3.1,1.5l-7.8-0.6c-1.6-0.1-2.9-1-2.9-1.9c0.1-0.9,1.5-1.6,3.1-1.5l7.8,0.6
			C168.4,238.2,169.6,239.1,169.6,240z"/>
	</g>
	<g>
		<path class="st3" d="M182.4,208.7c0.2,0.9-0.9,2-2.5,2.4l-7.6,2c-1.6,0.4-3.1,0-3.3-0.9s0.9-2,2.5-2.4l7.6-2
			C180.6,207.4,182.1,207.8,182.4,208.7z"/>
	</g>
	<g>
		<path class="st3" d="M155.6,222.5c0.4,0.9-0.6,2.1-2.1,2.7l-7.2,3c-1.5,0.6-3.1,0.4-3.4-0.4c-0.4-0.9,0.6-2.1,2.1-2.7l7.2-3
			C153.7,221.4,155.2,221.6,155.6,222.5z"/>
	</g>
	<g>
		<path class="st3" d="M182.6,192.4c-0.1,0.9-1.5,1.6-3.1,1.5l-7.8-0.6c-1.6-0.1-2.9-1-2.9-1.9s1.5-1.6,3.1-1.5l7.8,0.6
			C181.4,190.6,182.7,191.4,182.6,192.4z"/>
	</g>
	<g>
		<path class="st3" d="M178.2,168.2c-0.3,0.9-1.8,1.3-3.4,0.8l-7.5-2.2c-1.6-0.5-2.7-1.6-2.4-2.5s1.8-1.3,3.4-0.8l7.5,2.2
			C177.4,166.2,178.4,167.3,178.2,168.2z"/>
	</g>
	<g>
		<path class="st3" d="M155.6,183.1c0.7,0.7,0.3,2.2-0.9,3.3l-5.5,5.5c-1.2,1.2-2.7,1.6-3.3,0.9c-0.7-0.7-0.3-2.2,0.9-3.3l5.5-5.5
			C153.4,182.9,155,182.5,155.6,183.1z"/>
	</g>
	<g>
		<path class="st3" d="M122.5,237.4c0.4-0.9,2-1,3.5-0.3l7.1,3.3c1.5,0.7,2.4,2,2,2.8c-0.4,0.9-2,1-3.5,0.3l-7.1-3.3
			C123,239.6,122.1,238.3,122.5,237.4z"/>
	</g>
	<g>
		<path class="st3" d="M128.1,222.9c0.1,0.9-1.2,1.8-2.9,2l-7.8,0.6c-1.6,0.1-3.1-0.5-3.1-1.5s1.2-1.8,2.9-2l7.8-0.6
			C126.6,221.3,128,222,128.1,222.9z"/>
	</g>
	<g>
		<path class="st3" d="M176.7,144.1c0.4,0.9-0.5,2.1-1.9,2.9l-7,3.4c-1.5,0.7-3,0.6-3.5-0.2s0.5-2.1,1.9-2.9l7-3.4
			C174.7,143.1,176.3,143.2,176.7,144.1z"/>
	</g>
	<g>
		<path class="st3" d="M199.4,221.2c-0.1,0.9-1.5,1.6-3.1,1.5l-7.8-0.6c-1.6-0.1-2.9-1-2.9-1.9s1.5-1.6,3.1-1.5l7.8,0.6
			C198.1,219.4,199.4,220.2,199.4,221.2z"/>
	</g>
	<g>
		<path class="st3" d="M148.8,136.6c0.2,0.9-0.9,2-2.5,2.4l-7.6,2c-1.6,0.4-3.1,0-3.3-0.9s0.9-2,2.5-2.4l7.6-2
			C147.1,135.3,148.6,135.7,148.8,136.6z"/>
	</g>
	<g>
		<path class="st3" d="M114.9,188.3c0.4,0.9-0.6,2.1-2.1,2.7l-7.2,3c-1.5,0.6-3.1,0.4-3.4-0.4c-0.4-0.9,0.6-2.1,2.1-2.7l7.2-3
			C113,187.3,114.5,187.5,114.9,188.3z"/>
	</g>
	<g>
		<path class="st3" d="M152.6,94.2c-0.1,0.9-1.5,1.6-3.1,1.5l-7.8-0.6c-1.6-0.1-2.9-1-2.9-1.9c0.1-0.9,1.5-1.6,3.1-1.5l7.8,0.6
			C151.4,92.4,152.7,93.3,152.6,94.2z"/>
	</g>
	<g>
		<path class="st3" d="M169.2,80.8c-0.3,0.9-1.8,1.3-3.4,0.8l-7.5-2.2c-1.6-0.5-2.7-1.6-2.4-2.5s1.8-1.3,3.4-0.8l7.5,2.2
			C168.4,78.7,169.5,79.9,169.2,80.8z"/>
	</g>
	<g>
		<path class="st3" d="M141.1,70.6c0.7,0.7,0.3,2.2-0.9,3.3l-5.5,5.5c-1.2,1.2-2.7,1.6-3.3,0.9c-0.7-0.7-0.3-2.2,0.9-3.3l5.5-5.5
			C138.9,70.4,140.4,69.9,141.1,70.6z"/>
	</g>
	<g>
		<path class="st3" d="M125.4,102.4c0.4-0.9,2-1,3.5-0.3l7.1,3.3c1.5,0.7,2.4,2,2,2.8c-0.4,0.9-2,1-3.5,0.3l-7.1-3.3
			C125.9,104.6,125,103.3,125.4,102.4z"/>
	</g>
	<g>
		<path class="st3" d="M129.2,204.6c-0.1,0.9-1.5,1.6-3.1,1.5l-7.8-0.6c-1.6-0.1-2.9-1-2.9-1.9c0.1-0.9,1.5-1.6,3.1-1.5l7.8,0.6
			C127.9,202.8,129.2,203.7,129.2,204.6z"/>
	</g>
	<g>
		<path class="st4" d="M140.9,179.7c-0.3,0.9-1.8,1.3-3.4,0.8l-7.5-2.2c-1.6-0.5-2.7-1.6-2.4-2.5c0.3-0.9,1.8-1.3,3.4-0.8l7.5,2.2
			C140.1,177.6,141.2,178.8,140.9,179.7z"/>
	</g>
	<g>
		<path class="st3" d="M106.2,235.5c0.7,0.7,0.3,2.2-0.9,3.3l-5.5,5.5c-1.2,1.2-2.7,1.6-3.3,0.9c-0.7-0.7-0.3-2.2,0.9-3.3l5.5-5.5
			C104.1,235.2,105.6,234.8,106.2,235.5z"/>
	</g>
	<g>
		<path class="st3" d="M46.6,128.6c-0.3,0.9-1.8,1.3-3.4,0.8l-7.5-2.2c-1.6-0.5-2.7-1.6-2.4-2.5s1.8-1.3,3.4-0.8l7.5,2.2
			C45.8,126.6,46.9,127.7,46.6,128.6z"/>
	</g>
	<g>
		<path class="st4" d="M41.4,94.7c-0.1,0.9-1.5,1.6-3.1,1.5l-7.8-0.6c-1.6-0.1-2.9-1-2.9-1.9c0.1-0.9,1.5-1.6,3.1-1.5l7.8,0.6
			C40.2,92.8,41.5,93.7,41.4,94.7z"/>
	</g>
	<g>
		<path class="st3" d="M63.7,88.8c0.7,0.7,0.3,2.2-0.9,3.3l-5.5,5.5c-1.2,1.2-2.7,1.6-3.3,0.9c-0.7-0.7-0.3-2.2,0.9-3.3l5.5-5.5
			C61.6,88.5,63.1,88.1,63.7,88.8z"/>
	</g>
	<g>
		<path class="st3" d="M51,109.4c0.1,0.9-1.2,1.8-2.9,2l-7.8,0.6c-1.6,0.1-3.1-0.5-3.1-1.5c-0.1-0.9,1.2-1.8,2.9-2l7.8-0.6
			C49.5,107.8,50.9,108.4,51,109.4z"/>
	</g>
	<g>
		<path class="st3" d="M19.2,117.5c-0.6,0.7-2.1,0.4-3.4-0.6l-6-5.1c-1.3-1.1-1.8-2.5-1.2-3.3c0.6-0.7,2.1-0.4,3.4,0.6l6,5.1
			C19.3,115.3,19.8,116.7,19.2,117.5z"/>
	</g>
	<g>
		<path class="st3" d="M16.5,133.6c-0.2,0.9-1.7,1.4-3.3,1.1l-7.7-1.5c-1.6-0.3-2.8-1.3-2.6-2.3s1.7-1.4,3.3-1.1l7.7,1.5
			C15.5,131.7,16.7,132.7,16.5,133.6z"/>
	</g>
	<g>
		<path class="st4" d="M41.2,138.6c0.4,0.9-0.5,2.1-1.9,2.9l-7,3.4c-1.5,0.7-3,0.6-3.5-0.2c-0.4-0.9,0.5-2.1,1.9-2.9l7-3.4
			C39.3,137.7,40.8,137.8,41.2,138.6z"/>
	</g>
	<g>
		<path class="st3" d="M69.3,117.3c0.2,0.9-0.9,2-2.5,2.4l-7.6,2c-1.6,0.4-3.1,0-3.3-0.9s0.9-2,2.5-2.4l7.6-2
			C67.6,116,69.1,116.4,69.3,117.3z"/>
	</g>
	<g>
		<path class="st3" d="M62.8,13.6c-0.3,0.9-1.8,1.3-3.4,0.8l-7.5-2.2c-1.6-0.5-2.7-1.6-2.4-2.5s1.8-1.3,3.4-0.8l7.5,2.2
			C62,11.5,63.1,12.6,62.8,13.6z"/>
	</g>
	<g>
		<path class="st3" d="M87.6,31.5c-0.3,0.9-1.8,1.3-3.4,0.8l-7.5-2.2c-1.6-0.5-2.7-1.6-2.4-2.5c0.3-0.9,1.8-1.3,3.4-0.8l7.5,2.2
			C86.8,29.4,87.9,30.6,87.6,31.5z"/>
	</g>
	<g>
		<path class="st3" d="M100,6c0.7,0.7,0.3,2.2-0.9,3.3l-5.5,5.5c-1.2,1.2-2.7,1.6-3.3,0.9c-0.7-0.7-0.3-2.2,0.9-3.3l5.5-5.5
			C97.8,5.7,99.3,5.3,100,6z"/>
	</g>
	<g>
		<path class="st3" d="M131,12.8c0.1,0.9-1.2,1.8-2.9,2l-7.8,0.6c-1.6,0.1-3.1-0.5-3.1-1.5c-0.1-0.9,1.2-1.8,2.9-2l7.8-0.6
			C129.5,11.2,130.9,11.9,131,12.8z"/>
	</g>
	<g>
		<path class="st3" d="M57.4,23.6c0.4,0.9-0.5,2.1-1.9,2.9l-7,3.4c-1.5,0.7-3,0.6-3.5-0.2s0.5-2.1,1.9-2.9l7-3.4
			C55.5,22.6,57,22.7,57.4,23.6z"/>
	</g>
	<g>
		<path class="st3" d="M85.5,2.2c0.2,0.9-0.9,2-2.5,2.4l-7.6,2c-1.6,0.4-3.1,0-3.3-0.9c-0.2-0.9,0.9-2,2.5-2.4l7.6-2
			C83.8,0.9,85.3,1.3,85.5,2.2z"/>
	</g>
	<g>
		<path class="st4" d="M77.6,45.3c-0.3,0.9-1.8,1.3-3.4,0.8l-7.5-2.2c-1.6-0.5-2.7-1.6-2.4-2.5c0.3-0.9,1.8-1.3,3.4-0.8l7.5,2.2
			C76.8,43.3,77.9,44.4,77.6,45.3z"/>
	</g>
	<g>
		<path class="st4" d="M35.1,53.9c-0.2,0.9-1.7,1.4-3.3,1.1l-7.7-1.5c-1.6-0.3-2.8-1.3-2.6-2.3c0.2-0.9,1.7-1.4,3.3-1.1l7.7,1.5
			C34.1,52,35.3,53,35.1,53.9z"/>
	</g>
	<g>
		<path class="st3" d="M23.7,30.5c-0.1,0.9-1.5,1.6-3.1,1.5l-7.8-0.6c-1.6-0.1-2.9-1-2.9-1.9c0.1-0.9,1.5-1.6,3.1-1.5l7.8,0.6
			C22.4,28.7,23.7,29.6,23.7,30.5z"/>
	</g>
	<g>
		<path class="st4" d="M151.4,12c0.4,0.9-0.5,2.1-1.9,2.9l-7,3.4c-1.5,0.7-3,0.6-3.5-0.2c-0.4-0.9,0.5-2.1,1.9-2.9l7-3.4
			C149.4,11,151,11.2,151.4,12z"/>
	</g>
	<g>
		<path class="st3" d="M15.4,46.6c0.4,0.9-0.5,2.1-1.9,2.9l-7,3.4c-1.5,0.7-3,0.6-3.5-0.2c-0.4-0.9,0.5-2.1,1.9-2.9l7-3.4
			C13.5,45.7,15,45.8,15.4,46.6z"/>
	</g>
	<g>
		<path class="st3" d="M246.6,213.3c0.7,0.7,0.3,2.2-0.9,3.3l-5.5,5.5c-1.2,1.2-2.7,1.6-3.3,0.9c-0.7-0.7-0.3-2.2,0.9-3.3l5.5-5.5
			C244.4,213,245.9,212.6,246.6,213.3z"/>
	</g>
	<g>
		<path class="st3" d="M225.1,225.5c0.2,0.9-0.9,2-2.5,2.4l-7.6,2c-1.6,0.4-3.1,0-3.3-0.9s0.9-2,2.5-2.4l7.6-2
			C223.4,224.2,224.9,224.6,225.1,225.5z"/>
	</g>
	<g>
		<path class="st3" d="M194.6,183.2c-0.3,0.9-1.8,1.3-3.4,0.8l-7.5-2.2c-1.6-0.5-2.7-1.6-2.4-2.5s1.8-1.3,3.4-0.8l7.5,2.2
			C193.8,181.2,194.9,182.3,194.6,183.2z"/>
	</g>
	<g>
		<path class="st4" d="M249.4,149.4c-0.1,0.9-1.5,1.6-3.1,1.5l-7.8-0.6c-1.6-0.1-2.9-1-2.9-1.9c0.1-0.9,1.5-1.6,3.1-1.5l7.8,0.6
			C248.2,147.6,249.5,148.4,249.4,149.4z"/>
	</g>
	<g>
		<path class="st1" d="M83.3,179.5c0.4,0.9-0.6,2.1-2.1,2.7l-7.2,3c-1.5,0.6-3.1,0.4-3.4-0.4c-0.4-0.9,0.6-2.1,2.1-2.7l7.2-3
			C81.3,178.4,82.9,178.6,83.3,179.5z"/>
	</g>
	<g>
		<path class="st3" d="M83.3,177.5c0.4,0.9-0.6,2.1-2.1,2.7l-7.2,3c-1.5,0.6-3.1,0.4-3.4-0.4c-0.4-0.9,0.6-2.1,2.1-2.7l7.2-3
			C81.3,176.4,82.9,176.6,83.3,177.5z"/>
	</g>
</g>
</svg>
