<?xml version="1.0" encoding="utf-8"?>
<!-- Generator: Adobe Illustrator 22.1.0, SVG Export Plug-In . SVG Version: 6.00 Build 0)  -->
<svg version="1.1" id="Layer_1" xmlns="http://www.w3.org/2000/svg" xmlns:xlink="http://www.w3.org/1999/xlink" x="0px" y="0px"
	 viewBox="0 0 250 250" style="enable-background:new 0 0 250 250;" xml:space="preserve">
<style type="text/css">
	.st0{fill:#FFCAD4;}
	.st1{fill:#FFFFFF;}
	.st2{fill:#D17B88;}
	.st3{fill:#90E0F3;}
</style>
<g id="Layer_1_1_">
	<rect class="st0" width="250" height="250"/>
</g>
<g id="Layer_4">
	<polygon points="34.3,208.3 82.9,193.9 48.7,159.7 	"/>
	<polygon class="st1" points="202.5,31.2 125,84.7 211,125 	"/>
	<polygon points="10.4,20.2 37.2,60.6 58.9,17.3 	"/>
	<circle class="st2" cx="213" cy="181" r="35"/>
	<path class="st2" d="M174,168L174,168L174,168z"/>
</g>
<g id="Layer_5">
	<polygon class="st0" points="233.5,214.8 169.2,172.6 170.6,170.5 234.8,212.7 	"/>
	<polygon class="st0" points="236.5,210.8 172.2,168.6 173.6,166.5 237.8,208.7 	"/>
	<polygon class="st0" points="240.2,207.2 175.1,164.6 176.4,162.5 241.6,205.1 	"/>
	<polygon class="st0" points="243.2,203.2 178.1,160.6 179.4,158.5 244.6,201.1 	"/>
	<polygon class="st0" points="246.4,199 181,156.8 182.3,154.8 247.7,196.9 	"/>
	<polygon class="st0" points="247.4,193.9 183.9,152.6 185.2,150.5 248.7,191.8 	"/>
	<polygon class="st0" points="248.5,188.8 187.2,148.6 188.5,146.5 249.8,186.7 	"/>
	<polygon class="st0" points="248.5,182.8 189.9,144.6 191.2,142.5 249.8,180.7 	"/>
	<polygon class="st0" points="248.5,176.8 193,140.6 194.3,138.5 249.8,174.8 	"/>
	<polygon class="st0" points="248.4,171 195.8,137 197.4,134.5 250,168.4 	"/>
	<polygon class="st0" points="246.9,164.2 199,133.1 200.7,130.5 248.5,161.6 	"/>
	<polygon class="st0" points="228.6,217.5 166,176.6 167.4,174.5 230,215.4 	"/>
	<polygon class="st0" points="225.6,220.7 163,181.4 164.4,179.3 227,218.6 	"/>
	<polygon class="st0" points="222.6,225.5 160,184.6 161.4,182.5 224,223.4 	"/>
	<polygon class="st0" points="220.6,229.5 158,188.7 159.4,186.5 222,227.3 	"/>
	<polygon class="st0" points="64,233.7 9,178.5 10.8,176.7 65.7,231.9 	"/>
	<polygon class="st0" points="67.7,230.4 12.8,175.2 14.5,173.4 69.4,228.6 	"/>
	<polygon class="st0" points="71.7,226.9 16.4,172.1 18.1,170.4 73.4,225.1 	"/>
	<polygon class="st0" points="73.7,222.2 20.2,168.6 21.9,166.8 75.5,220.4 	"/>
	<polygon class="st0" points="76.7,218.3 24.2,165.3 25.9,163.6 78.4,216.5 	"/>
	<polygon class="st0" points="80.7,215 27.7,162 29.4,160.2 82.4,213.3 	"/>
	<polygon class="st0" points="8.4,60.6 35.5,9.8 37.7,10.9 10.6,61.7 	"/>
	<polygon class="st0" points="12.7,63.2 42,8 44.2,9.2 14.9,64.3 	"/>
	<polygon class="st0" points="16.6,66.6 48.9,5.4 51.1,6.6 18.8,67.7 	"/>
	<polygon class="st0" points="20.9,69.2 57.1,0.3 59.3,1.4 23.1,70.3 	"/>
	<polygon class="st0" points="25.4,71.9 61.2,2.9 63.3,4 27.6,73 	"/>
	<polygon class="st0" points="5.2,55.6 30.3,9.2 32.5,10.3 7.5,56.8 	"/>
	<polygon class="st0" points="1.8,52.9 24.4,8.2 26.6,9.4 4,54.1 	"/>
	<polygon class="st0" points="7,30.5 21.8,3.9 24,5 9.3,31.6 	"/>
	<polygon class="st0" points="4.7,26.8 16.2,5.6 18.5,6.8 7,28 	"/>
	<polygon class="st0" points="214.4,95.2 144.7,62.8 145.7,60.5 215.4,92.9 	"/>
	<polygon class="st0" points="216.8,90.8 147.1,58.4 148.1,56.1 217.8,88.5 	"/>
	<polygon class="st0" points="220,86.7 149.3,54 150.3,51.7 221,84.4 	"/>
	<polygon class="st0" points="222.3,82.3 151.7,49.6 152.7,47.3 223.3,80 	"/>
	<polygon class="st0" points="224.8,77.6 154,45.4 155,43.2 225.9,75.4 	"/>
	<polygon class="st0" points="225.1,72.5 156.3,40.8 157.3,38.6 226.1,70.2 	"/>
	<polygon class="st0" points="226.6,67.8 158.9,36.4 159.9,34.1 227.6,65.6 	"/>
	<polygon class="st0" points="229.2,63.4 161.1,32 162.1,29.8 230.2,61.1 	"/>
	<polygon class="st0" points="231.5,59 163.6,27.6 164.6,25.4 232.5,56.8 	"/>
	<polygon class="st0" points="233.8,54.6 165.8,23.7 167.1,21 235,51.9 	"/>
	<polygon class="st0" points="236,50.3 168.4,19.3 169.7,16.5 237.2,47.5 	"/>
	<polygon class="st0" points="212.8,121.5 125.1,80.8 126.1,78.6 213.8,119.2 	"/>
	<polygon class="st0" points="222,120.1 128.2,76.8 129.2,74.5 223,117.9 	"/>
	<polygon class="st0" points="215.3,111.6 127.2,70.9 128.2,68.7 216.3,109.3 	"/>
	<polygon class="st0" points="211,104.1 131.5,67.4 132.5,65.1 212,101.9 	"/>
	<polygon class="st0" points="213.5,99.5 142.7,67.3 143.7,65 214.5,97.2 	"/>
	<polygon class="st0" points="213,126.9 121.7,84.6 122.7,82.3 214,124.6 	"/>
	<polygon class="st0" points="86.7,214.2 33.2,160.6 34.9,158.8 88.5,212.4 	"/>
	<polygon class="st0" points="89.7,210.3 37.2,157.3 38.9,155.6 91.4,208.5 	"/>
	<polygon class="st0" points="92.7,206 39.7,153 41.4,151.2 94.4,204.3 	"/>
</g>
<g id="Layer_3">
	
		<rect x="192.4" y="62.9" transform="matrix(0.7181 -0.696 0.696 0.7181 12.5172 167.812)" class="st2" width="41.9" height="11.1"/>
	<rect x="84.8" y="16.9" transform="matrix(0.9085 -0.4178 0.4178 0.9085 -7.5994 40.9807)" class="st2" width="10" height="41.9"/>
	
		<rect x="63.8" y="73.9" transform="matrix(0.5549 -0.8319 0.8319 0.5549 -48.2769 99.4474)" class="st2" width="10" height="41.9"/>
	
		<rect x="127.8" y="107.9" transform="matrix(0.9438 -0.3304 0.3304 0.9438 -35.1134 51.113)" class="st2" width="10" height="41.9"/>
	
		<rect x="131.8" y="161.9" transform="matrix(3.597521e-02 -0.9994 0.9994 3.597521e-02 -50.827 312.9828)" class="st2" width="10" height="41.9"/>
	
		<rect x="-7.1" y="112.9" transform="matrix(0.4067 -0.9136 0.9136 0.4067 -99.5266 82.5926)" class="st2" width="41.9" height="10"/>
	<rect x="7.8" y="225.9" transform="matrix(0.805 -0.5932 0.5932 0.805 -131.3684 62.0856)" class="st2" width="41.9" height="10"/>
	
		<rect x="137.8" y="229.8" transform="matrix(0.9228 -0.3854 0.3854 0.9228 -78.2359 79.3176)" class="st2" width="41.9" height="10"/>
	
		<rect x="145.1" y="17.8" transform="matrix(0.5264 -0.8502 0.8502 0.5264 59.0406 152.1182)" class="st2" width="41.9" height="10.6"/>
</g>
<g id="Layer_2_1_">
	<polygon class="st3" points="102.9,123.1 91.6,138.2 110.5,140.4 	"/>
	<polygon class="st3" points="95.8,222.4 80.3,235.4 99.9,242.1 	"/>
	<polygon class="st3" points="227.4,227.8 208.9,219.8 211.6,240.3 	"/>
	<circle class="st3" cx="27.5" cy="151.5" r="4.5"/>
	<circle cx="193.5" cy="134.5" r="4.5"/>
	
		<rect x="192.4" y="59.9" transform="matrix(0.7181 -0.696 0.696 0.7181 14.6052 166.9661)" class="st3" width="41.9" height="11.1"/>
	<rect x="87.8" y="17.9" transform="matrix(0.9085 -0.4178 0.4178 0.9085 -7.7428 42.3256)" class="st3" width="10" height="41.9"/>
	
		<rect x="60.8" y="73.9" transform="matrix(0.5549 -0.8319 0.8319 0.5549 -49.6122 96.9517)" class="st3" width="10" height="41.9"/>
	
		<rect x="124.8" y="105.9" transform="matrix(0.9438 -0.3304 0.3304 0.9438 -34.6211 50.0094)" class="st3" width="10" height="41.9"/>
	
		<rect x="133.8" y="159.9" transform="matrix(3.597521e-02 -0.9994 0.9994 3.597521e-02 -46.9002 313.0531)" class="st3" width="10" height="41.9"/>
	
		<rect x="-5.1" y="111.9" transform="matrix(0.4067 -0.9136 0.9136 0.4067 -97.4266 83.8264)" class="st3" width="41.9" height="10"/>
	
		<rect x="10.8" y="225.9" transform="matrix(0.805 -0.5932 0.5932 0.805 -130.7837 63.8652)" class="st3" width="41.9" height="10"/>
	
		<rect x="136.8" y="231.8" transform="matrix(0.9228 -0.3854 0.3854 0.9228 -79.084 79.0867)" class="st3" width="41.9" height="10"/>
	
		<rect x="148.1" y="17.8" transform="matrix(0.5264 -0.8502 0.8502 0.5264 60.4612 154.6689)" class="st3" width="41.9" height="10.6"/>
</g>
</svg>
