<?xml version="1.0" encoding="utf-8"?>
<!-- Generator: Adobe Illustrator 22.1.0, SVG Export Plug-In . SVG Version: 6.00 Build 0)  -->
<svg version="1.1" id="Layer_1" xmlns="http://www.w3.org/2000/svg" xmlns:xlink="http://www.w3.org/1999/xlink" x="0px" y="0px"
	 viewBox="0 0 32 32" style="enable-background:new 0 0 32 32;" xml:space="preserve">
<style type="text/css">
	.st0{fill:#FFFFFF;}
	.st1{fill:#595959;}
	.st2{fill:#404040;}
	.st3{opacity:0.16;fill:#FFFFFF;}
	.st4{fill:#E8E8E8;}
	.st5{opacity:0.2;clip-path:url(#SVGID_2_);}
</style>
<g>
	<path class="st0" d="M0,23.6V2.8c0-0.9,0.7-1.6,1.6-1.6h28.8c0.9,0,1.6,0.7,1.6,1.6v20.8c0,0.9-0.7,1.6-1.6,1.6H1.6
		C0.7,25.2,0,24.5,0,23.6z"/>
	<path class="st1" d="M0,21.6V2.7c0-0.8,0.7-1.5,1.6-1.5h28.8c0.9,0,1.6,0.7,1.6,1.5v18.9"/>
	<rect x="1.6" y="2.8" class="st2" width="28.8" height="17.2"/>
	<polygon class="st3" points="16,11.6 1.6,20 1.6,2.8 30.4,2.8 	"/>
	<circle class="st2" cx="16" cy="23.2" r="0.8"/>
	<polygon class="st0" points="21.7,30.8 10.5,30.8 11.3,30 20.9,30 	"/>
	<polygon class="st4" points="20.9,30 11.3,30 11.7,25.2 20.5,25.2 	"/>
	<g>
		<defs>
			<polygon id="SVGID_1_" points="20.9,30 11.3,30 11.7,25.2 20.5,25.2 			"/>
		</defs>
		<clipPath id="SVGID_2_">
			<use xlink:href="#SVGID_1_"  style="overflow:visible;"/>
		</clipPath>
		<rect x="11.3" y="25.2" class="st5" width="9.6" height="0.8"/>
	</g>
</g>
</svg>
