<?xml version="1.0" encoding="utf-8"?>
<!-- Generator: Adobe Illustrator 22.1.0, SVG Export Plug-In . SVG Version: 6.00 Build 0)  -->
<svg version="1.1" id="Layer_1" xmlns="http://www.w3.org/2000/svg" xmlns:xlink="http://www.w3.org/1999/xlink" x="0px" y="0px"
	 viewBox="0 0 50 50" style="enable-background:new 0 0 50 50;" xml:space="preserve">
<style type="text/css">
	.st0{fill:#EBEBEB;}
	.st1{fill:#4062BB;}
	.st2{fill:none;stroke:#F45B69;stroke-miterlimit:10;}
	.st3{fill-rule:evenodd;clip-rule:evenodd;fill:#2EF2B2;stroke:#2EF2B2;stroke-miterlimit:10;}
	.st4{fill-rule:evenodd;clip-rule:evenodd;fill:none;stroke:#52489C;stroke-miterlimit:10;}
</style>
<g>
	<rect class="st0" width="50" height="50"/>
</g>
<g>
	<polygon class="st1" points="5.7,14 14.7,5.3 17.7,17.5 	"/>
	<path class="st1" d="M14.4,6.3l2.6,10.5l-10.4-3L14.4,6.3 M15,4.4L4.7,14.3l13.8,4L15,4.4L15,4.4z"/>
</g>
<g>
	<path class="st2" d="M44.8,26c-5.6,2.5-12.2,0-14.7-5.6c-2-4.5,0-9.7,4.5-11.7c3.6-1.6,7.8,0,9.4,3.6c1.3,2.9,0,6.2-2.9,7.5
		c-2.3,1-5,0-6-2.3c-0.8-1.8,0-4,1.8-4.8c1.5-0.7,3.2,0,3.8,1.5c0.5,1.2,0,2.6-1.2,3.1c-0.9,0.4-2,0-2.5-0.9c-0.3-0.8,0-1.6,0.8-2"
		/>
</g>
<circle class="st3" cx="27.5" cy="42.5" r="5"/>
<path class="st4" d="M7.3,36.1C7.5,35,8,33.6,9.1,33c1.6-0.9,3.2,0.6,4.6-0.3c1.4-0.9,0.5-3.2,1.9-4.2c1.5-1,3.2,0.7,4.6-0.3
	c1.4-1,0.5-3.2,1.9-4.2c0.9-0.6,2.1-0.4,2.9-0.1"/>
</svg>
